<?xml version="1.0" standalone="no"?>
<!DOCTYPE svg PUBLIC "-//W3C//DTD SVG 1.1//EN" "http://www.w3.org/Graphics/SVG/1.1/DTD/svg11.dtd" >
<svg xmlns="http://www.w3.org/2000/svg" xmlns:xlink="http://www.w3.org/1999/xlink" version="1.1">
<metadata>
Created by FontForge 20170731 at Tue Nov  3 21:26:32 2015
 By Aleksey,,,
Copyright (c) 2010 by Typemade. All rights reserved.
</metadata>
<defs>
<font id="JosefinSansRegularItalic" horiz-adv-x="480" >
  <font-face 
    font-family="Josefin Sans"
    font-weight="400"
    font-style="italic"
    font-stretch="normal"
    units-per-em="1000"
    panose-1="0 0 0 0 0 0 0 0 0 0"
    ascent="800"
    descent="-200"
    x-height="400"
    cap-height="714"
    bbox="-98 -242 978 955"
    underline-thickness="50"
    underline-position="-150"
    slope="-7.5"
    unicode-range="U+000D-FB02"
  />
<missing-glyph horiz-adv-x="300" 
 />
    <glyph glyph-name=".notdef" horiz-adv-x="300" 
 />
    <glyph glyph-name=".null" horiz-adv-x="0" 
 />
    <glyph glyph-name=".null" horiz-adv-x="0" 
 />
    <glyph glyph-name="nonmarkingreturn" unicode="&#xd;" horiz-adv-x="300" 
 />
    <glyph glyph-name="space" unicode=" " horiz-adv-x="246" 
 />
    <glyph glyph-name="exclam" unicode="!" horiz-adv-x="253" 
d="M155 756h59l-72 -589h-59zM94 13q-16 0 -26.5 12t-8.5 29q2 19 15.5 30t29.5 11q15 0 26 -11t9 -30q-2 -17 -16 -29t-29 -12z" />
    <glyph glyph-name="quotedbl" unicode="&#x22;" horiz-adv-x="334" 
d="M95 476l31 250h60l-35 -250h-56zM230 476l31 250h59l-35 -250h-55z" />
    <glyph glyph-name="numbersign" unicode="#" horiz-adv-x="574" 
d="M271 0l49 203h-126q-12 -51 -25 -101.5t-24 -101.5h-59q12 51 24.5 101.5t23.5 101.5h-101q3 14 7 28.5t6 28.5h103q8 32 15 63.5t16 63.5h-101l12 57h102l51 204h58q-13 -51 -25 -101.5t-25 -102.5h127l50 204h59q-14 -51 -26 -101.5t-24 -102.5h115l-13 -57h-116
l-31 -127h115l-14 -57h-115l-49 -203h-59zM239 387q-8 -32 -16 -63.5t-16 -63.5h127l31 127h-126z" />
    <glyph glyph-name="dollar" unicode="$" horiz-adv-x="553" 
d="M528 677l-32 -55q-33 14 -74 23.5t-80 10.5l-29 -243q33 -13 66.5 -28t60.5 -37t44 -53t17 -75q0 -48 -17.5 -87.5t-49 -68.5t-76 -47t-97.5 -23l-7 -62h-42l7 60q-42 0 -75.5 8t-59.5 18.5t-44.5 21.5t-28.5 18l38 60q32 -23 80.5 -40.5t97.5 -18.5l37 303
q-31 12 -60 25.5t-51.5 31.5t-36.5 42t-14 58q0 35 14.5 68.5t41.5 60t65 45t85 23.5l8 64h42l-8 -62q27 -1 55 -5.5t52 -11t42.5 -13t28.5 -11.5zM433 212q0 27 -10.5 47.5t-28 36t-41 27.5t-49.5 23l-35 -284q28 4 57 15t53 29t39 44.5t15 61.5zM172 532q0 -39 29 -62.5
t72 -40.5l27 223q-60 -10 -94 -44t-34 -76z" />
    <glyph glyph-name="percent" unicode="%" horiz-adv-x="677" 
d="M429 105q0 -24 15.5 -40.5t41.5 -16.5q30 0 51 21t21 50q0 24 -15.5 40.5t-41.5 16.5q-30 0 -51 -21t-21 -50zM479 -9q-47 0 -77.5 31.5t-30.5 78.5q0 27 11.5 51t30 42t43.5 28.5t52 10.5q23 0 43 -8.5t34.5 -23t23 -34.5t8.5 -42q0 -28 -11.5 -52.5t-31 -42.5
t-44 -28.5t-51.5 -10.5zM117 385q0 -24 15.5 -40.5t41.5 -16.5q29 0 50 21t21 50q0 24 -15 40t-40 16q-30 0 -51.5 -20.5t-21.5 -49.5zM167 271q-47 0 -78 31t-31 78q0 27 11.5 51.5t31 42.5t44.5 28.5t52 10.5q22 0 42 -8.5t34.5 -23t23 -34.5t8.5 -43q0 -28 -11.5 -52
t-31 -42t-44.5 -28.5t-51 -10.5zM122 0q90 127 180.5 252t181.5 252h64q-91 -127 -181 -252t-181 -252h-64z" />
    <glyph glyph-name="ampersand" unicode="&#x26;" horiz-adv-x="649" 
d="M579 0h-66q-1 0 -16.5 22.5t-40.5 59.5q-35 -40 -92 -65t-123 -25q-47 0 -85.5 14t-65.5 38.5t-42 58.5t-15 74q0 44 17 82t46.5 68t68 50.5t80.5 28.5q-19 31 -32 54t-18 35q-9 23 -15.5 45t-6.5 47q0 38 15.5 69t41 52.5t59.5 33.5t70 12q44 1 79 -12.5t57 -28.5
q0 -1 -5.5 -7.5t-11.5 -14t-11.5 -13.5t-5.5 -7q-18 11 -39.5 19.5t-47.5 10.5q-26 1 -51.5 -5.5t-45.5 -21t-32.5 -36.5t-12.5 -51q0 -28 7.5 -48.5t9.5 -23.5l211 -330l114 225h59l-140 -275zM277 355q-33 -1 -66 -14t-60 -35.5t-44 -54t-17 -68.5q0 -33 13 -58.5t35 -43
t51 -26.5t62 -9q25 0 51 6t49.5 16.5t43 25t33.5 31.5q-36 53 -76 113.5t-75 116.5z" />
    <glyph glyph-name="quotesingle" unicode="'" horiz-adv-x="202" 
d="M95 476l31 250h61l-35 -250h-57z" />
    <glyph glyph-name="parenleft" unicode="(" horiz-adv-x="276" 
d="M41 220q0 88 20 168t52.5 148t73 123t81.5 93l46 -23q-39 -38 -77 -90t-68.5 -116.5t-49.5 -139.5t-19 -160q0 -59 8.5 -112.5t23.5 -100.5t34.5 -85.5t40.5 -66.5l-51 -23q-23 28 -44 68.5t-37 90t-25 107t-9 119.5z" />
    <glyph glyph-name="parenright" unicode=")" horiz-adv-x="277" 
d="M240 367q0 -89 -20 -169t-52.5 -148.5t-73 -123t-82.5 -93.5q-11 6 -22.5 11.5t-22.5 10.5q38 38 76.5 90t69 116.5t49.5 139.5t19 160q0 58 -8.5 112t-23.5 101t-34.5 85.5t-40.5 66.5q13 6 25.5 12t25.5 13q23 -29 44 -69.5t36.5 -90t25 -106.5t9.5 -118z" />
    <glyph glyph-name="asterisk" unicode="*" horiz-adv-x="391" 
d="M271 575q22 -13 43.5 -26t43.5 -27q-8 -9 -14 -18.5t-14 -19.5l-84 54l-15 -104h-40l13 104q-24 -13 -48.5 -25.5t-48.5 -26.5l-18 39l98 51l-84 54q5 9 11.5 18t12.5 17l86 -54l13 109h44q-3 -27 -7 -54t-7 -55l100 53q4 -8 8 -17l8 -18z" />
    <glyph glyph-name="plus" unicode="+" horiz-adv-x="455" 
d="M170 51l19 154h-152l7 56h152l19 153h59l-19 -153h152l-7 -56h-152l-19 -154h-59z" />
    <glyph glyph-name="comma" unicode="," horiz-adv-x="231" 
d="M134 87l-112 -208h-54q27 53 52.5 104t51.5 104h62z" />
    <glyph glyph-name="hyphen" unicode="-" horiz-adv-x="313" 
d="M51 178l7 57h186l-7 -57h-186z" />
    <glyph glyph-name="period" unicode="." horiz-adv-x="208" 
d="M36 37q0 19 14 32t31 13q14 0 24.5 -10.5t10.5 -26.5q0 -20 -14.5 -32.5t-30.5 -12.5q-14 0 -24.5 10t-10.5 27z" />
    <glyph glyph-name="slash" unicode="/" horiz-adv-x="420" 
d="M4 -19q94 192 186.5 380.5t186.5 380.5h59q-94 -192 -186.5 -380.5t-186.5 -380.5h-59z" />
    <glyph glyph-name="zero" unicode="0" horiz-adv-x="653" 
d="M60 280q0 74 22.5 143.5t63.5 122.5t100 85t131 32q67 0 113.5 -29t74.5 -76t37 -107.5t1 -124.5q-10 -75 -39 -136.5t-71 -105.5t-94 -68t-109 -24q-50 0 -92 21t-73 58.5t-48 90.5t-17 118zM122 329q-8 -60 3 -111.5t35 -88.5t59.5 -58.5t77.5 -21.5q46 0 91.5 24
t80.5 66.5t57 101t22 126.5q0 46 -11 89t-33 76.5t-55.5 53.5t-79.5 20q-53 0 -95.5 -24t-74 -63.5t-51.5 -89t-26 -100.5z" />
    <glyph glyph-name="one" unicode="1" horiz-adv-x="297" 
d="M81 598l7 57h145l-80 -655h-60l73 598h-85z" />
    <glyph glyph-name="two" unicode="2" horiz-adv-x="528" 
d="M176 57h288l-7 -57h-430q74 65 144 127t124 121t86.5 114.5t32.5 107.5q0 37 -11.5 63t-29.5 42t-39 23.5t-40 7.5q-47 0 -78 -17.5t-49 -42t-25.5 -52.5t-7.5 -49q0 -55 29 -90l-40 -35q-23 20 -35 55.5t-12 70.5q0 42 15.5 81t44.5 69.5t70.5 48.5t94.5 18q40 0 72 -14
t54.5 -38.5t34.5 -57.5t12 -70q0 -57 -26.5 -111.5t-68.5 -107t-95.5 -104t-107.5 -103.5z" />
    <glyph glyph-name="three" unicode="3" horiz-adv-x="472" 
d="M142 341q50 65 103 128.5t104 128.5h-239l7 57h336l-100 -122t-99 -123q33 -6 61.5 -22t48.5 -40t31.5 -54.5t11.5 -66.5q0 -48 -20.5 -90.5t-54 -75t-77.5 -51t-91 -18.5t-84.5 19t-63.5 51l48 41q17 -25 44 -39.5t62 -14.5q34 0 66.5 14t57.5 37.5t40 54.5t15 66
q0 29 -11 54.5t-29.5 44.5t-44 30t-55.5 11q-35 0 -67 -20z" />
    <glyph glyph-name="four" unicode="4" horiz-adv-x="528" 
d="M358 503q-27 -31 -58 -65.5t-62.5 -69.5t-62 -70t-58.5 -66h208zM-4 175q108 121 220.5 244.5t220.5 243.5l-53 -431h98l-7 -57h-98l-21 -175h-59l21 175h-322z" />
    <glyph glyph-name="five" unicode="5" horiz-adv-x="467" 
d="M93 320l41 335h290l-7 -57h-239l-24 -195q15 6 30 10t33 4q43 0 78.5 -14.5t60.5 -40t38.5 -60t13.5 -73.5q0 -49 -20.5 -92t-54.5 -75.5t-78 -51t-91 -18.5q-42 0 -78 15.5t-62 44.5l48 39q18 -20 43 -31t56 -11q34 0 66.5 14t57 37.5t39.5 54.5t15 65q0 29 -10.5 54.5
t-29.5 44.5t-44.5 30t-55.5 11t-61 -9t-55 -31z" />
    <glyph glyph-name="six" unicode="6" horiz-adv-x="535" 
d="M42 181q0 54 18.5 102t49 91t70.5 81t82.5 71t85.5 61.5t80 53.5l31 -46q-49 -30 -93.5 -62t-81.5 -62t-64.5 -56.5t-40.5 -46.5q20 22 47.5 35.5t57.5 13.5q41 0 76 -15t60.5 -41t40 -60.5t14.5 -74.5q0 -48 -20 -90.5t-53.5 -74.5t-77.5 -50.5t-91 -18.5
q-37 0 -71.5 13t-61 37t-42.5 59t-16 80zM103 189q0 -29 10 -54.5t28 -44.5t43 -30t55 -11q34 0 66 13.5t57 37t39.5 54.5t14.5 66q0 29 -10.5 54.5t-29.5 44.5t-44 30t-55 11q-34 0 -65.5 -13.5t-55.5 -37t-38.5 -54.5t-14.5 -66z" />
    <glyph glyph-name="seven" unicode="7" horiz-adv-x="461" 
d="M71 598l7 57h412q-91 -169 -178.5 -329.5t-175.5 -325.5h-68q78 143 160 294.5t163 303.5h-320z" />
    <glyph glyph-name="eight" unicode="8" horiz-adv-x="534" 
d="M196 498q0 -35 25 -58t63 -23q22 0 41.5 7.5t34.5 21t24 31.5t9 39q0 37 -24 63.5t-62 26.5q-22 0 -42 -9t-35.5 -24t-24.5 -34.5t-9 -40.5zM103 189q0 -29 10 -54t28 -44.5t42.5 -30.5t53.5 -11q34 0 66.5 14t57 37.5t39.5 54.5t15 65q0 29 -10.5 54.5t-29 44.5
t-43.5 30t-55 11q-34 0 -65.5 -13t-55.5 -36.5t-38.5 -54.5t-14.5 -67zM42 181q0 40 12.5 74.5t34 62t49.5 46.5t58 29q-29 16 -43.5 43.5t-14.5 57.5q0 35 14.5 65.5t38.5 53.5t55.5 36.5t65.5 13.5q30 0 55 -10.5t43 -29.5t28.5 -44.5t10.5 -55.5q0 -42 -22 -75.5
t-63 -54.5q48 -17 79.5 -61t31.5 -107q0 -47 -19 -89t-52 -74t-77.5 -51t-95.5 -19q-43 0 -78 15t-59.5 41t-38 60t-13.5 73z" />
    <glyph glyph-name="nine" unicode="9" horiz-adv-x="533" 
d="M441 428q4 32 -5 60.5t-27 49.5t-44.5 33.5t-58.5 12.5q-35 0 -67 -13.5t-56.5 -37t-39.5 -54.5t-15 -66q0 -29 10.5 -54.5t29.5 -44.5t44.5 -30t55.5 -11q32 0 61.5 12t53 33t39 49.5t19.5 60.5zM500 428q-10 -77 -51.5 -141.5t-98 -118.5t-119.5 -97.5t-115 -78.5
q-8 11 -15.5 23t-14.5 23q49 30 93.5 61.5t81.5 61.5t64 57t41 47q-20 -23 -47.5 -36t-58.5 -13q-41 0 -75.5 15t-60.5 40.5t-40.5 60.5t-14.5 75q0 48 20 90.5t54 74.5t78 50.5t91 18.5q39 0 75.5 -14.5t63.5 -41.5t41 -66.5t8 -90.5z" />
    <glyph glyph-name="colon" unicode=":" horiz-adv-x="207" 
d="M66 301q0 19 14.5 32t31.5 13q14 0 25 -10.5t11 -26.5q0 -20 -14.5 -32.5t-31.5 -12.5q-14 0 -25 10t-11 27zM34 37q0 19 14.5 32t31.5 13q14 0 24.5 -10.5t10.5 -26.5q0 -20 -14.5 -32.5t-30.5 -12.5q-14 0 -25 10t-11 27z" />
    <glyph glyph-name="semicolon" unicode=";" horiz-adv-x="251" 
d="M97 289q0 19 14.5 32t31.5 13q14 0 24.5 -10.5t10.5 -26.5q0 -20 -14.5 -32.5t-30.5 -12.5q-14 0 -25 10t-11 27zM136 87q-29 -53 -56.5 -104t-56.5 -104h-53q26 53 51.5 104t52.5 104h62z" />
    <glyph glyph-name="less" unicode="&#x3c;" horiz-adv-x="558" 
d="M449 64l-9 -79l-409 255q118 63 235.5 127t235.5 127l-9 -78q-82 -44 -164 -87.5t-163 -88.5q71 -45 142 -88.5t141 -87.5z" />
    <glyph glyph-name="equal" unicode="=" horiz-adv-x="649" 
d="M568 184l-7 -57h-510l7 57h510zM592 380l-7 -58h-510l7 58h510z" />
    <glyph glyph-name="greater" unicode="&#x3e;" horiz-adv-x="560" 
d="M48 -15l10 79l327 176l-284 176l9 78q103 -63 204.5 -127t204.5 -127z" />
    <glyph glyph-name="question" unicode="?" horiz-adv-x="477" 
d="M122 573l-48 18q11 24 29 50t44 47.5t61 35.5t80 14q39 0 71 -14t55 -38t36 -56t13 -69q0 -63 -32.5 -108.5t-89.5 -83.5q-18 -12 -35.5 -22t-32.5 -23t-25.5 -32t-14.5 -48l-10 -79h-59l12 98q4 32 17 52t32.5 35t43.5 28.5t50 33.5q44 31 64 67t20 78q0 54 -33.5 89
t-88.5 35q-58 0 -97 -28.5t-62 -79.5zM174 9q-14 0 -24.5 10t-10.5 27q0 19 14.5 32t30.5 13q14 0 24.5 -10.5t10.5 -26.5q0 -20 -15 -32.5t-30 -12.5z" />
    <glyph glyph-name="at" unicode="@" horiz-adv-x="936" 
d="M227 177q0 47 19.5 89.5t52 74t75 50t89.5 18.5q30 0 55 -8t44 -21.5t31 -30t17 -32.5l14 83h51l-43 -349h55q22 0 45 11.5t42 36t31 63t12 93.5q0 61 -21 116.5t-60.5 97.5t-97.5 66.5t-132 24.5q-95 0 -172 -35t-132 -92t-84.5 -128.5t-29.5 -144.5q0 -68 24 -126.5
t66.5 -102.5t101.5 -69t128 -25q60 0 116.5 18t106.5 50l27 -38q-56 -40 -124 -61t-135 -21q-78 0 -145 29t-116 79.5t-76.5 118t-27.5 145.5q0 86 35.5 168t99.5 145.5t151.5 102.5t192.5 39q85 0 151.5 -28.5t112.5 -76.5t70.5 -112t24.5 -134q0 -68 -16 -117t-43 -81
t-62 -47.5t-73 -15.5h-107l5 41q2 11 3 21t3 19q-9 -17 -25.5 -32.5t-38 -28.5t-48.5 -20.5t-58 -7.5q-42 0 -76 14.5t-58 39.5t-37.5 59t-13.5 72zM282 185q0 -30 10 -55t28.5 -44t44 -29.5t55.5 -10.5q36 0 68.5 13.5t56.5 36.5t38 54.5t14 66.5q0 29 -10 54.5t-28.5 44
t-44 29t-56.5 10.5q-36 0 -68 -13t-56 -36t-38 -54t-14 -67z" />
    <glyph glyph-name="A" unicode="A" horiz-adv-x="645" 
d="M528 0q-14 46 -33 113t-39 142h-274q-38 -75 -73.5 -142t-60.5 -113h-68q20 36 52 95.5t69.5 130.5t78.5 147.5t78.5 147.5t69.5 130t52 96q11 -37 28.5 -96t37.5 -130t42.5 -147.5t42.5 -147.5t37.5 -130.5t28.5 -95.5h-69zM348 572q-26 -47 -61.5 -115t-73.5 -143h228
q-21 75 -40 143t-33 115q-1 4 -2.5 13.5t-3.5 17.5q-3 -8 -7.5 -17.5t-6.5 -13.5z" />
    <glyph glyph-name="B" unicode="B" horiz-adv-x="581" 
d="M216 652l-32 -263h120q36 0 63.5 12t46.5 33t29 49t10 60q0 57 -35.5 83t-94.5 26h-107zM177 330l-33 -268h122q37 0 70 9t58 27.5t39.5 46.5t14.5 65q0 32 -13.5 55t-36 37.5t-52.5 21t-62 6.5h-107zM68 0l88 714h167q91 0 145 -36.5t54 -120.5q0 -31 -7 -62t-22.5 -57
t-41.5 -46.5t-63 -30.5q25 -5 48 -16.5t41 -30.5t28.5 -44.5t10.5 -59.5q0 -54 -21.5 -93.5t-57 -65.5t-81 -38.5t-92.5 -12.5h-196z" />
    <glyph glyph-name="C" unicode="C" horiz-adv-x="643" 
d="M590 48q-35 -20 -90 -38t-125 -18q-76 0 -135 25.5t-100 69t-62.5 102t-21.5 123.5q0 87 34.5 162t92 130t132.5 86.5t157 31.5q27 0 54.5 -3.5t51.5 -10.5t44 -16t33 -20q-6 -8 -9.5 -13t-7 -10.5t-8.5 -12.5t-12 -18q-29 20 -70.5 30t-80.5 10q-68 0 -130 -27
t-109 -72.5t-74.5 -105.5t-27.5 -126q0 -53 18 -101t51.5 -84.5t82 -58t108.5 -21.5q29 0 56.5 4.5t51.5 12t42.5 15.5t29.5 16z" />
    <glyph glyph-name="D" unicode="D" horiz-adv-x="713" 
d="M156 714h166q97 0 164.5 -28.5t109 -74t60 -103.5t18.5 -116q0 -89 -34 -161.5t-90 -123.5t-129 -79t-152 -28h-201zM270 65q68 0 129 22.5t107 64.5t73 102t27 135q0 55 -18.5 102.5t-53.5 82.5t-85 54.5t-114 19.5h-118l-72 -583h125z" />
    <glyph glyph-name="E" unicode="E" horiz-adv-x="611" 
d="M68 0l88 714h450l-8 -62h-382l-32 -261h342l-8 -64h-342l-32 -263h396l-8 -64h-464z" />
    <glyph glyph-name="F" unicode="F" horiz-adv-x="555" 
d="M68 0l88 714h409l-8 -63h-341l-33 -270h301l-8 -64h-301l-39 -317h-68z" />
    <glyph glyph-name="G" unicode="G" horiz-adv-x="683" 
d="M623 327l-34 -284q-44 -24 -98 -37.5t-111 -13.5q-77 0 -137 24t-102 66.5t-64 100.5t-22 125q0 88 35 164t93 131.5t134 87t157 31.5q51 0 102 -13t89 -38l-41 -56q-31 20 -74 31.5t-85 11.5q-65 0 -126.5 -26.5t-109 -72.5t-76.5 -107.5t-29 -130.5q0 -54 18.5 -102
t52.5 -84t83 -57t110 -21q33 0 70.5 7.5t72.5 22.5l22 180h-154l7 60h217z" />
    <glyph glyph-name="H" unicode="H" horiz-adv-x="749" 
d="M68 0l88 714h69l-40 -322h406l40 322h70q-4 -35 -11 -91.5t-15.5 -124t-18 -141t-18 -141t-16 -124.5t-11.5 -92h-68l40 327h-406l-40 -327h-69z" />
    <glyph glyph-name="I" unicode="I" horiz-adv-x="273" 
d="M156 714h69l-88 -714h-69z" />
    <glyph glyph-name="J" unicode="J" horiz-adv-x="298" 
d="M-87 -146l8 64q36 2 67.5 15.5t56.5 38.5t42 62t23 85l73 595h68l-73 -598q-8 -62 -31.5 -110.5t-59 -81.5t-80.5 -51t-94 -19z" />
    <glyph glyph-name="K" unicode="K" horiz-adv-x="622" 
d="M503 0q-63 95 -121 184.5t-122 185.5q-20 -18 -40 -35t-41 -34q-10 -78 -18 -150.5t-18 -150.5h-75l88 714h75l-37 -300q-1 -8 -3 -16t-4 -17q5 7 11 12t11 12q89 75 175.5 154t176.5 155h88q-82 -74 -164.5 -148.5t-165.5 -148.5q71 -107 135.5 -208.5t134.5 -208.5h-86
z" />
    <glyph glyph-name="L" unicode="L" horiz-adv-x="561" 
d="M68 0l88 714h68l-80 -649h380l-8 -65h-448z" />
    <glyph glyph-name="M" unicode="M" horiz-adv-x="898" 
d="M160 746q15 -28 38.5 -68.5t50.5 -87.5t56 -96t55.5 -94.5t49 -83.5t36.5 -62q10 13 38 47t65.5 79t81 97.5t85 103t78 94t60.5 71.5l-92 -746h-72l62 509q2 9 4 19t3 17q-20 -24 -47.5 -57.5t-58 -71.5t-62.5 -77.5t-62 -76.5t-55 -69t-42 -53q-11 18 -31 51.5t-44 75
t-49 86t-47 83.5t-38.5 68.5t-22.5 40.5q-1 -7 -0.5 -17t-1.5 -19l-62 -509h-68z" />
    <glyph glyph-name="N" unicode="N" horiz-adv-x="812" 
d="M764 714l-92 -747q-24 35 -61 83.5t-80 103.5t-88.5 112.5t-87.5 112.5t-76.5 102.5t-56.5 82.5q-2 4 -7.5 11.5t-9.5 14.5v-32l-69 -558h-68l92 747q24 -37 60.5 -85t79 -102t87.5 -111t87 -110.5t78 -101t59 -82.5q2 -5 7 -12.5t9 -14.5l1 33l68 553h68z" />
    <glyph glyph-name="O" unicode="O" horiz-adv-x="826" 
d="M58 356q9 75 46 141.5t92.5 116.5t125.5 79t145 29q70 0 129 -26t102 -71t67.5 -105t24.5 -128q0 -82 -34 -154.5t-91.5 -127t-132 -86.5t-155.5 -32q-75 0 -138 28.5t-106.5 78t-63.5 116t-11 141.5zM126 356q-8 -62 8.5 -116.5t52 -95t86.5 -64t112 -23.5q66 0 127 26
t107.5 71t74.5 105t28 127q0 56 -20 105.5t-55 86t-83 57.5t-105 21q-62 0 -118.5 -23.5t-102 -64.5t-75.5 -95.5t-37 -116.5z" />
    <glyph glyph-name="P" unicode="P" horiz-adv-x="551" 
d="M179 351h106q53 0 88.5 18t56.5 44t30 55t9 51q0 25 -9 48.5t-27 42t-45.5 29.5t-64.5 11h-107zM68 0l88 714h173q41 0 79 -11t67 -34t46 -57.5t17 -81.5q0 -44 -15 -87.5t-46.5 -78t-80.5 -56.5t-118 -22h-107l-35 -286h-68z" />
    <glyph glyph-name="Q" unicode="Q" horiz-adv-x="831" 
d="M56 319q0 81 34 154.5t91 128.5t131.5 87.5t155.5 32.5q70 0 129 -26t102 -71t67.5 -105t24.5 -128q0 -53 -14.5 -101t-40.5 -90.5t-62.5 -78t-80.5 -62.5l183 5l-8 -65h-313q-20 -4 -38.5 -6t-38.5 -2q-70 0 -129 25.5t-102 69.5t-67 104t-24 128zM124 326
q0 -56 19.5 -105t54.5 -85.5t83 -57.5t105 -21q66 0 127 26t107.5 71t74.5 105t28 127q0 56 -20 105.5t-55 86t-83 57.5t-105 21q-66 0 -127 -26.5t-107.5 -71.5t-74 -105t-27.5 -127z" />
    <glyph glyph-name="R" unicode="R" horiz-adv-x="602" 
d="M68 0l88 714h173q41 0 79 -11t67 -34t46 -57.5t17 -81.5q0 -32 -8.5 -64.5t-25.5 -62t-44 -54.5t-64 -41q10 -23 31 -66t44 -90t44 -89t32 -63h-83q-9 18 -27.5 55.5t-39.5 80t-41.5 84t-34.5 68.5q-10 -2 -21 -2h-22h-107l-35 -286h-68zM179 351h106q53 0 88.5 18
t56.5 44t30 55t9 51q0 25 -9 48.5t-27 42t-45.5 29.5t-64.5 11h-107z" />
    <glyph glyph-name="S" unicode="S" horiz-adv-x="554" 
d="M527 677l-32 -55q-33 14 -74.5 24t-81.5 10q-38 0 -69 -10t-53 -27t-34 -39.5t-12 -47.5q0 -35 24.5 -56.5t61 -38.5t79 -32.5t79 -39t61 -58t24.5 -88.5q0 -51 -19 -93t-55 -71.5t-87.5 -46t-115.5 -16.5q-42 0 -76.5 7.5t-61 18t-45 21.5t-30.5 19l38 60
q33 -23 82.5 -41t99.5 -18q29 0 64 8.5t66 26.5t51.5 47t20.5 71t-24.5 68.5t-61.5 45.5t-79.5 34.5t-79.5 35.5t-61.5 49t-24.5 74q0 39 17 74.5t48.5 63.5t75.5 44.5t98 16.5q28 0 57 -4.5t54.5 -11t45.5 -13.5t30 -12z" />
    <glyph glyph-name="T" unicode="T" horiz-adv-x="535" 
d="M544 714l-8 -65h-190l-80 -649h-69l80 649h-188l8 65h447z" />
    <glyph glyph-name="U" unicode="U" horiz-adv-x="694" 
d="M312 -8q-54 0 -98.5 17.5t-74.5 49.5t-43.5 78.5t-6.5 105.5l58 471h68l-57 -468q-5 -43 4.5 -78t31 -59.5t54 -38t72.5 -13.5q39 0 75 13.5t64 38t47 59.5t24 78l57 468h68l-58 -471q-7 -59 -32.5 -105.5t-64 -78.5t-87 -49.5t-101.5 -17.5z" />
    <glyph glyph-name="V" unicode="V" horiz-adv-x="647" 
d="M137 714q10 -34 23 -80t27.5 -98t29.5 -107.5t29.5 -107.5t27.5 -98t23 -80l6 -32l14 32q18 34 42.5 80t51.5 98t55.5 107.5t56 107.5t51.5 98t43 80h69q-20 -37 -52 -96t-70 -130t-78.5 -147.5t-78.5 -147t-70 -130t-52 -96.5q-11 37 -28 96.5t-37.5 130t-42.5 147
t-42.5 147.5t-37.5 130t-28 96h68z" />
    <glyph glyph-name="W" unicode="W" horiz-adv-x="942" 
d="M978 712q-32 -62 -69.5 -134t-75.5 -146.5t-75.5 -146.5t-69 -134t-55.5 -110t-36 -73l-107 403q-2 4 -3.5 10t-1.5 11q-2 -2 -3 -6t-3 -7q-2 -4 -3 -8q-40 -78 -78 -152q-16 -32 -33.5 -65.5t-34.5 -66.5t-32.5 -64t-27.5 -56q-52 188 -99.5 373t-99.5 372h77
q13 -49 28 -105.5t30 -113.5t29 -111.5t25.5 -100t19 -78.5t9.5 -47l4 -30q1 3 6 14.5t7 14.5q1 3 8.5 18t18.5 37.5t25 50.5t28 57q33 68 75 152q-15 62 -26 113q-5 22 -10 43t-9 39t-7 30.5t-3 16.5h66q32 -121 59 -229q12 -46 24 -94t22.5 -91.5t19.5 -80.5t14 -61
q2 -8 2.5 -15t1.5 -15l12 30q6 14 22 47.5t38.5 79.5t50 100.5t56.5 111.5t58 113t54 104h72z" />
    <glyph glyph-name="X" unicode="X" horiz-adv-x="594" 
d="M264 366q-9 17 -23.5 44.5t-32 61t-36 69t-35.5 68.5t-31.5 60.5t-23.5 44.5h84q12 -24 31 -61t39.5 -77t39.5 -77.5t32 -61.5l9 -24l15 24q18 24 46 61.5t57 77.5t57 77t46 61h81l-266 -351q9 -18 24.5 -47t33.5 -63.5t37.5 -71.5t37.5 -71.5t33 -63t25 -46.5h-85
l-132 256q-5 10 -13.5 28.5t-14.5 29.5q-5 -7 -9 -14t-6 -9l-216 -291h-84q14 18 36.5 47t49 64t55 72t55 72t48.5 64t36 47z" />
    <glyph glyph-name="Y" unicode="Y" horiz-adv-x="635" 
d="M349 249l-31 -249h-69l31 249q-11 22 -27.5 58.5t-36.5 81t-41 93t-41 93t-36.5 81t-26.5 58.5h77q14 -30 34.5 -76t43.5 -97.5t46 -104.5t42 -97l8 -30l16 30q30 44 65.5 97t70.5 104.5t66 97.5t53 76h78z" />
    <glyph glyph-name="Z" unicode="Z" horiz-adv-x="634" 
d="M195 714h449l-538 -648h477l-8 -66h-596q30 36 73.5 89.5t94 115.5t104 128t103.5 127.5t93.5 113.5t73.5 86h-352q-32 0 -52 13t-16 42l4 35h63l-2 -13q-2 -14 5 -18.5t24 -4.5z" />
    <glyph glyph-name="bracketleft" unicode="[" horiz-adv-x="306" 
d="M41 -150l111 902h183l-7 -57h-124l-97 -788h124l-7 -57h-183z" />
    <glyph glyph-name="backslash" unicode="\" horiz-adv-x="422" 
d="M160 742l188 -761h-65l-188 761h65z" />
    <glyph glyph-name="bracketright" unicode="]" horiz-adv-x="306" 
d="M271 752l-111 -902h-183l7 57h124l97 788h-124l7 57h183z" />
    <glyph glyph-name="asciicircum" unicode="^" horiz-adv-x="384" 
d="M240 665q25 -45 49 -91t50 -91h-44q-6 12 -14.5 26t-17 29t-17 29.5t-14.5 25.5q-9 -11 -21 -25.5t-25 -29.5t-25 -29t-21 -26h-43z" />
    <glyph glyph-name="underscore" unicode="_" horiz-adv-x="532" 
d="M435 0h-403l7 57h403z" />
    <glyph glyph-name="grave" unicode="`" horiz-adv-x="202" 
d="M98 617q18 -34 36.5 -67.5t38.5 -66.5h-44l-91 134h60z" />
    <glyph glyph-name="a" unicode="a" horiz-adv-x="527" 
d="M27 177q0 47 19.5 89.5t52.5 74t75.5 50t88.5 18.5q30 0 55 -8t44 -21.5t31 -30t17 -32.5l14 83h51l-49 -400h-55l5 41q2 11 3 21t3 19q-9 -17 -25 -32.5t-38 -28.5t-49 -20.5t-58 -7.5q-42 0 -76 14.5t-58 39.5t-37.5 59t-13.5 72zM82 185q0 -30 10 -55t28.5 -44
t44 -29.5t56.5 -10.5q36 0 68 13.5t56 36.5t38 54.5t14 66.5q0 29 -10 54.5t-28 44t-43.5 29t-56.5 10.5q-36 0 -68 -13t-56 -36t-38.5 -54t-14.5 -67z" />
    <glyph glyph-name="b" unicode="b" horiz-adv-x="528" 
d="M481 225q0 -49 -18.5 -91.5t-50.5 -74t-74.5 -49.5t-91.5 -18q-56 0 -96 26t-53 64q-2 -10 -2 -19.5t-2 -20.5l-5 -42h-55l94 766h55l-55 -450q23 37 68.5 65t103.5 28q41 0 74.5 -13.5t57.5 -37.5t37 -58t13 -75zM422 218q0 29 -9.5 54t-27 43.5t-42.5 29t-55 10.5
q-36 0 -68 -13t-56 -36t-38.5 -54t-14.5 -67q0 -30 10 -55t28.5 -44t44 -29.5t56.5 -10.5q36 0 67.5 13.5t54.5 37t36.5 54.5t13.5 67z" />
    <glyph glyph-name="c" unicode="c" horiz-adv-x="412" 
d="M323 79l29 -41q-30 -22 -65 -34t-73 -12q-41 0 -75 14.5t-59 40t-39 59.5t-14 73q0 47 19.5 89t52.5 73.5t76 49.5t90 18q38 0 70.5 -12t57.5 -34q-10 -11 -20 -20.5t-20 -20.5q-38 33 -94 33q-36 0 -68.5 -13.5t-56.5 -36.5t-38 -54t-14 -67q0 -29 10 -54.5t28.5 -44
t44 -29t56.5 -10.5q29 0 54.5 8.5t47.5 24.5z" />
    <glyph glyph-name="d" unicode="d" horiz-adv-x="528" 
d="M28 177q0 49 19 91.5t51 73.5t74 49t89 18q31 0 56 -8t44 -21t31.5 -30t18.5 -34l55 450h55l-94 -766h-55l5 41q2 11 4 21.5t3 20.5q-25 -37 -70 -64t-105 -27q-42 0 -75.5 14.5t-57 39.5t-36 58.5t-12.5 72.5zM83 184q0 -29 10 -54.5t28.5 -44t44 -29t56.5 -10.5
q36 0 68 13.5t56 36.5t38 54t14 67q0 29 -10 54.5t-28.5 44t-44 29t-55.5 10.5q-36 0 -68.5 -13t-56.5 -36.5t-38 -54.5t-14 -67z" />
    <glyph glyph-name="e" unicode="e" horiz-adv-x="454" 
d="M370 48q-32 -26 -73 -41t-83 -15q-41 0 -75 14.5t-59 40t-39 59.5t-14 73q0 47 19.5 89t52.5 73.5t75.5 50t88.5 18.5q66 0 110 -39.5t59 -102.5q-35 -13 -78.5 -29.5t-89.5 -34t-91 -35t-84 -32.5q13 -41 47.5 -66t82.5 -25q32 0 62 11t53 30zM365 282
q-13 34 -41.5 53.5t-66.5 19.5q-35 0 -66.5 -13.5t-55.5 -37t-38 -53.5t-14 -63v-14q33 13 69.5 27t73.5 28.5t73 28t66 24.5z" />
    <glyph glyph-name="f" unicode="f" horiz-adv-x="294" 
d="M35 345l7 54h69l14 118q15 122 81 183.5t164 65.5l-7 -53q-74 -2 -123 -53.5t-60 -142.5l-14 -118h131l-7 -54h-131l-42 -345h-55l42 345h-69z" />
    <glyph glyph-name="g" unicode="g" horiz-adv-x="528" 
d="M28 177q0 49 19 91t51 73.5t74 49.5t88 18q33 0 59 -9t45 -22.5t31 -29.5t16 -31q2 20 6.5 41t7.5 42h51l-48 -393q-5 -43 -22.5 -79.5t-47 -63t-71.5 -41.5t-96 -15q-57 0 -96.5 21t-78.5 62l40 38q35 -38 68.5 -53t71.5 -15q84 0 125 39.5t50 103.5q2 8 2.5 14t3.5 23
q0 3 1.5 9.5t2.5 14t2.5 14t1.5 8.5q-23 -38 -68.5 -66.5t-106.5 -28.5q-41 0 -74.5 14t-57.5 39t-37 59t-13 73zM83 184q0 -29 10 -54.5t28.5 -44t44 -29t56.5 -10.5q36 0 68 13.5t56 36.5t38 54t14 67q0 29 -10 54.5t-28.5 44t-44 29t-55.5 10.5q-36 0 -68.5 -13
t-56.5 -36.5t-38 -54.5t-14 -67z" />
    <glyph glyph-name="h" unicode="h" 
d="M127 766h55l-57 -463q26 46 71 75.5t105 30.5q60 0 91 -33t26 -87l-35 -289h-55l33 270q3 34 -16.5 58t-63.5 26q-32 0 -60.5 -10.5t-51 -29.5t-37 -45t-18.5 -57l-26 -212h-55z" />
    <glyph glyph-name="i" unicode="i" horiz-adv-x="189" 
d="M88 541q0 19 14 31.5t31 12.5q14 0 24 -10t10 -26q0 -20 -13.5 -32t-30.5 -12q-14 0 -24.5 9.5t-10.5 26.5zM88 0h-55l49 400h55z" />
    <glyph glyph-name="j" unicode="j" horiz-adv-x="189" 
d="M-9 -192q-17 19 -34 40q30 26 50 62.5t26 86.5l49 403h55l-49 -403q-8 -63 -33.5 -110.5t-63.5 -78.5zM89 541q0 19 14.5 31.5t30.5 12.5q15 0 25.5 -10t10.5 -26q0 -20 -14 -32t-31 -12q-14 0 -25 9.5t-11 26.5z" />
    <glyph glyph-name="k" unicode="k" horiz-adv-x="409" 
d="M354 410l29 -34q-43 -35 -81 -68.5t-81 -68.5l145 -239h-64l-124 202l-73 -60l-17 -142h-55l94 766h55l-68 -558q62 52 120 100.5t120 101.5z" />
    <glyph glyph-name="l" unicode="l" horiz-adv-x="193" 
d="M90 0h-55l94 766h55z" />
    <glyph glyph-name="m" unicode="m" horiz-adv-x="767" 
d="M82 400h47q0 -9 -1 -23.5t-2.5 -30t-2.5 -29t-2 -20.5q29 50 73 80.5t104 31.5q56 0 86.5 -29.5t30.5 -77.5q29 48 72 77.5t102 29.5q60 0 90.5 -33t25.5 -87l-35 -289h-55l33 270q3 34 -16.5 58t-63.5 26q-31 0 -58.5 -10.5t-49.5 -29t-36.5 -44t-18.5 -55.5l-26 -215
h-55l33 270q3 34 -16.5 58t-62.5 26q-32 0 -60 -10.5t-50 -29.5t-36 -45t-18 -57l-26 -212h-55z" />
    <glyph glyph-name="n" unicode="n" 
d="M82 400h47l-8 -103q29 50 75.5 81t106.5 31q59 0 89.5 -33t25.5 -87l-35 -289h-55l33 270q3 34 -16.5 58t-63.5 26q-32 0 -60.5 -10.5t-51 -29.5t-37 -45t-18.5 -57l-26 -212h-55z" />
    <glyph glyph-name="o" unicode="o" horiz-adv-x="495" 
d="M28 200q5 43 26 81.5t53 67t72.5 45t84.5 16.5q41 0 75 -14.5t58.5 -40t38 -60t13.5 -73.5q0 -47 -19 -89t-51.5 -73.5t-75.5 -49.5t-91 -18q-44 0 -80 15.5t-61 43.5t-37 66t-6 83zM83 200q-4 -32 4.5 -60t26.5 -49t45 -33t59 -12q35 0 66.5 13.5t55.5 36.5t38.5 54
t14.5 66q0 29 -10.5 54.5t-28.5 44t-43 29.5t-55 11q-32 0 -62 -12t-53 -33t-38.5 -49.5t-19.5 -60.5z" />
    <glyph glyph-name="p" unicode="p" horiz-adv-x="527" 
d="M421 218q0 59 -36 98t-98 39q-36 0 -68 -13t-56 -36t-38 -54t-14 -67q0 -30 10 -55t28.5 -44t44 -29.5t55.5 -10.5q36 0 67.5 13.5t55 37t36.5 54.5t13 67zM481 225q0 -49 -18.5 -91.5t-50.5 -74t-74.5 -49.5t-91.5 -18q-56 0 -96 26t-53 64q-2 -10 -2 -19.5t-2 -20.5
l-29 -234h-55l73 592h53q0 -3 -1 -13t-2.5 -22.5t-3 -25.5t-2.5 -23q23 37 69 65t104 28q41 0 74.5 -13.5t57.5 -37.5t37 -58t13 -75z" />
    <glyph glyph-name="q" unicode="q" horiz-adv-x="528" 
d="M83 184q0 -29 10 -54.5t28.5 -44t44 -29t56.5 -10.5q36 0 68 13.5t56 36.5t38 54t14 67q0 29 -10 54.5t-28.5 44t-44 29t-55.5 10.5q-36 0 -68.5 -13t-56.5 -36.5t-38 -54.5t-14 -67zM28 177q0 49 19 91.5t51 73.5t74 49t89 18q31 0 56 -8t44 -21t31.5 -30t18.5 -34
q1 10 3 23t4 25.5t3.5 22.5t1.5 13h53l-73 -592h-55l29 233q2 11 4 21.5t3 20.5q-25 -37 -70 -64t-105 -27q-42 0 -75.5 14.5t-57 39.5t-36 58.5t-12.5 72.5z" />
    <glyph glyph-name="r" unicode="r" horiz-adv-x="293" 
d="M282 340q-30 0 -58.5 -9.5t-51.5 -26.5t-38.5 -41.5t-19.5 -54.5l-26 -208h-55l49 400h47l-8 -103q15 26 37 46.5t46.5 35t49.5 22.5t47 8z" />
    <glyph glyph-name="s" unicode="s" horiz-adv-x="331" 
d="M289 362l-34 -39q-8 11 -30 20.5t-46 9.5q-11 0 -23.5 -3t-23.5 -10.5t-18 -19t-7 -28.5q0 -20 12.5 -32.5t31 -21.5t40 -18t40 -21t31 -30t12.5 -46q0 -27 -10 -50.5t-29 -41.5t-46 -28.5t-61 -10.5t-68 12t-53 38q5 4 11.5 11t12.5 13t10 10.5t5 4.5q3 -5 11.5 -11
t21 -11.5t27 -9.5t28.5 -4q13 0 28 4t27.5 12.5t21 22t8.5 31.5q0 20 -12.5 32.5t-31.5 21.5t-40.5 17.5t-40.5 20.5t-31.5 30t-12.5 47q0 33 13 56.5t32.5 38t43 21.5t45.5 7q26 0 55.5 -11t49.5 -34z" />
    <glyph glyph-name="t" unicode="t" horiz-adv-x="284" 
d="M134 575h55l-22 -179h119l-6 -50h-119l-42 -346h-55l42 346h-80l6 50h80z" />
    <glyph glyph-name="u" unicode="u" horiz-adv-x="479" 
d="M378 -5h-46l8 108q-27 -50 -74 -81t-108 -31q-59 0 -89.5 33t-25.5 87l35 289h55l-33 -270q-2 -34 17 -58t63 -26q31 0 59.5 10.5t51 29t37.5 44.5t19 57l26 213h55z" />
    <glyph glyph-name="v" unicode="v" horiz-adv-x="425" 
d="M176 -24q-43 107 -76 212t-74 212h59q23 -60 38 -105.5t26.5 -82t20 -68t19.5 -63.5q18 32 34 63.5t36 68t46.5 82t64.5 105.5h59q-66 -107 -126.5 -212t-126.5 -212z" />
    <glyph glyph-name="w" unicode="w" horiz-adv-x="644" 
d="M298 314l-28 86h49l100 -319l173 319h55l-241 -424l-90 284l-155 -284l-132 424h55l90 -319q17 33 37 71q17 32 39.5 74.5t47.5 87.5z" />
    <glyph glyph-name="x" unicode="x" horiz-adv-x="399" 
d="M156 207q-28 48 -58 96.5t-59 96.5h68q23 -42 45 -76.5t45 -75.5q33 41 63.5 75.5t63.5 75.5h62q-21 -26 -41 -50t-39.5 -47t-39.5 -47t-42 -51q29 -48 62.5 -102t61.5 -102h-69q-25 41 -49.5 78.5t-49.5 78.5q-33 -41 -65 -78t-66 -79h-62q42 52 84.5 103.5t84.5 103.5z
" />
    <glyph glyph-name="y" unicode="y" horiz-adv-x="444" 
d="M100 -192h-58q16 27 29.5 50.5t27 47.5t28 50.5t33.5 59.5q-35 92 -66.5 191.5t-66.5 192.5h59q23 -60 39 -108t28.5 -87.5t22 -73.5t20.5 -66q18 32 35.5 66t39.5 73.5t50 87.5t66 108h59z" />
    <glyph glyph-name="z" unicode="z" horiz-adv-x="402" 
d="M336 0h-345l292 352h-169q-33 0 -51 14.5t-14 44.5l3 27h51l-2 -13q-2 -14 5.5 -19.5t24.5 -5.5h258l-287 -346h241z" />
    <glyph glyph-name="braceleft" unicode="{" horiz-adv-x="305" 
d="M63 269l8 61q25 1 42 15t28 34t17 43.5t9 43.5l21 167q6 46 17.5 70.5t27.5 35.5t35.5 12t40.5 1h54l-7 -57h-49q-15 0 -26 -5t-18.5 -17t-12.5 -33t-9 -52l-17 -138q-5 -37 -14 -62t-20.5 -42.5t-24 -27.5t-24.5 -17q10 -7 20.5 -17.5t18 -28t10 -42.5t-1.5 -61
l-17 -138q-8 -63 0.5 -85t39.5 -22h49l-7 -57h-54q-22 0 -41.5 1t-32.5 13t-18 39t1 79l18 151q3 21 2.5 44t-6.5 43.5t-20 34t-39 14.5z" />
    <glyph glyph-name="bar" unicode="|" horiz-adv-x="245" 
d="M31 -234l115 940h58l-115 -940h-58z" />
    <glyph glyph-name="braceright" unicode="}" horiz-adv-x="303" 
d="M278 330l-8 -61q-27 -1 -44.5 -17t-28.5 -39t-16.5 -48.5t-7.5 -44.5l-18 -151q-6 -47 -17.5 -71t-28 -35t-36.5 -12t-41 -1h-53l7 57h49q15 0 26 5t18.5 17t12 32.5t8.5 52.5l19 152q4 32 13.5 55t21.5 38.5t24.5 25.5t22.5 16q-10 7 -20 17t-17.5 27.5t-11 42.5t1.5 62
l17 138q4 31 4 52t-4.5 33t-14 17t-24.5 5h-49l7 57h53q21 0 40.5 -1t33 -11.5t19.5 -35t0 -71.5l-19 -153q-2 -20 -3 -45t4 -48t19 -39.5t41 -17.5z" />
    <glyph glyph-name="asciitilde" unicode="~" horiz-adv-x="468" 
d="M252 491q-14 17 -25 22.5t-25 5.5q-8 0 -17.5 -2t-19 -7.5t-17 -15.5t-11.5 -25l-33 2q4 20 14 35t24 25.5t29.5 15.5t30.5 5q23 0 40 -9t31 -26t24.5 -22.5t24.5 -5.5q7 0 17 2t19.5 7.5t17 15.5t11.5 25l33 -2q-3 -20 -13.5 -35t-24.5 -25.5t-29.5 -15.5t-30.5 -5
q-23 0 -39.5 9.5t-30.5 25.5z" />
    <glyph glyph-name="exclamdown" unicode="&#xa1;" horiz-adv-x="250" 
d="M108 377h59l-72 -589h-59zM157 531q15 0 26 -12t9 -29q-2 -19 -16 -30t-29 -11q-16 0 -26.5 11t-8.5 30q2 17 15.5 29t29.5 12z" />
    <glyph glyph-name="cent" unicode="&#xa2;" horiz-adv-x="427" 
d="M324 79l29 -41q-29 -21 -63 -33t-70 -13l-7 -60h-42l7 63q-33 6 -60.5 22.5t-47.5 41t-31 55t-11 65.5q0 42 16 80.5t43.5 68.5t64 50.5t77.5 27.5l7 59h42l-7 -56q37 -1 68 -13t55 -33q-10 -11 -20 -20.5t-20 -20.5q-36 31 -89 33l-38 -309q27 1 51.5 9.5t45.5 23.5z
M83 184q0 -50 27.5 -86.5t74.5 -47.5l37 301q-30 -7 -55 -22.5t-44 -37t-29.5 -49t-10.5 -58.5z" />
    <glyph glyph-name="sterling" unicode="&#xa3;" horiz-adv-x="590" 
d="M149 57h201q31 0 52.5 2.5t34.5 8.5t19 16t8 26l6 49h59l-9 -73q-2 -18 -7.5 -33.5t-19 -27t-38 -18.5t-65.5 -7h-382l7 57h44q17 0 28 5t18.5 18t12 36.5t9.5 59.5l14 113h-67l7 57h66l22 178q4 35 21.5 63t45 47.5t64 30t78.5 10.5q70 0 107.5 -26t54.5 -71l-47 -25
q-7 12 -15 24t-21 21t-33 14.5t-51 5.5q-71 0 -105.5 -29.5t-40.5 -77.5l-20 -165h121l-7 -57h-121l-18 -144q-4 -29 -10 -51.5t-23 -36.5z" />
    <glyph glyph-name="currency" unicode="&#xa4;" horiz-adv-x="456" 
d="M94 346q0 29 10.5 53.5t28.5 44.5l-28 33l33 29l28 -32q20 14 42.5 22t47.5 8t45.5 -8.5t36.5 -22.5l36 33l26 -30l-35 -31q9 -14 13.5 -32.5t4.5 -37.5q0 -29 -10.5 -53.5t-30.5 -46.5l29 -35l-32 -29l-31 34q-19 -13 -41.5 -20t-45.5 -7t-43.5 7t-36.5 19l-39 -34
l-27 29l40 35q-21 32 -21 72zM137 351q0 -39 25.5 -66t63.5 -27q23 0 44 9t36.5 24.5t25 36t9.5 43.5q0 38 -25 65t-65 27q-22 0 -42.5 -9t-36.5 -24t-25.5 -35.5t-9.5 -43.5z" />
    <glyph glyph-name="yen" unicode="&#xa5;" horiz-adv-x="663" 
d="M361 249l-13 -108h132l-5 -41h-132l-13 -100h-69l13 100h-132l5 41h132l13 108l-7 14h-123l5 41h99q-21 45 -47 104l-52 118t-48.5 110t-35.5 78h77q14 -30 34.5 -76t43.5 -97.5t46 -104.5t42 -97l8 -30l16 30q30 44 65.5 97t70.5 104.5t66 97.5t53 76h78l-284 -410h101
l-5 -41h-124z" />
    <glyph glyph-name="brokenbar" unicode="&#xa6;" horiz-adv-x="248" 
d="M90 -235h-58l43 353h58zM162 353h-58l44 353h58z" />
    <glyph glyph-name="section" unicode="&#xa7;" horiz-adv-x="375" 
d="M141 152q-17 35 -28 58.5t-18 39t-11.5 25t-7.5 17.5q-10 22 -10.5 47.5t7 50t22.5 46t38 36.5q41 24 89 16q-11 20 -20 41t-19 43q-14 30 -17.5 52t0 38t13 27.5t23.5 20.5q17 14 38.5 24.5t41.5 21.5l23 -49q-11 -6 -23.5 -12t-23.5 -13q-26 -14 -29 -35.5t18 -66.5h1
l71 -151q10 -23 11 -47.5t-7 -48.5t-24 -45t-39 -36q-42 -26 -89 -18l40 -85q14 -30 18 -52t0 -38.5t-14 -28t-23 -20.5q-16 -14 -37.5 -24.5t-41.5 -21.5q-5 12 -11 24.5t-11 25.5l46 25q14 7 21 16t7.5 22t-5.5 31t-19 44zM124 345q1 -27 21 -43.5t47 -15.5q17 1 32 8
t26 19t17.5 27t6.5 31q0 32 -21 51t-51 19q-20 -2 -35.5 -10.5t-26 -22t-15 -30t-1.5 -33.5z" />
    <glyph glyph-name="dieresis" unicode="&#xa8;" horiz-adv-x="373" 
d="M304 513q0 19 14.5 32t31.5 13q14 0 24.5 -10.5t10.5 -26.5q0 -20 -15 -32.5t-31 -12.5q-14 0 -24.5 10t-10.5 27zM125 513q0 19 14.5 32t31.5 13q14 0 24.5 -10.5t10.5 -26.5q0 -20 -15 -32.5t-31 -12.5q-14 0 -24.5 10t-10.5 27z" />
    <glyph glyph-name="copyright" unicode="&#xa9;" horiz-adv-x="646" 
d="M305 138q53 0 101.5 20t85 54.5t58 82t21.5 102.5q0 46 -15.5 84.5t-43 66.5t-66 43.5t-83.5 15.5q-52 0 -100 -20t-84.5 -55t-58 -83t-21.5 -103q0 -45 15.5 -83t43 -65.5t65 -43.5t82.5 -16zM304 115q-50 0 -92 17t-72.5 48t-47.5 72.5t-17 91.5q0 61 23.5 113.5
t64 90.5t93 60t111.5 22q49 0 91 -17t72.5 -47.5t47.5 -73t17 -92.5q0 -60 -23.5 -112.5t-63.5 -90.5t-93 -60t-111 -22zM417 235q-15 -9 -40 -17.5t-57 -8.5q-34 0 -61 11.5t-45.5 31.5t-28 46t-9.5 56q0 39 15.5 73t41.5 59t60 39.5t72 14.5q25 0 47 -6.5t35 -16.5
q-5 -7 -7 -10.5t-10 -13.5q-14 9 -32.5 13.5t-35.5 4.5q-31 0 -59 -12t-49 -33t-33.5 -48t-12.5 -57q0 -24 8 -46t23 -38.5t37 -26t49 -9.5q26 0 49 7.5t33 14.5z" />
    <glyph glyph-name="ordfeminine" unicode="&#xaa;" horiz-adv-x="428" 
d="M68 434q0 34 14 64t38 53t55 36.5t64 13.5q44 0 71 -21.5t35 -44.5l10 59h37l-35 -288h-41l4 30q1 8 2.5 15t2.5 13q-14 -23 -46 -43.5t-77 -20.5q-30 0 -54.5 10.5t-42.5 28.5t-27.5 42.5t-9.5 52.5zM108 439q0 -43 28 -71.5t72 -28.5q26 0 49 9.5t40.5 26.5t27.5 39.5
t10 48.5q0 42 -27.5 70.5t-72.5 28.5q-26 0 -49 -9.5t-40 -26t-27.5 -39t-10.5 -48.5z" />
    <glyph glyph-name="guillemotleft" unicode="&#xab;" horiz-adv-x="454" 
d="M364 62l-151 179q14 12 41 37t56 52t56 52t42 37l-8 -66q-12 -11 -27.5 -25.5t-31 -30.5t-30.5 -30.5t-27 -25.5q9 -11 20.5 -25.5t23.5 -30.5t23.5 -31t20.5 -26zM191 62l-150 179q14 12 41 37t56 52t56 52t41 37l-8 -67q-12 -11 -27 -25.5t-30.5 -30t-31 -30
t-27.5 -25.5q9 -11 20.5 -25.5t23.5 -30.5t23.5 -31t20.5 -26z" />
    <glyph glyph-name="logicalnot" unicode="&#xac;" horiz-adv-x="511" 
d="M367 149l7 55h-304l5 43h363l-12 -98h-59z" />
    <glyph glyph-name="registered" unicode="&#xae;" horiz-adv-x="646" 
d="M304 115q-50 0 -92 17t-72.5 48t-47.5 72.5t-17 91.5q0 61 23.5 113.5t64 90.5t93 60t111.5 22q49 0 91 -17t72.5 -47.5t47.5 -73t17 -92.5q0 -60 -23.5 -112.5t-63.5 -90.5t-93 -60t-111 -22zM305 138q53 0 101.5 20t85 54.5t58 82t21.5 102.5q0 46 -15.5 84.5t-43 66.5
t-66 43.5t-83.5 15.5q-52 0 -100 -20t-84.5 -55t-58 -83t-21.5 -103q0 -45 15.5 -83t43 -65.5t65 -43.5t82.5 -16zM228 210l42 338h82q39 0 68.5 -21.5t29.5 -65.5q0 -32 -16 -61.5t-51 -44.5q5 -11 15 -31t20.5 -42t20.5 -42l15 -30h-39q-4 8 -12.5 26t-18.5 38t-19.5 40
t-15.5 32q-5 -1 -10.5 -1h-10.5h-51l-17 -135h-32zM281 376h50q25 0 42 8.5t27 21t14 26t4 24.5q0 23 -17 42t-52 19h-51z" />
    <glyph glyph-name="macron" unicode="&#xaf;" horiz-adv-x="403" 
d="M146 487l5 39h232l-5 -39h-232z" />
    <glyph glyph-name="degree" unicode="&#xb0;" horiz-adv-x="293" 
d="M175 510q24 0 42.5 17.5t18.5 42.5q0 20 -13.5 34t-34.5 14q-24 0 -42.5 -17.5t-18.5 -42.5q0 -20 13.5 -34t34.5 -14zM87 554q0 21 8.5 40t23 32.5t34 21.5t40.5 8q35 0 58 -23.5t23 -58.5q0 -21 -8.5 -40t-23 -32.5t-33 -21.5t-39.5 -8q-37 0 -60 23.5t-23 58.5z" />
    <glyph glyph-name="plusminus" unicode="&#xb1;" horiz-adv-x="521" 
d="M225 213l19 153h-152l7 57h152l19 152h59l-19 -152h152l-7 -57h-152l-19 -153h-59zM423 106h-363l7 57h363z" />
    <glyph glyph-name="twosuperior" unicode="&#xb2;" horiz-adv-x="339" 
d="M152 403h143l-3 -28h-213q37 32 71.5 62.5t61 59.5t42.5 56.5t16 53.5q0 18 -5.5 31t-14.5 21t-19 11.5t-19 3.5q-23 0 -38.5 -8.5t-24.5 -20.5t-13 -26t-4 -25q0 -27 14 -44l-20 -17q-11 10 -17 27.5t-6 34.5q0 21 7.5 40.5t22 34t35.5 23.5t47 9q40 0 63 -25t23 -63
q0 -29 -13 -55.5t-34.5 -53t-48 -52t-53.5 -50.5z" />
    <glyph glyph-name="threesuperior" unicode="&#xb3;" horiz-adv-x="290" 
d="M130 548q24 32 51 63t51 63h-118l3 29h166l-98 -121q33 -6 54.5 -30.5t21.5 -59.5q0 -24 -10 -45t-26.5 -37t-38.5 -25t-45 -9t-41.5 9.5t-31.5 25.5l24 20q17 -27 52 -27q17 0 33 7t28 18.5t19.5 27t7.5 32.5q0 29 -20 49t-49 20q-16 0 -33 -10z" />
    <glyph glyph-name="acute" unicode="&#xb4;" horiz-adv-x="256" 
d="M160 483l107 134h59q-30 -34 -61 -67.5t-62 -66.5h-43z" />
    <glyph glyph-name="mu" unicode="&#xb5;" horiz-adv-x="533" 
d="M403 -5h-46l7 108q-27 -50 -73.5 -81t-107.5 -31q-45 0 -73 19l-26 -211h-54l37 298q-2 6 0 14l35 289h56l-33 -270q-3 -34 16.5 -58t62.5 -26q31 0 60 10.5t51.5 29t37.5 44.5t19 57l26 213h55z" />
    <glyph glyph-name="paragraph" unicode="&#xb6;" horiz-adv-x="542" 
d="M227 0h-58l52 426q-32 0 -58.5 11.5t-46 31.5t-30.5 47t-11 58q0 37 15 70.5t41 58t59.5 39t71.5 14.5h222l-93 -756h-58l86 699h-106z" />
    <glyph glyph-name="periodcentered" unicode="&#xb7;" horiz-adv-x="207" 
d="M64 280q0 19 14 32t31 13q14 0 24.5 -10.5t10.5 -26.5q0 -20 -14.5 -32.5t-30.5 -12.5q-14 0 -24.5 10t-10.5 27z" />
    <glyph glyph-name="cedilla" unicode="&#xb8;" horiz-adv-x="456" 
d="M189 0h38l-1 -7q-2 -14 1 -22.5t9 -14t12.5 -9.5t12.5 -8q17 -14 24 -31.5t7 -35.5q0 -24 -8 -45t-22.5 -36t-35 -24t-45.5 -9q-31 0 -55.5 17t-32.5 52q9 5 18 9t19 8q3 -18 16.5 -29.5t35.5 -11.5q29 0 47.5 20t18.5 49q0 21 -10.5 32.5t-22.5 21t-21.5 19.5t-7.5 27z
" />
    <glyph glyph-name="onesuperior" unicode="&#xb9;" horiz-adv-x="185" 
d="M95 676l3 26h66l-37 -301h-27l34 275h-39z" />
    <glyph glyph-name="ordmasculine" unicode="&#xba;" horiz-adv-x="399" 
d="M69 450q4 31 19.5 59t38.5 48.5t52 32.5t61 12q29 0 53.5 -10.5t42 -29t27.5 -43.5t10 -53q0 -34 -14 -64.5t-37 -53t-54 -35.5t-65 -13q-32 0 -58 11.5t-44 31.5t-27 47.5t-5 59.5zM109 450q-5 -47 23 -79t75 -32q25 0 47.5 9.5t40 26t28 39t10.5 47.5q0 43 -28 72
t-71 29q-23 0 -44.5 -9t-38.5 -24t-28 -35.5t-14 -43.5z" />
    <glyph glyph-name="guillemotright" unicode="&#xbb;" horiz-adv-x="454" 
d="M46 128q12 11 27.5 26t31 31t30.5 30.5t27 25.5q-9 11 -20.5 25.5t-23.5 30.5t-23.5 30.5t-20.5 25.5l8 66q12 -12 32.5 -37t43 -52t43.5 -52t32 -37l-195 -179zM219 128q12 11 27 26t30.5 31t31 30.5t27.5 25.5q-9 11 -20.5 25.5t-23.5 30t-23.5 30t-20.5 25.5l8 67
q11 -12 31.5 -37t43 -52t43.5 -52t32 -37l-194 -179z" />
    <glyph glyph-name="onequarter" unicode="&#xbc;" horiz-adv-x="794" 
d="M384 130q80 90 163.5 182t164.5 182l-40 -321h72l-5 -43h-72l-16 -130h-44l16 130h-239zM152 -19l373 760h59q-94 -191 -186.5 -379.5t-186.5 -380.5h-59zM87 658l5 41h103l-57 -465h-43l52 424h-60zM653 375l-180 -202h155z" />
    <glyph glyph-name="onehalf" unicode="&#xbd;" horiz-adv-x="834" 
d="M564 40h204l-5 -40h-305q53 46 102.5 90t87.5 85.5t61 81t23 75.5q0 27 -8 45.5t-20.5 30t-27.5 16.5t-28 5q-33 0 -55 -12.5t-35 -30t-18.5 -37t-5.5 -34.5q0 -38 21 -64l-28 -24q-17 14 -25 39t-8 49q0 30 11 58t31 49t49.5 34t67.5 13q28 0 51 -10t38.5 -27t24 -40
t8.5 -50q0 -41 -18.5 -79.5t-48.5 -75.5t-68 -73.5t-76 -73.5zM162 -19l373 760h59q-94 -191 -186.5 -379.5t-186.5 -380.5h-59zM87 658l5 41h103l-57 -465h-43l52 424h-60z" />
    <glyph glyph-name="threequarters" unicode="&#xbe;" horiz-adv-x="985" 
d="M574 130q79 90 163.5 182t163.5 182l-39 -321h73l-5 -43h-73l-16 -130h-44l16 130h-239zM318 -19q95 192 187.5 380.5t186.5 380.5h59q-94 -192 -186.5 -380.5t-187.5 -380.5h-59zM137 469q38 51 79.5 100t80.5 99h-185l5 44h259q-38 -48 -76.5 -94.5t-76.5 -94.5
q52 -10 85.5 -48t33.5 -94q0 -37 -15.5 -70t-42 -57.5t-60.5 -39t-70 -14.5t-65 14.5t-49 39.5l37 32q14 -20 34.5 -31t47.5 -11t51.5 10.5t43.5 28.5t30.5 42t11.5 51q0 47 -31 78t-77 31q-28 0 -51 -16zM843 375l-180 -202h155z" />
    <glyph glyph-name="questiondown" unicode="&#xbf;" horiz-adv-x="477" 
d="M353 -34l48 -18q-11 -24 -29 -50t-44.5 -47.5t-61 -35.5t-79.5 -14q-38 0 -70.5 14t-55.5 38t-36 56t-13 69q0 63 32.5 108.5t89.5 83.5q18 12 35.5 22t32.5 23t25.5 32t14.5 48l10 79h59l-12 -98q-4 -32 -17 -52t-32.5 -35t-43.5 -29t-50 -33q-44 -31 -64 -67t-20 -78
q0 -54 33.5 -89t88.5 -35q58 0 97 28.5t62 79.5zM301 530q14 0 24.5 -10t10.5 -27q0 -19 -14.5 -32t-30.5 -13q-14 0 -24.5 10.5t-10.5 26.5q0 20 15 32.5t30 12.5z" />
    <glyph glyph-name="Agrave" unicode="&#xc0;" horiz-adv-x="645" 
d="M597 0q-11 36 -28.5 95.5t-37.5 130.5t-42.5 147.5t-42.5 147.5t-37.5 130t-28.5 96q-20 -37 -52 -96t-69.5 -130t-78.5 -147.5t-78.5 -147.5t-69.5 -130.5t-52 -95.5h68q25 46 60.5 113t73.5 142h274q20 -75 39 -142t33 -113h69zM348 572q2 4 6.5 13.5t7.5 17.5
q2 -8 3.5 -17.5t2.5 -13.5q14 -47 33 -115t40 -143h-228q38 75 73.5 143t61.5 115zM339 894q18 -34 36.5 -67.5t37.5 -66.5h-44l-90 134h60z" />
    <glyph glyph-name="Aacute" unicode="&#xc1;" horiz-adv-x="645" 
d="M597 0q-11 36 -28.5 95.5t-37.5 130.5t-42.5 147.5t-42.5 147.5t-37.5 130t-28.5 96q-20 -37 -52 -96t-69.5 -130t-78.5 -147.5t-78.5 -147.5t-69.5 -130.5t-52 -95.5h68q25 46 60.5 113t73.5 142h274q20 -75 39 -142t33 -113h69zM348 572q2 4 6.5 13.5t7.5 17.5
q2 -8 3.5 -17.5t2.5 -13.5q14 -47 33 -115t40 -143h-228q38 75 73.5 143t61.5 115zM351 760l108 134h59q-31 -34 -61.5 -67.5t-62.5 -66.5h-43z" />
    <glyph glyph-name="Acircumflex" unicode="&#xc2;" horiz-adv-x="645" 
d="M597 0q-11 36 -28.5 95.5t-37.5 130.5t-42.5 147.5t-42.5 147.5t-37.5 130t-28.5 96q-20 -37 -52 -96t-69.5 -130t-78.5 -147.5t-78.5 -147.5t-69.5 -130.5t-52 -95.5h68q25 46 60.5 113t73.5 142h274q20 -75 39 -142t33 -113h69zM348 572q2 4 6.5 13.5t7.5 17.5
q2 -8 3.5 -17.5t2.5 -13.5q14 -47 33 -115t40 -143h-228q38 75 73.5 143t61.5 115zM430 942q24 -45 48.5 -91t49.5 -91h-44q-6 12 -14.5 26t-17 29t-17 29.5t-14.5 25.5q-9 -11 -21 -25.5t-25 -29.5t-25 -29t-21 -26h-43z" />
    <glyph glyph-name="Atilde" unicode="&#xc3;" horiz-adv-x="645" 
d="M597 0q-11 36 -28.5 95.5t-37.5 130.5t-42.5 147.5t-42.5 147.5t-37.5 130t-28.5 96q-20 -37 -52 -96t-69.5 -130t-78.5 -147.5t-78.5 -147.5t-69.5 -130.5t-52 -95.5h68q25 46 60.5 113t73.5 142h274q20 -75 39 -142t33 -113h69zM348 572q2 4 6.5 13.5t7.5 17.5
q2 -8 3.5 -17.5t2.5 -13.5q14 -47 33 -115t40 -143h-228q38 75 73.5 143t61.5 115zM377 793q-14 17 -24.5 22.5t-24.5 5.5q-8 0 -17.5 -2t-19 -7.5t-17 -15.5t-11.5 -25l-33 2q3 20 13.5 35t24.5 25.5t29.5 15.5t30.5 5q23 0 40 -9t31 -26t24.5 -22.5t24.5 -5.5q7 0 17 2
t19.5 7.5t17 15.5t11.5 25l33 -2q-3 -20 -13.5 -35t-24.5 -25.5t-29.5 -15.5t-30.5 -5q-23 0 -40 9.5t-31 25.5z" />
    <glyph glyph-name="Adieresis" unicode="&#xc4;" horiz-adv-x="645" 
d="M597 0q-11 36 -28.5 95.5t-37.5 130.5t-42.5 147.5t-42.5 147.5t-37.5 130t-28.5 96q-20 -37 -52 -96t-69.5 -130t-78.5 -147.5t-78.5 -147.5t-69.5 -130.5t-52 -95.5h68q25 46 60.5 113t73.5 142h274q20 -75 39 -142t33 -113h69zM348 572q2 4 6.5 13.5t7.5 17.5
q2 -8 3.5 -17.5t2.5 -13.5q14 -47 33 -115t40 -143h-228q38 75 73.5 143t61.5 115zM437 809q0 19 14.5 32t31.5 13q14 0 24.5 -10.5t10.5 -26.5q0 -20 -14.5 -32.5t-30.5 -12.5q-15 0 -25.5 10t-10.5 27zM258 809q0 19 14.5 32t31.5 13q14 0 24.5 -10.5t10.5 -26.5
q0 -20 -14.5 -32.5t-30.5 -12.5q-15 0 -25.5 10t-10.5 27z" />
    <glyph glyph-name="Aring" unicode="&#xc5;" horiz-adv-x="645" 
d="M528 0q-14 46 -33 113t-39 142h-274q-38 -75 -73.5 -142t-60.5 -113h-68q20 36 52 95.5t69.5 130.5t78.5 147.5t78.5 147.5t69.5 130t52 96q11 -37 28.5 -96t37.5 -130t42.5 -147.5t42.5 -147.5t37.5 -130.5t28.5 -95.5h-69zM348 572q-26 -47 -61.5 -115t-73.5 -143h228
q-21 75 -40 143t-33 115q-1 4 -2.5 13.5t-3.5 17.5q-3 -8 -7.5 -17.5t-6.5 -13.5zM316 835q0 17 7 32t19 26.5t27.5 18t32.5 6.5q29 0 48 -19.5t19 -48.5q0 -17 -7 -32t-19 -26.5t-27.5 -18t-32.5 -6.5q-29 0 -48 19.5t-19 48.5zM351 838q0 -15 10.5 -26t25.5 -11
q19 0 33 13.5t14 31.5q0 16 -10 26.5t-27 10.5t-31.5 -13t-14.5 -32z" />
    <glyph glyph-name="AE" unicode="&#xc6;" horiz-adv-x="682" 
d="M275 0l31 255h-123q-38 -75 -73.5 -142t-60.5 -113h-68q20 36 50.5 93t66.5 124.5t74.5 139.5t74 139.5t66 124t50.5 93.5h318l-8 -62h-253l-32 -261h213l-8 -64h-213l-32 -263h267l-8 -64h-332zM344 562q-26 -47 -60.5 -113.5t-72.5 -138.5h102z" />
    <glyph glyph-name="Ccedilla" unicode="&#xc7;" horiz-adv-x="643" 
d="M590 48q-33 -20 -84.5 -37t-117.5 -19q-2 -14 1 -22t8.5 -13.5t12 -9.5t12.5 -8q17 -14 24.5 -31.5t7.5 -35.5q0 -24 -8 -45t-23 -36t-35.5 -24t-45.5 -9q-31 0 -55 17t-32 52q17 9 37 17q3 -18 16.5 -29.5t35.5 -11.5q29 0 47.5 20t18.5 49q0 21 -11 32t-23.5 21
t-21.5 21.5t-6 33.5l2 13q-70 4 -125 31t-92.5 70t-57 99t-19.5 119q0 87 34.5 162t92 130t133 86.5t156.5 31.5q27 0 54.5 -3.5t51.5 -10.5t44 -16t33 -20q-6 -8 -9.5 -13t-7 -10.5t-8.5 -12.5t-12 -18q-29 20 -70.5 30t-80.5 10q-68 0 -130 -27t-109 -72.5t-74.5 -105.5
t-27.5 -126q0 -53 18 -101t51.5 -84.5t82 -58t108.5 -21.5q29 0 56.5 4.5t51.5 12t42.5 15.5t29.5 16z" />
    <glyph glyph-name="Egrave" unicode="&#xc8;" horiz-adv-x="611" 
d="M68 0l88 714h450l-8 -62h-382l-32 -261h342l-8 -64h-342l-32 -263h396l-8 -64h-464zM376 894q18 -34 36.5 -67.5t37.5 -66.5h-44l-90 134h60z" />
    <glyph glyph-name="Eacute" unicode="&#xc9;" horiz-adv-x="611" 
d="M68 0l88 714h450l-8 -62h-382l-32 -261h342l-8 -64h-342l-32 -263h396l-8 -64h-464zM352 760l108 134h59q-31 -34 -61.5 -67.5t-62.5 -66.5h-43z" />
    <glyph glyph-name="Ecircumflex" unicode="&#xca;" horiz-adv-x="611" 
d="M68 0l88 714h450l-8 -62h-382l-32 -261h342l-8 -64h-342l-32 -263h396l-8 -64h-464zM417 942q24 -45 48.5 -91t49.5 -91h-44q-6 12 -14.5 26t-17 29t-17 29.5t-14.5 25.5q-9 -11 -21 -25.5t-25 -29.5t-25 -29t-21 -26h-43z" />
    <glyph glyph-name="Edieresis" unicode="&#xcb;" horiz-adv-x="611" 
d="M68 0l88 714h450l-8 -62h-382l-32 -261h342l-8 -64h-342l-32 -263h396l-8 -64h-464zM453 809q0 19 14.5 32t31.5 13q14 0 24.5 -10.5t10.5 -26.5q0 -20 -14.5 -32.5t-30.5 -12.5q-15 0 -25.5 10t-10.5 27zM274 809q0 19 14.5 32t31.5 13q14 0 24.5 -10.5t10.5 -26.5
q0 -20 -14.5 -32.5t-30.5 -12.5q-15 0 -25.5 10t-10.5 27z" />
    <glyph glyph-name="Igrave" unicode="&#xcc;" horiz-adv-x="273" 
d="M156 714h69l-88 -714h-69zM159 894q18 -34 36.5 -67.5t37.5 -66.5h-44l-90 134h60z" />
    <glyph glyph-name="Iacute" unicode="&#xcd;" horiz-adv-x="273" 
d="M156 714h69l-88 -714h-69zM158 760l108 134h59q-31 -34 -61.5 -67.5t-62.5 -66.5h-43z" />
    <glyph glyph-name="Icircumflex" unicode="&#xce;" horiz-adv-x="273" 
d="M156 714h69l-88 -714h-69zM220 942q24 -45 48.5 -91t49.5 -91h-44q-6 12 -14.5 26t-17 29t-17 29.5t-14.5 25.5q-9 -11 -21 -25.5t-25 -29.5t-25 -29t-21 -26h-43z" />
    <glyph glyph-name="Idieresis" unicode="&#xcf;" horiz-adv-x="273" 
d="M156 714h69l-88 -714h-69zM253 809q0 19 14.5 32t31.5 13q14 0 24.5 -10.5t10.5 -26.5q0 -20 -14.5 -32.5t-30.5 -12.5q-15 0 -25.5 10t-10.5 27zM74 809q0 19 14.5 32t31.5 13q14 0 24.5 -10.5t10.5 -26.5q0 -20 -14.5 -32.5t-30.5 -12.5q-15 0 -25.5 10t-10.5 27z" />
    <glyph glyph-name="Eth" unicode="&#xd0;" horiz-adv-x="721" 
d="M57 378h65l41 336h166q97 0 164.5 -28.5t109.5 -74t60.5 -103.5t18.5 -116q0 -89 -34 -161.5t-90.5 -123.5t-129.5 -79t-152 -28h-201l41 330h-65zM277 65q68 0 129 22.5t107.5 64.5t73.5 102t27 135q0 55 -18.5 102.5t-53.5 82.5t-85.5 54.5t-114.5 19.5h-118l-33 -270
h158l-6 -48h-158l-33 -265h125z" />
    <glyph glyph-name="Ntilde" unicode="&#xd1;" horiz-adv-x="811" 
d="M763 714l-92 -747q-24 35 -61 83.5t-80 103.5t-88.5 112.5t-87.5 112.5t-76.5 102.5t-56.5 82.5q-2 4 -7.5 11.5t-9.5 14.5v-32l-69 -558h-68l92 747q24 -37 60.5 -85t79 -102t87.5 -111t87 -110.5t78 -101t59 -82.5q2 -5 7 -12.5t9 -14.5l1 33l68 553h68zM465 790
q-14 17 -25 22.5t-25 5.5q-8 0 -17.5 -2t-19 -7.5t-17 -15.5t-11.5 -25l-32 2q3 20 13.5 35t24 25.5t29 15.5t30.5 5q23 0 40 -9t31 -26t25 -22.5t25 -5.5q7 0 17 2t19.5 7.5t17 15.5t11.5 25l33 -2q-4 -20 -14 -35t-24 -25.5t-29.5 -15.5t-30.5 -5q-23 0 -40 9.5t-31 25.5z
" />
    <glyph glyph-name="Ograve" unicode="&#xd2;" horiz-adv-x="827" 
d="M56 319q0 81 34 154.5t91 128.5t131.5 87.5t155.5 32.5q70 0 129 -26t102 -71t67.5 -105t24.5 -128q0 -82 -34 -154.5t-91.5 -127t-132 -86.5t-155.5 -32q-70 0 -129 25.5t-102 69.5t-67 104t-24 128zM124 326q0 -56 19.5 -105t54.5 -85.5t83 -57.5t105 -21q66 0 127 26
t107.5 71t74.5 105t28 127q0 56 -20 105.5t-55 86t-83 57.5t-105 21q-66 0 -127 -26.5t-107.5 -71.5t-74 -105t-27.5 -127zM441 894q18 -34 36.5 -67.5t37.5 -66.5h-44l-90 134h60z" />
    <glyph glyph-name="Oacute" unicode="&#xd3;" horiz-adv-x="827" 
d="M56 319q0 81 34 154.5t91 128.5t131.5 87.5t155.5 32.5q70 0 129 -26t102 -71t67.5 -105t24.5 -128q0 -82 -34 -154.5t-91.5 -127t-132 -86.5t-155.5 -32q-70 0 -129 25.5t-102 69.5t-67 104t-24 128zM124 326q0 -56 19.5 -105t54.5 -85.5t83 -57.5t105 -21q66 0 127 26
t107.5 71t74.5 105t28 127q0 56 -20 105.5t-55 86t-83 57.5t-105 21q-66 0 -127 -26.5t-107.5 -71.5t-74 -105t-27.5 -127zM429 760l108 134h59q-31 -34 -61.5 -67.5t-62.5 -66.5h-43z" />
    <glyph glyph-name="Ocircumflex" unicode="&#xd4;" horiz-adv-x="827" 
d="M56 319q0 81 34 154.5t91 128.5t131.5 87.5t155.5 32.5q70 0 129 -26t102 -71t67.5 -105t24.5 -128q0 -82 -34 -154.5t-91.5 -127t-132 -86.5t-155.5 -32q-70 0 -129 25.5t-102 69.5t-67 104t-24 128zM124 326q0 -56 19.5 -105t54.5 -85.5t83 -57.5t105 -21q66 0 127 26
t107.5 71t74.5 105t28 127q0 56 -20 105.5t-55 86t-83 57.5t-105 21q-66 0 -127 -26.5t-107.5 -71.5t-74 -105t-27.5 -127zM493 942q24 -45 48.5 -91t49.5 -91h-44q-6 12 -14.5 26t-17 29t-17 29.5t-14.5 25.5q-9 -11 -21 -25.5t-25 -29.5t-25 -29t-21 -26h-43z" />
    <glyph glyph-name="Otilde" unicode="&#xd5;" horiz-adv-x="827" 
d="M56 319q0 81 34 154.5t91 128.5t131.5 87.5t155.5 32.5q70 0 129 -26t102 -71t67.5 -105t24.5 -128q0 -82 -34 -154.5t-91.5 -127t-132 -86.5t-155.5 -32q-70 0 -129 25.5t-102 69.5t-67 104t-24 128zM124 326q0 -56 19.5 -105t54.5 -85.5t83 -57.5t105 -21q66 0 127 26
t107.5 71t74.5 105t28 127q0 56 -20 105.5t-55 86t-83 57.5t-105 21q-66 0 -127 -26.5t-107.5 -71.5t-74 -105t-27.5 -127zM465 824q-14 17 -24.5 22.5t-24.5 5.5q-8 0 -17.5 -2t-19 -7.5t-17.5 -15.5t-12 -25l-32 2q3 20 13.5 35t24.5 25.5t29.5 15.5t30.5 5q23 0 39.5 -9
t30.5 -26t25 -22.5t25 -5.5q7 0 17 2t19.5 7.5t17 15.5t11.5 25l33 -2q-4 -20 -14 -35t-24 -25.5t-29.5 -15.5t-30.5 -5q-23 0 -40 9.5t-31 25.5z" />
    <glyph glyph-name="Odieresis" unicode="&#xd6;" horiz-adv-x="826" 
d="M58 356q9 75 46 141.5t92.5 116.5t125.5 79t145 29q70 0 129 -26t102 -71t67.5 -105t24.5 -128q0 -82 -34 -154.5t-91.5 -127t-132 -86.5t-155.5 -32q-75 0 -138 28.5t-106.5 78t-63.5 116t-11 141.5zM126 356q-8 -62 8.5 -116.5t52 -95t86.5 -64t112 -23.5q66 0 127 26
t107.5 71t74.5 105t28 127q0 56 -20 105.5t-55 86t-83 57.5t-105 21q-62 0 -118.5 -23.5t-102 -64.5t-75.5 -95.5t-37 -116.5zM525 809q0 19 14.5 32t31.5 13q14 0 24.5 -10.5t10.5 -26.5q0 -20 -14.5 -32.5t-30.5 -12.5q-15 0 -25.5 10t-10.5 27zM346 809q0 19 14.5 32
t31.5 13q14 0 24.5 -10.5t10.5 -26.5q0 -20 -14.5 -32.5t-30.5 -12.5q-15 0 -25.5 10t-10.5 27z" />
    <glyph glyph-name="multiply" unicode="&#xd7;" horiz-adv-x="434" 
d="M289 0l-93 105q-29 -26 -58.5 -52t-58.5 -52l-43 48l118 106l-93 105l56 50l93 -106q29 27 59 53t59 52q11 -11 21 -24t21 -25q-29 -26 -58.5 -52t-58.5 -52q24 -26 46.5 -53t46.5 -53z" />
    <glyph glyph-name="Oslash" unicode="&#xd8;" horiz-adv-x="827" 
d="M56 319q0 81 34 154.5t91 128.5t131.5 87.5t155.5 32.5q60 0 110.5 -18.5t92.5 -50.5q20 20 38 38.5t32 33.5l29 -30l-67 -70q42 -44 65 -105t23 -128q0 -82 -34 -154.5t-91.5 -127t-132 -86.5t-155.5 -32q-64 0 -118.5 20.5t-97.5 56.5l-75 -78l-29 30l75 78
q-37 42 -57 99.5t-20 120.5zM212 120q34 -30 78 -46.5t96 -16.5q66 0 127 26t107.5 71t74.5 105t28 127q0 54 -18.5 103.5t-51.5 84.5zM124 325q0 -50 15.5 -95.5t42.5 -79.5l440 452q-33 26 -73.5 40t-88.5 14q-66 0 -127 -26.5t-107.5 -71.5t-74 -105.5t-27.5 -127.5z" />
    <glyph glyph-name="Ugrave" unicode="&#xd9;" horiz-adv-x="694" 
d="M312 -8q-54 0 -98.5 17.5t-74.5 49.5t-43.5 78.5t-6.5 105.5l58 471h68l-57 -468q-5 -43 4.5 -78t31 -59.5t54 -38t72.5 -13.5q39 0 75 13.5t64 38t47 59.5t24 78l57 468h68l-58 -471q-7 -59 -32.5 -105.5t-64 -78.5t-87 -49.5t-101.5 -17.5zM379 894q19 -34 37 -67.5
t38 -66.5h-44l-91 134h60z" />
    <glyph glyph-name="Uacute" unicode="&#xda;" horiz-adv-x="694" 
d="M312 -8q-54 0 -98.5 17.5t-74.5 49.5t-43.5 78.5t-6.5 105.5l58 471h68l-57 -468q-5 -43 4.5 -78t31 -59.5t54 -38t72.5 -13.5q39 0 75 13.5t64 38t47 59.5t24 78l57 468h68l-58 -471q-7 -59 -32.5 -105.5t-64 -78.5t-87 -49.5t-101.5 -17.5zM371 760l107 134h59
q-30 -34 -61 -67.5t-62 -66.5h-43z" />
    <glyph glyph-name="Ucircumflex" unicode="&#xdb;" horiz-adv-x="694" 
d="M312 -8q-54 0 -98.5 17.5t-74.5 49.5t-43.5 78.5t-6.5 105.5l58 471h68l-57 -468q-5 -43 4.5 -78t31 -59.5t54 -38t72.5 -13.5q39 0 75 13.5t64 38t47 59.5t24 78l57 468h68l-58 -471q-7 -59 -32.5 -105.5t-64 -78.5t-87 -49.5t-101.5 -17.5zM438 955q24 -45 48.5 -91
t49.5 -91h-44q-6 12 -14.5 26t-17 29t-17 29.5t-14.5 25.5q-9 -11 -21 -25.5t-25 -29.5t-25 -29t-21 -26h-43z" />
    <glyph glyph-name="Udieresis" unicode="&#xdc;" horiz-adv-x="694" 
d="M312 -8q-54 0 -98.5 17.5t-74.5 49.5t-43.5 78.5t-6.5 105.5l58 471h68l-57 -468q-5 -43 4.5 -78t31 -59.5t54 -38t72.5 -13.5q39 0 75 13.5t64 38t47 59.5t24 78l57 468h68l-58 -471q-7 -59 -32.5 -105.5t-64 -78.5t-87 -49.5t-101.5 -17.5zM473 809q0 19 14 32t31 13
q14 0 24.5 -10.5t10.5 -26.5q0 -20 -14 -32.5t-31 -12.5q-14 0 -24.5 10t-10.5 27zM294 809q0 19 14 32t31 13q14 0 24.5 -10.5t10.5 -26.5q0 -20 -14 -32.5t-31 -12.5q-14 0 -24.5 10t-10.5 27z" />
    <glyph glyph-name="Yacute" unicode="&#xdd;" horiz-adv-x="635" 
d="M349 249l-31 -249h-69l31 249q-11 22 -27.5 58.5t-36.5 81t-41 93t-41 93t-36.5 81t-26.5 58.5h77q14 -30 34.5 -76t43.5 -97.5t46 -104.5t42 -97l8 -30l16 30q30 44 65.5 97t70.5 104.5t66 97.5t53 76h78zM348 760l107 134h59q-30 -34 -61 -67.5t-62 -66.5h-43z" />
    <glyph glyph-name="Thorn" unicode="&#xde;" horiz-adv-x="540" 
d="M68 0l87 706h68l-17 -139h105q41 0 79 -11t67 -34t46 -57.5t17 -81.5q0 -44 -15 -87.5t-46.5 -78t-80.5 -56.5t-118 -22h-107l-17 -139h-68zM161 204h106q53 0 88.5 18t56.5 44t30 55t9 51q0 25 -9 48.5t-27 42t-45.5 29.5t-64.5 11h-107z" />
    <glyph glyph-name="germandbls" unicode="&#xdf;" horiz-adv-x="551" 
d="M171 14l30 51q29 -17 67 -17q35 0 67 14t57 37.5t39.5 54.5t14.5 66q0 29 -10.5 54.5t-29 44.5t-44 29.5t-55.5 10.5h-1l7 57q45 0 77 28t32 74q0 35 -24 61.5t-74 26.5q-69 0 -106 -49t-47 -131l-52 -426h-58l43 350h-65l7 57h65l3 21q7 55 26 98.5t46.5 73.5t62.5 46
t75 17q42 0 72 -11.5t48.5 -30t27.5 -42.5t9 -50q0 -47 -23.5 -83.5t-66.5 -52.5q22 -6 43 -21t36.5 -37t25 -50.5t9.5 -60.5q0 -47 -20.5 -89t-54 -74t-77.5 -51t-92 -19q-50 0 -90 23z" />
    <glyph glyph-name="agrave" unicode="&#xe0;" horiz-adv-x="527" 
d="M27 177q0 47 19.5 89.5t52.5 74t75.5 50t88.5 18.5q30 0 55 -8t44 -21.5t31 -30t17 -32.5l14 83h51l-49 -400h-55l5 41q2 11 3 21t3 19q-9 -17 -25 -32.5t-38 -28.5t-49 -20.5t-58 -7.5q-42 0 -76 14.5t-58 39.5t-37.5 59t-13.5 72zM82 185q0 -30 10 -55t28.5 -44
t44 -29.5t56.5 -10.5q36 0 68 13.5t56 36.5t38 54.5t14 66.5q0 29 -10 54.5t-28 44t-43.5 29t-56.5 10.5q-36 0 -68 -13t-56 -36t-38.5 -54t-14.5 -67zM228 617q18 -34 36.5 -67.5t37.5 -66.5h-44l-90 134h60z" />
    <glyph glyph-name="aacute" unicode="&#xe1;" horiz-adv-x="527" 
d="M27 177q0 47 19.5 89.5t52.5 74t75.5 50t88.5 18.5q30 0 55 -8t44 -21.5t31 -30t17 -32.5l14 83h51l-49 -400h-55l5 41q2 11 3 21t3 19q-9 -17 -25 -32.5t-38 -28.5t-49 -20.5t-58 -7.5q-42 0 -76 14.5t-58 39.5t-37.5 59t-13.5 72zM82 185q0 -30 10 -55t28.5 -44
t44 -29.5t56.5 -10.5q36 0 68 13.5t56 36.5t38 54.5t14 66.5q0 29 -10 54.5t-28 44t-43.5 29t-56.5 10.5q-36 0 -68 -13t-56 -36t-38.5 -54t-14.5 -67zM254 483l108 134h59q-31 -34 -61.5 -67.5t-62.5 -66.5h-43z" />
    <glyph glyph-name="acircumflex" unicode="&#xe2;" horiz-adv-x="527" 
d="M27 177q0 47 19.5 89.5t52.5 74t75.5 50t88.5 18.5q30 0 55 -8t44 -21.5t31 -30t17 -32.5l14 83h51l-49 -400h-55l5 41q2 11 3 21t3 19q-9 -17 -25 -32.5t-38 -28.5t-49 -20.5t-58 -7.5q-42 0 -76 14.5t-58 39.5t-37.5 59t-13.5 72zM82 185q0 -30 10 -55t28.5 -44
t44 -29.5t56.5 -10.5q36 0 68 13.5t56 36.5t38 54.5t14 66.5q0 29 -10 54.5t-28 44t-43.5 29t-56.5 10.5q-36 0 -68 -13t-56 -36t-38.5 -54t-14.5 -67zM315 664q24 -45 48.5 -91t49.5 -91h-44q-6 12 -14.5 26t-17 29t-17 29.5t-14.5 25.5q-9 -11 -21 -25.5t-25 -29.5
t-25 -29t-21 -26h-43z" />
    <glyph glyph-name="atilde" unicode="&#xe3;" horiz-adv-x="527" 
d="M27 177q0 47 19.5 89.5t52.5 74t75.5 50t88.5 18.5q30 0 55 -8t44 -21.5t31 -30t17 -32.5l14 83h51l-49 -400h-55l5 41q2 11 3 21t3 19q-9 -17 -25 -32.5t-38 -28.5t-49 -20.5t-58 -7.5q-42 0 -76 14.5t-58 39.5t-37.5 59t-13.5 72zM82 185q0 -30 10 -55t28.5 -44
t44 -29.5t56.5 -10.5q36 0 68 13.5t56 36.5t38 54.5t14 66.5q0 29 -10 54.5t-28 44t-43.5 29t-56.5 10.5q-36 0 -68 -13t-56 -36t-38.5 -54t-14.5 -67zM287 491q-14 17 -24.5 22.5t-24.5 5.5q-8 0 -17.5 -2t-19 -7.5t-17 -15.5t-11.5 -25l-33 2q3 20 13.5 35t24.5 25.5
t29.5 15.5t30.5 5q23 0 39.5 -9t30.5 -26t25 -22.5t25 -5.5q7 0 17 2t19.5 7.5t17 15.5t11.5 25l33 -2q-4 -20 -14 -35t-24 -25.5t-29.5 -15.5t-30.5 -5q-23 0 -40 9.5t-31 25.5z" />
    <glyph glyph-name="adieresis" unicode="&#xe4;" horiz-adv-x="527" 
d="M27 177q0 47 19.5 89.5t52.5 74t75.5 50t88.5 18.5q30 0 55 -8t44 -21.5t31 -30t17 -32.5l14 83h51l-49 -400h-55l5 41q2 11 3 21t3 19q-9 -17 -25 -32.5t-38 -28.5t-49 -20.5t-58 -7.5q-42 0 -76 14.5t-58 39.5t-37.5 59t-13.5 72zM82 185q0 -30 10 -55t28.5 -44
t44 -29.5t56.5 -10.5q36 0 68 13.5t56 36.5t38 54.5t14 66.5q0 29 -10 54.5t-28 44t-43.5 29t-56.5 10.5q-36 0 -68 -13t-56 -36t-38.5 -54t-14.5 -67zM345 513q0 19 14.5 32t31.5 13q14 0 24.5 -10.5t10.5 -26.5q0 -20 -15 -32.5t-31 -12.5q-14 0 -24.5 10t-10.5 27z
M166 513q0 19 14.5 32t31.5 13q14 0 24.5 -10.5t10.5 -26.5q0 -20 -15 -32.5t-31 -12.5q-14 0 -24.5 10t-10.5 27z" />
    <glyph glyph-name="aring" unicode="&#xe5;" horiz-adv-x="527" 
d="M27 177q0 47 19.5 89.5t52.5 74t75.5 50t88.5 18.5q30 0 55 -8t44 -21.5t31 -30t17 -32.5l14 83h51l-49 -400h-55l5 41q2 11 3 21t3 19q-9 -17 -25 -32.5t-38 -28.5t-49 -20.5t-58 -7.5q-42 0 -76 14.5t-58 39.5t-37.5 59t-13.5 72zM82 185q0 -30 10 -55t28.5 -44
t44 -29.5t56.5 -10.5q36 0 68 13.5t56 36.5t38 54.5t14 66.5q0 29 -10 54.5t-28 44t-43.5 29t-56.5 10.5q-36 0 -68 -13t-56 -36t-38.5 -54t-14.5 -67zM206 504q0 17 7 32t19 26.5t27.5 18t32.5 6.5q29 0 48 -19.5t19 -48.5q0 -34 -25.5 -58.5t-59.5 -24.5q-29 0 -48.5 19.5
t-19.5 48.5zM241 507q0 -15 11 -26t26 -11q19 0 32.5 13.5t13.5 31.5q0 16 -10 26.5t-26 10.5q-18 0 -32.5 -13t-14.5 -32z" />
    <glyph glyph-name="ae" unicode="&#xe6;" horiz-adv-x="663" 
d="M333 97l-4 -10q38 -41 100 -41q32 0 62 11t53 30l36 -39q-32 -26 -73 -41t-83 -15q-39 0 -72 12.5t-58 35.5q-28 -24 -66.5 -36t-82.5 -12q-35 0 -59.5 8.5t-41 23.5t-24 34t-7.5 40q0 31 13.5 53.5t34.5 37.5t46.5 22t49.5 7h84q14 60 54 107q-22 29 -89 29
q-44 0 -73.5 -9t-52.5 -23l-19 44q31 20 71.5 31.5t89.5 11.5q87 0 118 -44q29 21 63.5 33t70.5 12q66 0 109.5 -39.5t58.5 -102.5q-35 -13 -78.5 -29.5t-89.5 -34t-91 -35t-84 -32.5q3 -9 6.5 -17t8.5 -16zM575 282q-12 34 -41 53.5t-67 19.5q-35 0 -66.5 -13.5t-55.5 -37
t-38 -53.5t-14 -63q0 -10 1 -14q32 13 68.5 27t73.5 28.5t73 28t66 24.5zM66 107q0 -18 8 -29.5t21 -18.5t29.5 -10t33.5 -3q69 0 106 32q-27 40 -27 96h-51q-35 0 -58.5 -6t-37 -15.5t-19 -21.5t-5.5 -24z" />
    <glyph glyph-name="ccedilla" unicode="&#xe7;" horiz-adv-x="412" 
d="M323 79l29 -41q-30 -22 -65 -34t-72 -12q-2 -14 1.5 -22t8.5 -13.5t11.5 -9.5t12.5 -8q17 -14 24.5 -31.5t7.5 -35.5q0 -24 -8 -45t-23 -36t-35.5 -24t-45.5 -9q-31 0 -55 17t-32 52q9 5 18 9t19 8q3 -18 16.5 -29.5t35.5 -11.5q29 0 47.5 20t18.5 49q0 21 -10.5 32
t-23 21t-21.5 21.5t-6 33.5l2 15q-33 6 -61 22.5t-48 41t-31 55t-11 65.5q0 47 19.5 89t52.5 73.5t76 49.5t90 18q38 0 70.5 -12t57.5 -34q-10 -11 -20 -20.5t-20 -20.5q-38 33 -94 33q-36 0 -68.5 -13.5t-56.5 -36.5t-38 -54t-14 -67q0 -29 10 -54.5t28.5 -44t44 -29
t56.5 -10.5q29 0 54.5 8.5t47.5 24.5z" />
    <glyph glyph-name="egrave" unicode="&#xe8;" horiz-adv-x="454" 
d="M370 48q-32 -26 -73 -41t-83 -15q-41 0 -75 14.5t-59 40t-39 59.5t-14 73q0 47 19.5 89t52.5 73.5t75.5 50t88.5 18.5q66 0 110 -39.5t59 -102.5q-35 -13 -78.5 -29.5t-89.5 -34t-91 -35t-84 -32.5q13 -41 47.5 -66t82.5 -25q32 0 62 11t53 30zM365 282
q-13 34 -41.5 53.5t-66.5 19.5q-35 0 -66.5 -13.5t-55.5 -37t-38 -53.5t-14 -63v-14q33 13 69.5 27t73.5 28.5t73 28t66 24.5zM204 617q18 -34 36.5 -67.5t37.5 -66.5h-44l-90 134h60z" />
    <glyph glyph-name="eacute" unicode="&#xe9;" horiz-adv-x="454" 
d="M370 48q-32 -26 -73 -41t-83 -15q-41 0 -75 14.5t-59 40t-39 59.5t-14 73q0 47 19.5 89t52.5 73.5t75.5 50t88.5 18.5q66 0 110 -39.5t59 -102.5q-35 -13 -78.5 -29.5t-89.5 -34t-91 -35t-84 -32.5q13 -41 47.5 -66t82.5 -25q32 0 62 11t53 30zM365 282
q-13 34 -41.5 53.5t-66.5 19.5q-35 0 -66.5 -13.5t-55.5 -37t-38 -53.5t-14 -63v-14q33 13 69.5 27t73.5 28.5t73 28t66 24.5zM239 483l108 134h59q-31 -34 -61.5 -67.5t-62.5 -66.5h-43z" />
    <glyph glyph-name="ecircumflex" unicode="&#xea;" horiz-adv-x="454" 
d="M370 48q-32 -26 -73 -41t-83 -15q-41 0 -75 14.5t-59 40t-39 59.5t-14 73q0 47 19.5 89t52.5 73.5t75.5 50t88.5 18.5q66 0 110 -39.5t59 -102.5q-35 -13 -78.5 -29.5t-89.5 -34t-91 -35t-84 -32.5q13 -41 47.5 -66t82.5 -25q32 0 62 11t53 30zM365 282
q-13 34 -41.5 53.5t-66.5 19.5q-35 0 -66.5 -13.5t-55.5 -37t-38 -53.5t-14 -63v-14q33 13 69.5 27t73.5 28.5t73 28t66 24.5zM282 665q24 -45 48.5 -91t49.5 -91h-44q-6 12 -14.5 26t-17 29t-17 29.5t-14.5 25.5q-9 -11 -21 -25.5t-25 -29.5t-25 -29t-21 -26h-43z" />
    <glyph glyph-name="edieresis" unicode="&#xeb;" horiz-adv-x="454" 
d="M370 48q-32 -26 -73 -41t-83 -15q-41 0 -75 14.5t-59 40t-39 59.5t-14 73q0 47 19.5 89t52.5 73.5t75.5 50t88.5 18.5q66 0 110 -39.5t59 -102.5q-35 -13 -78.5 -29.5t-89.5 -34t-91 -35t-84 -32.5q13 -41 47.5 -66t82.5 -25q32 0 62 11t53 30zM365 282
q-13 34 -41.5 53.5t-66.5 19.5q-35 0 -66.5 -13.5t-55.5 -37t-38 -53.5t-14 -63v-14q33 13 69.5 27t73.5 28.5t73 28t66 24.5zM315 513q0 19 14.5 32t31.5 13q14 0 24.5 -10.5t10.5 -26.5q0 -20 -15 -32.5t-31 -12.5q-14 0 -24.5 10t-10.5 27zM136 513q0 19 14.5 32t31.5 13
q14 0 24.5 -10.5t10.5 -26.5q0 -20 -15 -32.5t-31 -12.5q-14 0 -24.5 10t-10.5 27z" />
    <glyph glyph-name="igrave" unicode="&#xec;" horiz-adv-x="189" 
d="M88 0h-55l49 400h55zM77 617q18 -34 36.5 -67.5t38.5 -66.5h-44l-91 134h60z" />
    <glyph glyph-name="iacute" unicode="&#xed;" horiz-adv-x="189" 
d="M88 0h-55l49 400h55zM93 483l108 134h59q-31 -34 -61.5 -67.5t-62.5 -66.5h-43z" />
    <glyph glyph-name="icircumflex" unicode="&#xee;" horiz-adv-x="189" 
d="M88 0h-55l49 400h55zM143 665q25 -45 49 -91t50 -91h-44q-6 12 -14.5 26t-17 29t-17 29.5t-14.5 25.5q-9 -11 -21 -25.5t-25 -29.5t-25 -29t-21 -26h-43z" />
    <glyph glyph-name="idieresis" unicode="&#xef;" horiz-adv-x="189" 
d="M88 0h-55l49 400h55zM175 513q0 19 14.5 32t31.5 13q14 0 24.5 -10.5t10.5 -26.5q0 -20 -15 -32.5t-31 -12.5q-14 0 -24.5 10t-10.5 27zM-4 513q0 19 14.5 32t31.5 13q14 0 24.5 -10.5t10.5 -26.5q0 -20 -15 -32.5t-31 -12.5q-14 0 -24.5 10t-10.5 27z" />
    <glyph glyph-name="eth" unicode="&#xf0;" horiz-adv-x="499" 
d="M27 178q0 48 19.5 90t52 73.5t75.5 50t91 18.5q33 0 62 -10t52 -27q-10 51 -35 113t-71 128l-75 -71l-28 29q20 20 40.5 39t40.5 38q-20 26 -42 50t-46 45l36 31q23 -20 45 -42.5t43 -48.5l36 34t35 35l28 -28l-76 -74q30 -42 56 -92.5t45.5 -103.5t30.5 -107t11 -105
q0 -16 -1 -25.5t-2 -15t-2 -8t-1 -3.5q-7 -42 -28 -78t-52.5 -63t-71 -42.5t-82.5 -15.5q-40 0 -74 14t-59 38.5t-39 58.5t-14 75zM82 184q0 -29 10.5 -54.5t28.5 -44t43 -29t55 -10.5q35 0 66.5 13.5t55.5 36.5t38.5 54t14.5 66q0 29 -10.5 54.5t-28.5 44t-43 29.5t-55 11
q-35 0 -66.5 -13.5t-55.5 -37t-38.5 -54.5t-14.5 -66z" />
    <glyph glyph-name="ntilde" unicode="&#xf1;" 
d="M82 400h47l-8 -103q29 50 75.5 81t106.5 31q59 0 89.5 -33t25.5 -87l-35 -289h-55l33 270q3 34 -16.5 58t-63.5 26q-32 0 -60.5 -10.5t-51 -29.5t-37 -45t-18.5 -57l-26 -212h-55zM275 499q-14 17 -24.5 22.5t-24.5 5.5q-8 0 -17.5 -2t-19 -7.5t-17 -15.5t-11.5 -25
l-33 2q3 20 13.5 35t24.5 25.5t29.5 15.5t30.5 5q23 0 39.5 -9t30.5 -26t25 -22.5t25 -5.5q7 0 17 2t19.5 7.5t17 15.5t11.5 25l33 -2q-4 -20 -14 -35t-24 -25.5t-29.5 -15.5t-30.5 -5q-23 0 -40 9.5t-31 25.5z" />
    <glyph glyph-name="ograve" unicode="&#xf2;" horiz-adv-x="496" 
d="M27 178q0 48 19.5 90t52 73.5t75.5 50t91 18.5q41 0 75 -14.5t58.5 -40t38 -60t13.5 -73.5q0 -47 -19 -89t-51.5 -73.5t-75.5 -49.5t-91 -18q-40 0 -74 14t-59 38.5t-39 58.5t-14 75zM82 184q0 -29 10.5 -54.5t28.5 -44t43 -29t55 -10.5q35 0 66.5 13.5t55.5 36.5
t38.5 54t14.5 66q0 29 -10.5 54.5t-28.5 44t-43 29.5t-55 11q-35 0 -66.5 -13.5t-55.5 -37t-38.5 -54.5t-14.5 -66zM210 617q18 -34 36.5 -67.5t37.5 -66.5h-44l-90 134h60z" />
    <glyph glyph-name="oacute" unicode="&#xf3;" horiz-adv-x="496" 
d="M27 178q0 48 19.5 90t52 73.5t75.5 50t91 18.5q41 0 75 -14.5t58.5 -40t38 -60t13.5 -73.5q0 -47 -19 -89t-51.5 -73.5t-75.5 -49.5t-91 -18q-40 0 -74 14t-59 38.5t-39 58.5t-14 75zM82 184q0 -29 10.5 -54.5t28.5 -44t43 -29t55 -10.5q35 0 66.5 13.5t55.5 36.5
t38.5 54t14.5 66q0 29 -10.5 54.5t-28.5 44t-43 29.5t-55 11q-35 0 -66.5 -13.5t-55.5 -37t-38.5 -54.5t-14.5 -66zM272 483l108 134h59q-31 -34 -61.5 -67.5t-62.5 -66.5h-43z" />
    <glyph glyph-name="ocircumflex" unicode="&#xf4;" horiz-adv-x="496" 
d="M27 178q0 48 19.5 90t52 73.5t75.5 50t91 18.5q41 0 75 -14.5t58.5 -40t38 -60t13.5 -73.5q0 -47 -19 -89t-51.5 -73.5t-75.5 -49.5t-91 -18q-40 0 -74 14t-59 38.5t-39 58.5t-14 75zM82 184q0 -29 10.5 -54.5t28.5 -44t43 -29t55 -10.5q35 0 66.5 13.5t55.5 36.5
t38.5 54t14.5 66q0 29 -10.5 54.5t-28.5 44t-43 29.5t-55 11q-35 0 -66.5 -13.5t-55.5 -37t-38.5 -54.5t-14.5 -66zM296 665q24 -45 48.5 -91t49.5 -91h-44q-6 12 -14.5 26t-17 29t-17 29.5t-14.5 25.5q-9 -11 -21 -25.5t-25 -29.5t-25 -29t-21 -26h-43z" />
    <glyph glyph-name="otilde" unicode="&#xf5;" horiz-adv-x="496" 
d="M27 178q0 48 19.5 90t52 73.5t75.5 50t91 18.5q41 0 75 -14.5t58.5 -40t38 -60t13.5 -73.5q0 -47 -19 -89t-51.5 -73.5t-75.5 -49.5t-91 -18q-40 0 -74 14t-59 38.5t-39 58.5t-14 75zM82 184q0 -29 10.5 -54.5t28.5 -44t43 -29t55 -10.5q35 0 66.5 13.5t55.5 36.5
t38.5 54t14.5 66q0 29 -10.5 54.5t-28.5 44t-43 29.5t-55 11q-35 0 -66.5 -13.5t-55.5 -37t-38.5 -54.5t-14.5 -66zM271 491q-14 17 -24.5 22.5t-24.5 5.5q-8 0 -17.5 -2t-19 -7.5t-17 -15.5t-11.5 -25l-33 2q3 20 13.5 35t24.5 25.5t29.5 15.5t30.5 5q23 0 39.5 -9
t30.5 -26t25 -22.5t25 -5.5q7 0 17 2t19.5 7.5t17 15.5t11.5 25l33 -2q-4 -20 -14 -35t-24 -25.5t-29.5 -15.5t-30.5 -5q-23 0 -40 9.5t-31 25.5z" />
    <glyph glyph-name="odieresis" unicode="&#xf6;" horiz-adv-x="495" 
d="M28 200q5 43 26 81.5t53 67t72.5 45t84.5 16.5q41 0 75 -14.5t58.5 -40t38 -60t13.5 -73.5q0 -47 -19 -89t-51.5 -73.5t-75.5 -49.5t-91 -18q-44 0 -80 15.5t-61 43.5t-37 66t-6 83zM83 200q-4 -32 4.5 -60t26.5 -49t45 -33t59 -12q35 0 66.5 13.5t55.5 36.5t38.5 54
t14.5 66q0 29 -10.5 54.5t-28.5 44t-43 29.5t-55 11q-32 0 -62 -12t-53 -33t-38.5 -49.5t-19.5 -60.5zM335 513q0 19 14.5 32t31.5 13q14 0 24.5 -10.5t10.5 -26.5q0 -20 -15 -32.5t-31 -12.5q-14 0 -24.5 10t-10.5 27zM156 513q0 19 14.5 32t31.5 13q14 0 24.5 -10.5
t10.5 -26.5q0 -20 -14.5 -32.5t-31.5 -12.5q-14 0 -24.5 10t-10.5 27z" />
    <glyph glyph-name="divide" unicode="&#xf7;" horiz-adv-x="502" 
d="M424 209h-363l7 57h363zM225 372q0 19 15 32t32 13q14 0 24.5 -10.5t10.5 -26.5q0 -20 -14.5 -32.5t-31.5 -12.5q-14 0 -25 10t-11 27zM191 96q0 19 15 32t32 13q14 0 24.5 -10.5t10.5 -26.5q0 -20 -14.5 -32.5t-30.5 -12.5q-14 0 -25.5 10t-11.5 27z" />
    <glyph glyph-name="oslash" unicode="&#xf8;" horiz-adv-x="496" 
d="M27 177q0 48 19.5 90.5t52 74t75.5 50t91 18.5q32 0 60 -9t51 -25l38 39l27 -25l-38 -39q23 -24 35 -58t12 -72q0 -47 -19 -88.5t-51.5 -73t-75.5 -49.5t-91 -18q-73 0 -123 41q-14 -15 -26.5 -27t-20.5 -21l-25 27q8 8 20 20.5t26 26.5q-17 23 -27 53.5t-10 64.5z
M131 75q17 -14 39.5 -21.5t48.5 -7.5q35 0 66.5 13.5t55.5 36.5t38.5 53.5t14.5 65.5q0 56 -33 94q-26 -26 -55.5 -56t-59.5 -60.5t-59.5 -60.5t-55.5 -57zM82 184q0 -49 25 -82q26 26 55 55.5t59 60t58.5 60t54.5 55.5q-33 22 -77 22q-35 0 -66.5 -13.5t-55.5 -37
t-38.5 -54.5t-14.5 -66z" />
    <glyph glyph-name="ugrave" unicode="&#xf9;" 
d="M378 -5h-46l8 108q-27 -50 -74 -81t-108 -31q-59 0 -89.5 33t-25.5 87l35 289h55l-33 -270q-2 -34 17 -58t63 -26q31 0 59.5 10.5t51 29t37.5 44.5t19 57l26 213h55zM242 617q18 -34 36.5 -67.5t37.5 -66.5h-44l-90 134h60z" />
    <glyph glyph-name="uacute" unicode="&#xfa;" 
d="M378 -5h-46l8 108q-27 -50 -74 -81t-108 -31q-59 0 -89.5 33t-25.5 87l35 289h55l-33 -270q-2 -34 17 -58t63 -26q31 0 59.5 10.5t51 29t37.5 44.5t19 57l26 213h55zM245 483l108 134h59q-31 -34 -61.5 -67.5t-62.5 -66.5h-43z" />
    <glyph glyph-name="ucircumflex" unicode="&#xfb;" horiz-adv-x="479" 
d="M424 -5h-46l8 108q-27 -50 -74 -81t-108 -31q-59 0 -89.5 33t-25.5 87l35 289h55l-33 -270q-2 -34 17 -58t63 -26q31 0 59.5 10.5t51 29t37.5 44.5t19 57l26 213h55zM350 665q24 -45 48.5 -91t49.5 -91h-44q-6 12 -14.5 26t-17 29t-17 29.5t-14.5 25.5q-9 -11 -21 -25.5
t-25 -29.5t-25 -29t-21 -26h-43z" />
    <glyph glyph-name="udieresis" unicode="&#xfc;" 
d="M378 -5h-46l8 108q-27 -50 -74 -81t-108 -31q-59 0 -89.5 33t-25.5 87l35 289h55l-33 -270q-2 -34 17 -58t63 -26q31 0 59.5 10.5t51 29t37.5 44.5t19 57l26 213h55zM333 513q0 19 14.5 32t31.5 13q14 0 24.5 -10.5t10.5 -26.5q0 -20 -14.5 -32.5t-30.5 -12.5
q-14 0 -25 10t-11 27zM154 513q0 19 14.5 32t31.5 13q14 0 24.5 -10.5t10.5 -26.5q0 -20 -14.5 -32.5t-30.5 -12.5q-15 0 -25.5 10t-10.5 27z" />
    <glyph glyph-name="yacute" unicode="&#xfd;" horiz-adv-x="444" 
d="M100 -192h-58q16 27 29.5 50.5t27 47.5t28 50.5t33.5 59.5q-35 92 -66.5 191.5t-66.5 192.5h59q23 -60 39 -108t28.5 -87.5t22 -73.5t20.5 -66q18 32 35.5 66t39.5 73.5t50 87.5t66 108h59zM233 483l108 134h59q-31 -34 -61.5 -67.5t-62.5 -66.5h-43z" />
    <glyph glyph-name="thorn" unicode="&#xfe;" horiz-adv-x="527" 
d="M481 225q0 -49 -18.5 -91.5t-50.5 -74t-74.5 -49.5t-91.5 -18q-56 0 -96 26t-53 64q-2 -10 -2 -19.5t-2 -20.5l-29 -234h-55l118 958h55l-56 -450q23 37 69 65t104 28q41 0 74.5 -13.5t57.5 -37.5t37 -58t13 -75zM421 218q0 59 -36 98t-98 39q-36 0 -68 -13t-56 -36
t-38 -54t-14 -67q0 -30 10 -55t28.5 -44t44 -29.5t55.5 -10.5q36 0 67.5 13.5t55 37t36.5 54.5t13 67z" />
    <glyph glyph-name="ydieresis" unicode="&#xff;" horiz-adv-x="444" 
d="M100 -192h-58q16 27 29.5 50.5t27 47.5t28 50.5t33.5 59.5q-35 92 -66.5 191.5t-66.5 192.5h59q23 -60 39 -108t28.5 -87.5t22 -73.5t20.5 -66q18 32 35.5 66t39.5 73.5t50 87.5t66 108h59zM307 513q0 19 14 32t31 13q14 0 25 -10.5t11 -26.5q0 -20 -15 -32.5t-31 -12.5
q-14 0 -24.5 10t-10.5 27zM128 513q0 19 14 32t31 13q14 0 25 -10.5t11 -26.5q0 -20 -14.5 -32.5t-31.5 -12.5q-14 0 -24.5 10t-10.5 27z" />
    <glyph glyph-name="Amacron" unicode="&#x100;" horiz-adv-x="645" 
d="M597 0q-11 36 -28.5 95.5t-37.5 130.5t-42.5 147.5t-42.5 147.5t-37.5 130t-28.5 96q-20 -37 -52 -96t-69.5 -130t-78.5 -147.5t-78.5 -147.5t-69.5 -130.5t-52 -95.5h68q25 46 60.5 113t73.5 142h274q20 -75 39 -142t33 -113h69zM348 572q2 4 6.5 13.5t7.5 17.5
q2 -8 3.5 -17.5t2.5 -13.5q14 -47 33 -115t40 -143h-228q38 75 73.5 143t61.5 115zM267 771l4 39h232l-4 -39h-232z" />
    <glyph glyph-name="amacron" unicode="&#x101;" horiz-adv-x="527" 
d="M27 177q0 47 19.5 89.5t52.5 74t75.5 50t88.5 18.5q30 0 55 -8t44 -21.5t31 -30t17 -32.5l14 83h51l-49 -400h-55l5 41q2 11 3 21t3 19q-9 -17 -25 -32.5t-38 -28.5t-49 -20.5t-58 -7.5q-42 0 -76 14.5t-58 39.5t-37.5 59t-13.5 72zM82 185q0 -30 10 -55t28.5 -44
t44 -29.5t56.5 -10.5q36 0 68 13.5t56 36.5t38 54.5t14 66.5q0 29 -10 54.5t-28 44t-43.5 29t-56.5 10.5q-36 0 -68 -13t-56 -36t-38.5 -54t-14.5 -67zM180 487l5 39h232l-5 -39h-232z" />
    <glyph glyph-name="Abreve" unicode="&#x102;" horiz-adv-x="645" 
d="M597 0q-11 36 -28.5 95.5t-37.5 130.5t-42.5 147.5t-42.5 147.5t-37.5 130t-28.5 96q-20 -37 -52 -96t-69.5 -130t-78.5 -147.5t-78.5 -147.5t-69.5 -130.5t-52 -95.5h68q25 46 60.5 113t73.5 142h274q20 -75 39 -142t33 -113h69zM348 572q2 4 6.5 13.5t7.5 17.5
q2 -8 3.5 -17.5t2.5 -13.5q14 -47 33 -115t40 -143h-228q38 75 73.5 143t61.5 115zM383 762q-33 0 -61 12t-47.5 33t-29 50t-6.5 62h34q-3 -26 4.5 -48t22.5 -39t37.5 -26.5t49.5 -9.5q28 0 52 9.5t42.5 26.5t30.5 39t16 48h35q-4 -33 -20.5 -62t-41 -50t-55 -33t-63.5 -12z
" />
    <glyph glyph-name="abreve" unicode="&#x103;" horiz-adv-x="527" 
d="M27 177q0 47 19.5 89.5t52.5 74t75.5 50t88.5 18.5q30 0 55 -8t44 -21.5t31 -30t17 -32.5l14 83h51l-49 -400h-55l5 41q2 11 3 21t3 19q-9 -17 -25 -32.5t-38 -28.5t-49 -20.5t-58 -7.5q-42 0 -76 14.5t-58 39.5t-37.5 59t-13.5 72zM82 185q0 -30 10 -55t28.5 -44
t44 -29.5t56.5 -10.5q36 0 68 13.5t56 36.5t38 54.5t14 66.5q0 29 -10 54.5t-28 44t-43.5 29t-56.5 10.5q-36 0 -68 -13t-56 -36t-38.5 -54t-14.5 -67zM298 500q-33 0 -60.5 12t-47 33t-29 50t-6.5 62h34q-3 -26 4.5 -48t22.5 -39t37.5 -26.5t49.5 -9.5q28 0 52 9.5
t42.5 26.5t30.5 39t16 48h35q-4 -33 -20.5 -62t-41.5 -50t-55.5 -33t-63.5 -12z" />
    <glyph glyph-name="Aogonek" unicode="&#x104;" horiz-adv-x="644" 
d="M566 0l-3 -28q-2 -19 -16.5 -29.5t-30.5 -21t-29 -24.5t-13 -40q0 -23 13 -38.5t38 -15.5q21 0 37 11.5t24 29.5q8 -4 16.5 -8t16.5 -9q-16 -35 -44.5 -52t-60.5 -17q-41 0 -63.5 25t-22.5 65q0 26 11.5 49.5t39.5 41.5q7 4 14.5 8t14.5 9.5t12 14t7 22.5l1 7h-1
q-14 46 -33 113t-39 142h-274q-38 -75 -73.5 -142t-60.5 -113h-68q20 36 52 95.5t69.5 130.5t78.5 147.5t78.5 147.5t69.5 130t52 96q11 -37 28.5 -96t37.5 -130t42.5 -147.5t42.5 -147.5t37.5 -130.5t28.5 -95.5h-30zM347 572q-26 -47 -61.5 -115t-73.5 -143h228
q-21 75 -40 143t-33 115q-1 4 -2.5 13.5t-3.5 17.5q-3 -8 -7.5 -17.5t-6.5 -13.5z" />
    <glyph glyph-name="aogonek" unicode="&#x105;" horiz-adv-x="527" 
d="M27 177q0 47 19.5 89.5t52.5 74t75.5 50t88.5 18.5q30 0 55 -8t44 -21.5t31 -30t17 -32.5l14 83h51l-49 -400h-55l5 41q2 11 3 21t3 19q-9 -17 -25 -32.5t-38 -28.5t-49 -20.5t-58 -7.5q-42 0 -76 14.5t-58 39.5t-37.5 59t-13.5 72zM82 185q0 -30 10 -55t28.5 -44
t44 -29.5t56.5 -10.5q36 0 68 13.5t56 36.5t38 54.5t14 66.5q0 29 -10 54.5t-28 44t-43.5 29t-56.5 10.5q-36 0 -68 -13t-56 -36t-38.5 -54t-14.5 -67zM410 0h-38l-1 -7q-2 -14 -7 -22.5t-12 -14t-14.5 -9.5t-14.5 -8q-28 -18 -39.5 -41.5t-11.5 -49.5q0 -40 22.5 -65
t63.5 -25q32 0 60.5 17t44.5 52q-8 5 -16.5 9t-16.5 8q-8 -18 -24 -29.5t-37 -11.5q-25 0 -38 15.5t-13 38.5q0 26 13 40t29 24.5t30.5 21t16.5 29.5z" />
    <glyph glyph-name="Cacute" unicode="&#x106;" horiz-adv-x="643" 
d="M590 48q-35 -20 -90 -38t-125 -18q-76 0 -135 25.5t-100 69t-62.5 102t-21.5 123.5q0 87 34.5 162t92 130t132.5 86.5t157 31.5q27 0 54.5 -3.5t51.5 -10.5t44 -16t33 -20q-6 -8 -9.5 -13t-7 -10.5t-8.5 -12.5t-12 -18q-29 20 -70.5 30t-80.5 10q-68 0 -130 -27
t-109 -72.5t-74.5 -105.5t-27.5 -126q0 -53 18 -101t51.5 -84.5t82 -58t108.5 -21.5q29 0 56.5 4.5t51.5 12t42.5 15.5t29.5 16zM412 760l108 134h59q-31 -34 -62 -67.5t-62 -66.5h-43z" />
    <glyph glyph-name="cacute" unicode="&#x107;" horiz-adv-x="412" 
d="M323 79l29 -41q-30 -22 -65 -34t-73 -12q-41 0 -75 14.5t-59 40t-39 59.5t-14 73q0 47 19.5 89t52.5 73.5t76 49.5t90 18q38 0 70.5 -12t57.5 -34q-10 -11 -20 -20.5t-20 -20.5q-38 33 -94 33q-36 0 -68.5 -13.5t-56.5 -36.5t-38 -54t-14 -67q0 -29 10 -54.5t28.5 -44
t44 -29t56.5 -10.5q29 0 54.5 8.5t47.5 24.5zM220 483l108 134h59q-31 -34 -61.5 -67.5t-62.5 -66.5h-43z" />
    <glyph glyph-name="Ccircumflex" unicode="&#x108;" horiz-adv-x="643" 
d="M590 48q-35 -20 -90 -38t-125 -18q-76 0 -135 25.5t-100 69t-62.5 102t-21.5 123.5q0 87 34.5 162t92 130t132.5 86.5t157 31.5q27 0 54.5 -3.5t51.5 -10.5t44 -16t33 -20q-6 -8 -9.5 -13t-7 -10.5t-8.5 -12.5t-12 -18q-29 20 -70.5 30t-80.5 10q-68 0 -130 -27
t-109 -72.5t-74.5 -105.5t-27.5 -126q0 -53 18 -101t51.5 -84.5t82 -58t108.5 -21.5q29 0 56.5 4.5t51.5 12t42.5 15.5t29.5 16zM486 942q25 -45 49 -91t50 -91h-44q-6 12 -14.5 26t-17 29t-17 29.5t-14.5 25.5q-9 -11 -21 -25.5t-25 -29.5t-25 -29t-21 -26h-43z" />
    <glyph glyph-name="ccircumflex" unicode="&#x109;" horiz-adv-x="412" 
d="M323 79l29 -41q-30 -22 -65 -34t-73 -12q-41 0 -75 14.5t-59 40t-39 59.5t-14 73q0 47 19.5 89t52.5 73.5t76 49.5t90 18q38 0 70.5 -12t57.5 -34q-10 -11 -20 -20.5t-20 -20.5q-38 33 -94 33q-36 0 -68.5 -13.5t-56.5 -36.5t-38 -54t-14 -67q0 -29 10 -54.5t28.5 -44
t44 -29t56.5 -10.5q29 0 54.5 8.5t47.5 24.5zM290 664q24 -45 48.5 -91t49.5 -91h-44q-6 12 -14.5 26t-17 29t-17 29.5t-14.5 25.5q-9 -11 -21 -25.5t-25 -29.5t-25 -29t-21 -26h-43z" />
    <glyph glyph-name="Cdotaccent" unicode="&#x10a;" horiz-adv-x="643" 
d="M590 48q-35 -20 -90 -38t-125 -18q-76 0 -135 25.5t-100 69t-62.5 102t-21.5 123.5q0 87 34.5 162t92 130t132.5 86.5t157 31.5q27 0 54.5 -3.5t51.5 -10.5t44 -16t33 -20q-6 -8 -9.5 -13t-7 -10.5t-8.5 -12.5t-12 -18q-29 20 -70.5 30t-80.5 10q-68 0 -130 -27
t-109 -72.5t-74.5 -105.5t-27.5 -126q0 -53 18 -101t51.5 -84.5t82 -58t108.5 -21.5q29 0 56.5 4.5t51.5 12t42.5 15.5t29.5 16zM423 795q0 19 14.5 31.5t30.5 12.5q14 0 24 -10t10 -26q0 -20 -13.5 -32t-30.5 -12q-14 0 -24.5 9.5t-10.5 26.5z" />
    <glyph glyph-name="cdotaccent" unicode="&#x10b;" horiz-adv-x="412" 
d="M323 79l29 -41q-30 -22 -65 -34t-73 -12q-41 0 -75 14.5t-59 40t-39 59.5t-14 73q0 47 19.5 89t52.5 73.5t76 49.5t90 18q38 0 70.5 -12t57.5 -34q-10 -11 -20 -20.5t-20 -20.5q-38 33 -94 33q-36 0 -68.5 -13.5t-56.5 -36.5t-38 -54t-14 -67q0 -29 10 -54.5t28.5 -44
t44 -29t56.5 -10.5q29 0 54.5 8.5t47.5 24.5zM243 541q0 19 14 31.5t31 12.5q14 0 24 -10t10 -26q0 -20 -13.5 -32t-30.5 -12q-14 0 -24.5 9.5t-10.5 26.5z" />
    <glyph glyph-name="Ccaron" unicode="&#x10c;" horiz-adv-x="643" 
d="M590 48q-35 -20 -90 -38t-125 -18q-76 0 -135 25.5t-100 69t-62.5 102t-21.5 123.5q0 87 34.5 162t92 130t132.5 86.5t157 31.5q27 0 54.5 -3.5t51.5 -10.5t44 -16t33 -20q-6 -8 -9.5 -13t-7 -10.5t-8.5 -12.5t-12 -18q-29 20 -70.5 30t-80.5 10q-68 0 -130 -27
t-109 -72.5t-74.5 -105.5t-27.5 -126q0 -53 18 -101t51.5 -84.5t82 -58t108.5 -21.5q29 0 56.5 4.5t51.5 12t42.5 15.5t29.5 16zM369 919h43l64 -110l91 110h44q-37 -45 -72.5 -91t-71.5 -91z" />
    <glyph glyph-name="ccaron" unicode="&#x10d;" horiz-adv-x="412" 
d="M323 79l29 -41q-30 -22 -65 -34t-73 -12q-41 0 -75 14.5t-59 40t-39 59.5t-14 73q0 47 19.5 89t52.5 73.5t76 49.5t90 18q38 0 70.5 -12t57.5 -34q-10 -11 -20 -20.5t-20 -20.5q-38 33 -94 33q-36 0 -68.5 -13.5t-56.5 -36.5t-38 -54t-14 -67q0 -29 10 -54.5t28.5 -44
t44 -29t56.5 -10.5q29 0 54.5 8.5t47.5 24.5zM170 665h43l64 -110l91 110h44q-37 -45 -72.5 -91t-71.5 -91z" />
    <glyph glyph-name="Dcaron" unicode="&#x10e;" horiz-adv-x="713" 
d="M156 714h166q97 0 164.5 -28.5t109 -74t60 -103.5t18.5 -116q0 -89 -34 -161.5t-90 -123.5t-129 -79t-152 -28h-201zM270 65q68 0 129 22.5t107 64.5t73 102t27 135q0 55 -18.5 102.5t-53.5 82.5t-85 54.5t-114 19.5h-118l-72 -583h125zM292 919h43l64 -110l91 110h44
q-37 -45 -72.5 -91t-71.5 -91z" />
    <glyph glyph-name="dcaron" unicode="&#x10f;" horiz-adv-x="528" 
d="M28 177q0 49 19 91.5t51 73.5t74 49t89 18q31 0 56 -8t44 -21t31.5 -30t18.5 -34l55 450h55l-94 -766h-55l5 41q2 11 4 21.5t3 20.5q-25 -37 -70 -64t-105 -27q-42 0 -75.5 14.5t-57 39.5t-36 58.5t-12.5 72.5zM83 184q0 -29 10 -54.5t28.5 -44t44 -29t56.5 -10.5
q36 0 68 13.5t56 36.5t38 54t14 67q0 29 -10 54.5t-28.5 44t-44 29t-55.5 10.5q-36 0 -68.5 -13t-56.5 -36.5t-38 -54.5t-14 -67zM576 573l-26 22q24 20 37 50t11 65l41 7q3 -42 -14 -79.5t-49 -64.5z" />
    <glyph glyph-name="Dcroat" unicode="&#x110;" horiz-adv-x="720" 
d="M60 406h65l38 308h166q97 0 164.5 -28.5t109 -74t60 -103.5t18.5 -116q0 -89 -34 -161.5t-90 -123.5t-129 -79t-152 -28h-201l44 358h-65zM277 65q68 0 129 22.5t107 64.5t73 102t27 135q0 55 -18.5 102.5t-53.5 82.5t-85 54.5t-114 19.5h-118l-30 -242h158l-6 -48h-158
l-36 -293h125z" />
    <glyph glyph-name="dcroat" unicode="&#x111;" horiz-adv-x="528" 
d="M28 177q0 49 19 91.5t51 73.5t74 49t89 18q31 0 56 -8t44 -21t31.5 -30t18.5 -34l36 294h55l-75 -610h-55l5 41q2 11 4 21.5t3 20.5q-25 -37 -70 -64t-105 -27q-42 0 -75.5 14.5t-57 39.5t-36 58.5t-12.5 72.5zM83 184q0 -29 10 -54.5t28.5 -44t44 -29t56.5 -10.5
q36 0 68 13.5t56 36.5t38 54t14 67q0 29 -10 54.5t-28.5 44t-44 29t-55.5 10.5q-36 0 -68.5 -13t-56.5 -36.5t-38 -54.5t-14 -67zM272 610h175l6 48h-175zM466 766h55l-13 -108h-55zM564 610l6 48h-62l-6 -48h62z" />
    <glyph glyph-name="Emacron" unicode="&#x112;" horiz-adv-x="611" 
d="M68 0l88 714h450l-8 -62h-382l-32 -261h342l-8 -64h-342l-32 -263h396l-8 -64h-464zM275 763l4 39h232l-4 -39h-232z" />
    <glyph glyph-name="emacron" unicode="&#x113;" horiz-adv-x="454" 
d="M370 48q-32 -26 -73 -41t-83 -15q-41 0 -75 14.5t-59 40t-39 59.5t-14 73q0 47 19.5 89t52.5 73.5t75.5 50t88.5 18.5q66 0 110 -39.5t59 -102.5q-35 -13 -78.5 -29.5t-89.5 -34t-91 -35t-84 -32.5q13 -41 47.5 -66t82.5 -25q32 0 62 11t53 30zM365 282
q-13 34 -41.5 53.5t-66.5 19.5q-35 0 -66.5 -13.5t-55.5 -37t-38 -53.5t-14 -63v-14q33 13 69.5 27t73.5 28.5t73 28t66 24.5zM157 487l5 39h232l-5 -39h-232z" />
    <glyph glyph-name="Edotaccent" unicode="&#x116;" horiz-adv-x="611" 
d="M68 0l88 714h450l-8 -62h-382l-32 -261h342l-8 -64h-342l-32 -263h396l-8 -64h-464zM360 795q0 19 14.5 31.5t30.5 12.5q14 0 24 -10t10 -26q0 -20 -13.5 -32t-30.5 -12q-14 0 -24.5 9.5t-10.5 26.5z" />
    <glyph glyph-name="edotaccent" unicode="&#x117;" horiz-adv-x="454" 
d="M370 48q-32 -26 -73 -41t-83 -15q-41 0 -75 14.5t-59 40t-39 59.5t-14 73q0 47 19.5 89t52.5 73.5t75.5 50t88.5 18.5q66 0 110 -39.5t59 -102.5q-35 -13 -78.5 -29.5t-89.5 -34t-91 -35t-84 -32.5q13 -41 47.5 -66t82.5 -25q32 0 62 11t53 30zM365 282
q-13 34 -41.5 53.5t-66.5 19.5q-35 0 -66.5 -13.5t-55.5 -37t-38 -53.5t-14 -63v-14q33 13 69.5 27t73.5 28.5t73 28t66 24.5zM236 541q0 19 14 31.5t31 12.5q14 0 24 -10t10 -26q0 -20 -13.5 -32t-30.5 -12q-14 0 -24.5 9.5t-10.5 26.5z" />
    <glyph glyph-name="Eogonek" unicode="&#x118;" horiz-adv-x="611" 
d="M532 0h-464l88 714h450l-8 -62h-382l-32 -261h342l-8 -64h-342l-32 -263h396zM531 0h-38l-1 -7q-2 -14 -7 -22.5t-12 -14t-14.5 -9.5t-14.5 -8q-28 -18 -39.5 -41.5t-11.5 -49.5q0 -40 22.5 -65t63.5 -25q32 0 60.5 17t44.5 52q-8 5 -16.5 9t-16.5 8q-8 -18 -24 -29.5
t-37 -11.5q-25 0 -38 15.5t-13 38.5q0 26 13 40t29 24.5t30.5 21t16.5 29.5z" />
    <glyph glyph-name="eogonek" unicode="&#x119;" horiz-adv-x="454" 
d="M234 0h-38l-1 -7q-37 3 -67.5 18.5t-53 40.5t-35 57.5t-12.5 69.5q0 47 19.5 89t52.5 73.5t75.5 50t88.5 18.5q66 0 110 -39.5t59 -102.5q-35 -13 -78.5 -29.5t-89.5 -34t-91 -35t-84 -32.5q13 -41 47.5 -66t82.5 -25q32 0 62 11t53 30l36 -39q-29 -23 -64 -37.5
t-73 -17.5zM365 282q-13 34 -41.5 53.5t-66.5 19.5q-35 0 -66.5 -13.5t-55.5 -37t-38 -53.5t-14 -63v-14q33 13 69.5 27t73.5 28.5t73 28t66 24.5zM214 -8h-9.5t-9.5 1q-2 -14 -7 -22.5t-12 -14t-14.5 -9.5t-14.5 -8q-28 -18 -39.5 -41.5t-11.5 -49.5q0 -40 22.5 -65
t63.5 -25q32 0 60.5 17t44.5 52q-8 5 -16.5 9t-16.5 8q-8 -18 -24 -29.5t-37 -11.5q-25 0 -38 15.5t-13 38.5q0 26 13 40.5t29 24.5t30 20.5t17 29.5l3 21q-5 -1 -10 -1h-10z" />
    <glyph glyph-name="Ecaron" unicode="&#x11a;" horiz-adv-x="611" 
d="M68 0l88 714h450l-8 -62h-382l-32 -261h342l-8 -64h-342l-32 -263h396l-8 -64h-464zM309 919h43l64 -110l91 110h44q-37 -45 -72.5 -91t-71.5 -91z" />
    <glyph glyph-name="ecaron" unicode="&#x11b;" horiz-adv-x="454" 
d="M370 48q-32 -26 -73 -41t-83 -15q-41 0 -75 14.5t-59 40t-39 59.5t-14 73q0 47 19.5 89t52.5 73.5t75.5 50t88.5 18.5q66 0 110 -39.5t59 -102.5q-35 -13 -78.5 -29.5t-89.5 -34t-91 -35t-84 -32.5q13 -41 47.5 -66t82.5 -25q32 0 62 11t53 30zM365 282
q-13 34 -41.5 53.5t-66.5 19.5q-35 0 -66.5 -13.5t-55.5 -37t-38 -53.5t-14 -63v-14q33 13 69.5 27t73.5 28.5t73 28t66 24.5zM162 665h43l64 -110l91 110h44q-37 -45 -72.5 -91t-71.5 -91z" />
    <glyph glyph-name="Gcircumflex" unicode="&#x11c;" horiz-adv-x="683" 
d="M623 327l-34 -284q-44 -24 -98 -37.5t-111 -13.5q-77 0 -137 24t-102 66.5t-64 100.5t-22 125q0 88 35 164t93 131.5t134 87t157 31.5q51 0 102 -13t89 -38l-41 -56q-31 20 -74 31.5t-85 11.5q-65 0 -126.5 -26.5t-109 -72.5t-76.5 -107.5t-29 -130.5q0 -54 18.5 -102
t52.5 -84t83 -57t110 -21q33 0 70.5 7.5t72.5 22.5l22 180h-154l7 60h217zM490 942q25 -45 49 -91t50 -91h-44q-7 12 -15.5 26t-17 29t-17 29.5t-14.5 25.5q-9 -11 -21 -25.5t-24.5 -29.5t-24.5 -29t-21 -26h-43z" />
    <glyph glyph-name="gcircumflex" unicode="&#x11d;" horiz-adv-x="528" 
d="M28 177q0 49 19 91t51 73.5t74 49.5t88 18q33 0 59 -9t45 -22.5t31 -29.5t16 -31q2 20 6.5 41t7.5 42h51l-48 -393q-5 -43 -22.5 -79.5t-47 -63t-71.5 -41.5t-96 -15q-57 0 -96.5 21t-78.5 62l40 38q35 -38 68.5 -53t71.5 -15q84 0 125 39.5t50 103.5q2 8 2.5 14t3.5 23
q0 3 1.5 9.5t2.5 14t2.5 14t1.5 8.5q-23 -38 -68.5 -66.5t-106.5 -28.5q-41 0 -74.5 14t-57.5 39t-37 59t-13 73zM83 184q0 -29 10 -54.5t28.5 -44t44 -29t56.5 -10.5q36 0 68 13.5t56 36.5t38 54t14 67q0 29 -10 54.5t-28.5 44t-44 29t-55.5 10.5q-36 0 -68.5 -13
t-56.5 -36.5t-38 -54.5t-14 -67zM305 665q24 -45 48.5 -91t49.5 -91h-44q-6 12 -14.5 26t-17 29t-17 29.5t-14.5 25.5q-9 -11 -21 -25.5t-25 -29.5t-25 -29t-21 -26h-43z" />
    <glyph glyph-name="Gbreve" unicode="&#x11e;" horiz-adv-x="683" 
d="M623 327l-34 -284q-44 -24 -98 -37.5t-111 -13.5q-77 0 -137 24t-102 66.5t-64 100.5t-22 125q0 88 35 164t93 131.5t134 87t157 31.5q51 0 102 -13t89 -38l-41 -56q-31 20 -74 31.5t-85 11.5q-65 0 -126.5 -26.5t-109 -72.5t-76.5 -107.5t-29 -130.5q0 -54 18.5 -102
t52.5 -84t83 -57t110 -21q33 0 70.5 7.5t72.5 22.5l22 180h-154l7 60h217zM462 759q-33 0 -61 12t-47.5 33t-29 50t-6.5 62h34q-3 -26 4.5 -48t22.5 -39t37.5 -26.5t49.5 -9.5q28 0 52 9.5t42.5 26.5t30.5 39t16 48h35q-4 -33 -20.5 -62t-41 -50t-55 -33t-63.5 -12z" />
    <glyph glyph-name="gbreve" unicode="&#x11f;" horiz-adv-x="528" 
d="M28 177q0 49 19 91t51 73.5t74 49.5t88 18q33 0 59 -9t45 -22.5t31 -29.5t16 -31q2 20 6.5 41t7.5 42h51l-48 -393q-5 -43 -22.5 -79.5t-47 -63t-71.5 -41.5t-96 -15q-57 0 -96.5 21t-78.5 62l40 38q35 -38 68.5 -53t71.5 -15q84 0 125 39.5t50 103.5q2 8 2.5 14t3.5 23
q0 3 1.5 9.5t2.5 14t2.5 14t1.5 8.5q-23 -38 -68.5 -66.5t-106.5 -28.5q-41 0 -74.5 14t-57.5 39t-37 59t-13 73zM83 184q0 -29 10 -54.5t28.5 -44t44 -29t56.5 -10.5q36 0 68 13.5t56 36.5t38 54t14 67q0 29 -10 54.5t-28.5 44t-44 29t-55.5 10.5q-36 0 -68.5 -13
t-56.5 -36.5t-38 -54.5t-14 -67zM299 500q-33 0 -60.5 12t-47 33t-29 50t-6.5 62h34q-3 -26 4.5 -48t22.5 -39t37.5 -26.5t49.5 -9.5q28 0 52 9.5t42.5 26.5t30.5 39t16 48h35q-4 -33 -20.5 -62t-41.5 -50t-55.5 -33t-63.5 -12z" />
    <glyph glyph-name="Gdotaccent" unicode="&#x120;" horiz-adv-x="683" 
d="M623 327l-34 -284q-44 -24 -98 -37.5t-111 -13.5q-77 0 -137 24t-102 66.5t-64 100.5t-22 125q0 88 35 164t93 131.5t134 87t157 31.5q51 0 102 -13t89 -38l-41 -56q-31 20 -74 31.5t-85 11.5q-65 0 -126.5 -26.5t-109 -72.5t-76.5 -107.5t-29 -130.5q0 -54 18.5 -102
t52.5 -84t83 -57t110 -21q33 0 70.5 7.5t72.5 22.5l22 180h-154l7 60h217zM415 795q0 19 14.5 31.5t30.5 12.5q14 0 24.5 -10t10.5 -26q0 -20 -13.5 -32t-30.5 -12q-14 0 -25 9.5t-11 26.5z" />
    <glyph glyph-name="gdotaccent" unicode="&#x121;" horiz-adv-x="528" 
d="M28 177q0 49 19 91t51 73.5t74 49.5t88 18q33 0 59 -9t45 -22.5t31 -29.5t16 -31q2 20 6.5 41t7.5 42h51l-48 -393q-5 -43 -22.5 -79.5t-47 -63t-71.5 -41.5t-96 -15q-57 0 -96.5 21t-78.5 62l40 38q35 -38 68.5 -53t71.5 -15q84 0 125 39.5t50 103.5q2 8 2.5 14t3.5 23
q0 3 1.5 9.5t2.5 14t2.5 14t1.5 8.5q-23 -38 -68.5 -66.5t-106.5 -28.5q-41 0 -74.5 14t-57.5 39t-37 59t-13 73zM83 184q0 -29 10 -54.5t28.5 -44t44 -29t56.5 -10.5q36 0 68 13.5t56 36.5t38 54t14 67q0 29 -10 54.5t-28.5 44t-44 29t-55.5 10.5q-36 0 -68.5 -13
t-56.5 -36.5t-38 -54.5t-14 -67zM264 541q0 19 14 31.5t31 12.5q14 0 24 -10t10 -26q0 -20 -13.5 -32t-30.5 -12q-14 0 -24.5 9.5t-10.5 26.5z" />
    <glyph glyph-name="uni0122" unicode="&#x122;" horiz-adv-x="683" 
d="M623 327l-34 -284q-44 -24 -98 -37.5t-111 -13.5q-77 0 -137 24t-102 66.5t-64 100.5t-22 125q0 88 35 164t93 131.5t134 87t157 31.5q51 0 102 -13t89 -38l-41 -56q-31 20 -74 31.5t-85 11.5q-65 0 -126.5 -26.5t-109 -72.5t-76.5 -107.5t-29 -130.5q0 -54 18.5 -102
t52.5 -84t83 -57t110 -21q33 0 70.5 7.5t72.5 22.5l22 180h-154l7 60h217zM388 -21l-112 -208h-54q27 53 52.5 104t51.5 104h62z" />
    <glyph glyph-name="uni0123" unicode="&#x123;" horiz-adv-x="528" 
d="M28 177q0 49 19 91t51 73.5t74 49.5t88 18q33 0 59 -9t45 -22.5t31 -29.5t16 -31q2 20 6.5 41t7.5 42h51l-48 -393q-5 -43 -22.5 -79.5t-47 -63t-71.5 -41.5t-96 -15q-57 0 -96.5 21t-78.5 62l40 38q35 -38 68.5 -53t71.5 -15q84 0 125 39.5t50 103.5q2 8 2.5 14t3.5 23
q0 3 1.5 9.5t2.5 14t2.5 14t1.5 8.5q-23 -38 -68.5 -66.5t-106.5 -28.5q-41 0 -74.5 14t-57.5 39t-37 59t-13 73zM83 184q0 -29 10 -54.5t28.5 -44t44 -29t56.5 -10.5q36 0 68 13.5t56 36.5t38 54t14 67q0 29 -10 54.5t-28.5 44t-44 29t-55.5 10.5q-36 0 -68.5 -13
t-56.5 -36.5t-38 -54.5t-14 -67zM259 507l112 208h54q-27 -53 -52.5 -104t-51.5 -104h-62z" />
    <glyph glyph-name="Hcircumflex" unicode="&#x124;" horiz-adv-x="749" 
d="M68 0l88 714h69l-40 -322h406l40 322h70q-4 -35 -11 -91.5t-15.5 -124t-18 -141t-18 -141t-16 -124.5t-11.5 -92h-68l40 327h-406l-40 -327h-69zM457 942q24 -45 48.5 -91t49.5 -91h-44q-6 12 -14.5 26t-17 29t-17 29.5t-14.5 25.5q-9 -11 -21 -25.5t-25 -29.5t-25 -29
t-21 -26h-43z" />
    <glyph glyph-name="hcircumflex" unicode="&#x125;" 
d="M127 766h55l-57 -463q26 46 71 75.5t105 30.5q60 0 91 -33t26 -87l-35 -289h-55l33 270q3 34 -16.5 58t-63.5 26q-32 0 -60.5 -10.5t-51 -29.5t-37 -45t-18.5 -57l-26 -212h-55zM363 942q24 -45 48.5 -91t49.5 -91h-44q-6 12 -14.5 26t-17 29t-17 29.5t-14.5 25.5
q-9 -11 -21 -25.5t-25 -29.5t-25 -29t-21 -26h-43z" />
    <glyph glyph-name="Hbar" unicode="&#x126;" horiz-adv-x="765" 
d="M77 0l62 507h-79l5 39h79l20 168h69l-20 -168h406l20 168h70l-20 -168h76l-5 -39h-76q-9 -68 -18.5 -142.5t-18 -143.5t-16 -127t-11.5 -94h-68l40 327h-406l-40 -327h-69zM600 392l14 115h-406l-14 -115h406z" />
    <glyph glyph-name="hbar" unicode="&#x127;" 
d="M127 766h55l-21 -169h154l-4 -39h-154l-32 -255q26 46 71 75.5t105 30.5q60 0 91 -33t26 -87l-35 -289h-55l33 270q3 34 -16.5 58t-63.5 26q-32 0 -60.5 -10.5t-51 -29.5t-37 -45t-18.5 -57l-26 -212h-55l69 558h-59l4 39h59z" />
    <glyph glyph-name="Itilde" unicode="&#x128;" horiz-adv-x="273" 
d="M156 714h69l-88 -714h-69zM192 793q-14 17 -25 22.5t-25 5.5q-8 0 -17.5 -2t-19 -7.5t-17 -15.5t-11.5 -25l-33 2q4 20 14 35t24 25.5t29.5 15.5t30.5 5q23 0 40 -9t31 -26t24.5 -22.5t24.5 -5.5q7 0 17 2t19.5 7.5t17 15.5t11.5 25l33 -2q-3 -20 -13.5 -35t-24.5 -25.5
t-29.5 -15.5t-30.5 -5q-23 0 -39.5 9.5t-30.5 25.5z" />
    <glyph glyph-name="itilde" unicode="&#x129;" horiz-adv-x="189" 
d="M88 0h-55l49 400h55zM113 499q-14 17 -25 22.5t-25 5.5q-8 0 -17.5 -2t-19 -7.5t-17 -15.5t-11.5 -25l-33 2q4 20 14 35t24 25.5t29.5 15.5t30.5 5q23 0 40 -9t31 -26t24.5 -22.5t24.5 -5.5q7 0 17 2t19.5 7.5t17 15.5t11.5 25l33 -2q-3 -20 -13.5 -35t-24.5 -25.5
t-29.5 -15.5t-30.5 -5q-23 0 -39.5 9.5t-30.5 25.5z" />
    <glyph glyph-name="Imacron" unicode="&#x12a;" horiz-adv-x="273" 
d="M156 714h69l-88 -714h-69zM84 771l4 39h232l-4 -39h-232z" />
    <glyph glyph-name="imacron" unicode="&#x12b;" horiz-adv-x="189" 
d="M88 0h-55l49 400h55zM5 487l5 39h232l-5 -39h-232z" />
    <glyph glyph-name="Iogonek" unicode="&#x12e;" horiz-adv-x="273" 
d="M137 0h-69l88 714h69zM108 0h-38l-1 -7q-2 -14 -7 -22.5t-12 -14t-14.5 -9.5t-14.5 -8q-28 -18 -39.5 -41.5t-11.5 -49.5q0 -40 22.5 -65t63.5 -25q32 0 60.5 17t44.5 52q-8 5 -16.5 9t-16.5 8q-8 -18 -24 -29.5t-37 -11.5q-25 0 -38 15.5t-13 38.5q0 26 13 40t29 24.5
t30.5 21t16.5 29.5z" />
    <glyph glyph-name="iogonek" unicode="&#x12f;" horiz-adv-x="189" 
d="M88 541q0 19 14 31.5t31 12.5q14 0 24 -10t10 -26q0 -20 -13.5 -32t-30.5 -12q-14 0 -24.5 9.5t-10.5 26.5zM88 0h-55l49 400h55zM71 0h-38l-1 -7q-2 -14 -7 -22.5t-12 -14t-14.5 -9.5t-14.5 -8q-28 -18 -39.5 -41.5t-11.5 -49.5q0 -40 22.5 -65t63.5 -25q32 0 60.5 17
t44.5 52q-8 5 -16.5 9t-16.5 8q-8 -18 -24 -29.5t-37 -11.5q-25 0 -38 15.5t-13 38.5q0 26 13 40t29 24.5t30 21t17 29.5z" />
    <glyph glyph-name="Idotaccent" unicode="&#x130;" horiz-adv-x="273" 
d="M156 714h69l-88 -714h-69zM160 799q0 19 15 31.5t31 12.5q14 0 24 -10t10 -26q0 -20 -13.5 -32t-30.5 -12q-14 0 -25 9.5t-11 26.5z" />
    <glyph glyph-name="dotlessi" unicode="&#x131;" horiz-adv-x="189" 
d="M88 0h-55l49 400h55z" />
    <glyph glyph-name="Jcircumflex" unicode="&#x134;" horiz-adv-x="298" 
d="M-87 -146l8 64q36 2 67.5 15.5t56.5 38.5t42 62t23 85l73 595h68l-73 -598q-8 -62 -31.5 -110.5t-59 -81.5t-80.5 -51t-94 -19zM245 942q24 -45 48.5 -91t49.5 -91h-44q-6 12 -14.5 26t-17 29t-17 29.5t-14.5 25.5q-9 -11 -21 -25.5t-25 -29.5t-25 -29t-21 -26h-43z" />
    <glyph glyph-name="jcircumflex" unicode="&#x135;" horiz-adv-x="189" 
d="M-9 -192q-17 19 -34 40q30 26 50 62.5t26 86.5l49 403h55l-49 -403q-8 -63 -33.5 -110.5t-63.5 -78.5zM142 664q25 -45 49 -91t50 -91h-44q-6 12 -14.5 26t-17 29t-17 29.5t-15.5 25.5q-9 -11 -21 -25.5t-24.5 -29.5t-24.5 -29t-21 -26h-43z" />
    <glyph glyph-name="uni0136" unicode="&#x136;" horiz-adv-x="622" 
d="M503 0q-63 95 -121 184.5t-122 185.5q-20 -18 -40 -35t-41 -34q-10 -78 -18 -150.5t-18 -150.5h-75l88 714h75l-37 -300q-1 -8 -3 -16t-4 -17q5 7 11 12t11 12q89 75 175.5 154t176.5 155h88q-82 -74 -164.5 -148.5t-165.5 -148.5q71 -107 135.5 -208.5t134.5 -208.5h-86
zM345 -21l-111 -208h-54q26 53 51.5 104t51.5 104h62z" />
    <glyph glyph-name="uni0137" unicode="&#x137;" horiz-adv-x="409" 
d="M354 410l29 -34q-43 -35 -81 -68.5t-81 -68.5l145 -239h-64l-124 202l-73 -60l-17 -142h-55l94 766h55l-68 -558q62 52 120 100.5t120 101.5zM244 -21l-111 -208h-54q26 53 51.5 104t51.5 104h62z" />
    <glyph glyph-name="Lacute" unicode="&#x139;" horiz-adv-x="561" 
d="M68 0l88 714h68l-80 -649h380l-8 -65h-448zM327 760l108 134h59q-31 -34 -61.5 -67.5t-62.5 -66.5h-43z" />
    <glyph glyph-name="lacute" unicode="&#x13a;" horiz-adv-x="193" 
d="M90 0h-55l94 766h55zM120 784l108 134h59q-31 -34 -61.5 -67.5t-62.5 -66.5h-43z" />
    <glyph glyph-name="uni013B" unicode="&#x13b;" horiz-adv-x="561" 
d="M68 0l88 714h68l-80 -649h380l-8 -65h-448zM350 -21l-111 -208h-54q26 53 51.5 104t51.5 104h62z" />
    <glyph glyph-name="uni013C" unicode="&#x13c;" horiz-adv-x="193" 
d="M90 0h-55l94 766h55zM101 -21l-112 -208h-54q27 53 52.5 104t51.5 104h62z" />
    <glyph glyph-name="Lcaron" unicode="&#x13d;" horiz-adv-x="561" 
d="M68 0l88 714h68l-80 -649h380l-8 -65h-448zM366 573l-26 22q24 20 37 50t11 65l41 7q3 -42 -14 -79.5t-49 -64.5z" />
    <glyph glyph-name="lcaron" unicode="&#x13e;" horiz-adv-x="193" 
d="M90 0h-55l94 766h55zM239 573l-26 22q24 20 37 50t11 65l41 7q3 -42 -14 -79.5t-49 -64.5z" />
    <glyph glyph-name="Lslash" unicode="&#x141;" horiz-adv-x="569" 
d="M76 0l35 280l-74 -23l7 57l74 23l46 377h68l-43 -354l229 74l-7 -57l-229 -74l-30 -238h380l-8 -65h-448z" />
    <glyph glyph-name="lslash" unicode="&#x142;" horiz-adv-x="218" 
d="M96 0h-55l34 274l-54 -17l7 57l54 17l53 435h55l-51 -416l76 25l-7 -57l-76 -25z" />
    <glyph glyph-name="Nacute" unicode="&#x143;" horiz-adv-x="811" 
d="M763 714l-92 -747q-24 35 -61 83.5t-80 103.5t-88.5 112.5t-87.5 112.5t-76.5 102.5t-56.5 82.5q-2 4 -7.5 11.5t-9.5 14.5v-32l-69 -558h-68l92 747q24 -37 60.5 -85t79 -102t87.5 -111t87 -110.5t78 -101t59 -82.5q2 -5 7 -12.5t9 -14.5l1 33l68 553h68zM429 760
l108 134h59q-31 -34 -61.5 -67.5t-62.5 -66.5h-43z" />
    <glyph glyph-name="nacute" unicode="&#x144;" 
d="M82 400h47l-8 -103q29 50 75.5 81t106.5 31q59 0 89.5 -33t25.5 -87l-35 -289h-55l33 270q3 34 -16.5 58t-63.5 26q-32 0 -60.5 -10.5t-51 -29.5t-37 -45t-18.5 -57l-26 -212h-55zM238 483l108 134h59q-31 -34 -61.5 -67.5t-62.5 -66.5h-43z" />
    <glyph glyph-name="uni0145" unicode="&#x145;" horiz-adv-x="812" 
d="M764 714l-92 -747q-24 35 -61 83.5t-80 103.5t-88.5 112.5t-87.5 112.5t-76.5 102.5t-56.5 82.5q-2 4 -7.5 11.5t-9.5 14.5v-32l-69 -558h-68l92 747q24 -37 60.5 -85t79 -102t87.5 -111t87 -110.5t78 -101t59 -82.5q2 -5 7 -12.5t9 -14.5l1 33l68 553h68zM397 -21
l-111 -208h-54q26 53 51.5 104t51.5 104h62z" />
    <glyph glyph-name="uni0146" unicode="&#x146;" 
d="M82 400h47l-8 -103q29 50 75.5 81t106.5 31q59 0 89.5 -33t25.5 -87l-35 -289h-55l33 270q3 34 -16.5 58t-63.5 26q-32 0 -60.5 -10.5t-51 -29.5t-37 -45t-18.5 -57l-26 -212h-55zM244 -21l-111 -208h-54q26 53 51.5 104t51.5 104h62z" />
    <glyph glyph-name="Ncaron" unicode="&#x147;" horiz-adv-x="812" 
d="M764 714l-92 -747q-24 35 -61 83.5t-80 103.5t-88.5 112.5t-87.5 112.5t-76.5 102.5t-56.5 82.5q-2 4 -7.5 11.5t-9.5 14.5v-32l-69 -558h-68l92 747q24 -37 60.5 -85t79 -102t87.5 -111t87 -110.5t78 -101t59 -82.5q2 -5 7 -12.5t9 -14.5l1 33l68 553h68zM362 919h43
l64 -110l91 110h44q-37 -45 -72.5 -91t-71.5 -91z" />
    <glyph glyph-name="ncaron" unicode="&#x148;" 
d="M82 400h47l-8 -103q29 50 75.5 81t106.5 31q59 0 89.5 -33t25.5 -87l-35 -289h-55l33 270q3 34 -16.5 58t-63.5 26q-32 0 -60.5 -10.5t-51 -29.5t-37 -45t-18.5 -57l-26 -212h-55zM173 665h43l64 -110l91 110h44q-37 -45 -72.5 -91t-71.5 -91z" />
    <glyph glyph-name="Omacron" unicode="&#x14c;" horiz-adv-x="826" 
d="M58 356q9 75 46 141.5t92.5 116.5t125.5 79t145 29q70 0 129 -26t102 -71t67.5 -105t24.5 -128q0 -82 -34 -154.5t-91.5 -127t-132 -86.5t-155.5 -32q-75 0 -138 28.5t-106.5 78t-63.5 116t-11 141.5zM126 356q-8 -62 8.5 -116.5t52 -95t86.5 -64t112 -23.5q66 0 127 26
t107.5 71t74.5 105t28 127q0 56 -20 105.5t-55 86t-83 57.5t-105 21q-62 0 -118.5 -23.5t-102 -64.5t-75.5 -95.5t-37 -116.5zM360 771l4 39h232l-4 -39h-232z" />
    <glyph glyph-name="omacron" unicode="&#x14d;" horiz-adv-x="495" 
d="M28 200q5 43 26 81.5t53 67t72.5 45t84.5 16.5q41 0 75 -14.5t58.5 -40t38 -60t13.5 -73.5q0 -47 -19 -89t-51.5 -73.5t-75.5 -49.5t-91 -18q-44 0 -80 15.5t-61 43.5t-37 66t-6 83zM83 200q-4 -32 4.5 -60t26.5 -49t45 -33t59 -12q35 0 66.5 13.5t55.5 36.5t38.5 54
t14.5 66q0 29 -10.5 54.5t-28.5 44t-43 29.5t-55 11q-32 0 -62 -12t-53 -33t-38.5 -49.5t-19.5 -60.5zM161 487l5 39h232l-5 -39h-232z" />
    <glyph glyph-name="Ohungarumlaut" unicode="&#x150;" horiz-adv-x="827" 
d="M56 319q0 81 34 154.5t91 128.5t131.5 87.5t155.5 32.5q70 0 129 -26t102 -71t67.5 -105t24.5 -128q0 -82 -34 -154.5t-91.5 -127t-132 -86.5t-155.5 -32q-70 0 -129 25.5t-102 69.5t-67 104t-24 128zM124 326q0 -56 19.5 -105t54.5 -85.5t83 -57.5t105 -21q66 0 127 26
t107.5 71t74.5 105t28 127q0 56 -20 105.5t-55 86t-83 57.5t-105 21q-66 0 -127 -26.5t-107.5 -71.5t-74 -105t-27.5 -127zM554 758q27 33 54 66.5t54 67.5h60q-31 -34 -62 -67.5t-62 -66.5h-44zM335 758l108 134h59q-31 -34 -62 -67.5t-62 -66.5h-43z" />
    <glyph glyph-name="ohungarumlaut" unicode="&#x151;" horiz-adv-x="496" 
d="M27 178q0 48 19.5 90t52 73.5t75.5 50t91 18.5q41 0 75 -14.5t58.5 -40t38 -60t13.5 -73.5q0 -47 -19 -89t-51.5 -73.5t-75.5 -49.5t-91 -18q-40 0 -74 14t-59 38.5t-39 58.5t-14 75zM82 184q0 -29 10.5 -54.5t28.5 -44t43 -29t55 -10.5q35 0 66.5 13.5t55.5 36.5
t38.5 54t14.5 66q0 29 -10.5 54.5t-28.5 44t-43 29.5t-55 11q-35 0 -66.5 -13.5t-55.5 -37t-38.5 -54.5t-14.5 -66zM343 483q28 33 54.5 66.5t53.5 67.5h60q-31 -34 -61.5 -67.5t-62.5 -66.5h-44zM124 483l108 134h59q-31 -34 -61.5 -67.5t-62.5 -66.5h-43z" />
    <glyph glyph-name="OE" unicode="&#x152;" horiz-adv-x="950" 
d="M378 -8q-70 0 -129 25.5t-102 69.5t-67 104t-24 128q0 81 34 154.5t91 128.5t131.5 87.5t155.5 32.5q37 0 75 -8h402l-8 -62h-351l-32 -261h311l-8 -64h-311l-32 -263h365l-8 -64h-415q-20 -4 -39 -6t-39 -2zM460 656q-66 0 -127 -26.5t-107.5 -71.5t-74 -105t-27.5 -127
q0 -56 19.5 -105t54.5 -85.5t83 -57.5t105 -21q15 0 29.5 1t29.5 4l72 588q-29 6 -57 6z" />
    <glyph glyph-name="oe" unicode="&#x153;" horiz-adv-x="689" 
d="M606 48q-32 -26 -73 -41t-83 -15q-33 0 -62 9t-52 26q-27 -17 -58.5 -26t-64.5 -9q-40 0 -74 14t-59 38.5t-39 58.5t-14 75q0 48 19.5 90t52 73.5t75.5 50t91 18.5q33 0 62 -9.5t52 -26.5q27 17 57.5 26.5t62.5 9.5q66 0 110 -39.5t59 -102.5q-35 -13 -78.5 -29.5
t-89.5 -34t-91 -35t-84 -32.5q13 -41 47.5 -66t82.5 -25q32 0 62 11t53 30zM257 355q-35 0 -66.5 -13.5t-55.5 -37t-38.5 -54.5t-14.5 -66q0 -29 10.5 -54.5t28.5 -44t43 -29t55 -10.5q42 0 78 19q-17 23 -25.5 52.5t-8.5 60.5q0 45 18 85t49 72q-15 9 -34 14.5t-39 5.5z
M601 282q-13 34 -41.5 53.5t-66.5 19.5q-35 0 -66.5 -13.5t-55.5 -37t-38 -53.5t-14 -63v-14q33 13 69.5 27t73.5 28.5t73 28t66 24.5z" />
    <glyph glyph-name="Racute" unicode="&#x154;" horiz-adv-x="602" 
d="M68 0l88 714h173q41 0 79 -11t67 -34t46 -57.5t17 -81.5q0 -32 -8.5 -64.5t-25.5 -62t-44 -54.5t-64 -41q10 -23 31 -66t44 -90t44 -89t32 -63h-83q-9 18 -27.5 55.5t-39.5 80t-41.5 84t-34.5 68.5q-10 -2 -21 -2h-22h-107l-35 -286h-68zM179 351h106q53 0 88.5 18
t56.5 44t30 55t9 51q0 25 -9 48.5t-27 42t-45.5 29.5t-64.5 11h-107zM313 760l108 134h59q-31 -34 -61.5 -67.5t-62.5 -66.5h-43z" />
    <glyph glyph-name="racute" unicode="&#x155;" horiz-adv-x="293" 
d="M282 340q-30 0 -58.5 -9.5t-51.5 -26.5t-38.5 -41.5t-19.5 -54.5l-26 -208h-55l49 400h47l-8 -103q15 26 37 46.5t46.5 35t49.5 22.5t47 8zM149 483l108 134h59q-31 -34 -61.5 -67.5t-62.5 -66.5h-43z" />
    <glyph glyph-name="uni0156" unicode="&#x156;" horiz-adv-x="602" 
d="M68 0l88 714h173q41 0 79 -11t67 -34t46 -57.5t17 -81.5q0 -32 -8.5 -64.5t-25.5 -62t-44 -54.5t-64 -41q10 -23 31 -66t44 -90t44 -89t32 -63h-83q-9 18 -27.5 55.5t-39.5 80t-41.5 84t-34.5 68.5q-10 -2 -21 -2h-22h-107l-35 -286h-68zM179 351h106q53 0 88.5 18
t56.5 44t30 55t9 51q0 25 -9 48.5t-27 42t-45.5 29.5t-64.5 11h-107zM302 -21l-111 -208h-54q26 53 51.5 104t51.5 104h62z" />
    <glyph glyph-name="uni0157" unicode="&#x157;" horiz-adv-x="293" 
d="M282 340q-30 0 -58.5 -9.5t-51.5 -26.5t-38.5 -41.5t-19.5 -54.5l-26 -208h-55l49 400h47l-7 -103q15 26 36.5 46.5t46 35t49.5 22.5t47 8zM151 -21l-112 -208h-54q27 53 52.5 104t51.5 104h62z" />
    <glyph glyph-name="Rcaron" unicode="&#x158;" horiz-adv-x="602" 
d="M68 0l88 714h173q41 0 79 -11t67 -34t46 -57.5t17 -81.5q0 -32 -8.5 -64.5t-25.5 -62t-44 -54.5t-64 -41q10 -23 31 -66t44 -90t44 -89t32 -63h-83q-9 18 -27.5 55.5t-39.5 80t-41.5 84t-34.5 68.5q-10 -2 -21 -2h-22h-107l-35 -286h-68zM179 351h106q53 0 88.5 18
t56.5 44t30 55t9 51q0 25 -9 48.5t-27 42t-45.5 29.5t-64.5 11h-107zM247 919h43l64 -110l91 110h44q-37 -45 -72.5 -91t-71.5 -91z" />
    <glyph glyph-name="rcaron" unicode="&#x159;" horiz-adv-x="293" 
d="M282 340q-30 0 -58.5 -9.5t-51.5 -26.5t-38.5 -41.5t-19.5 -54.5l-26 -208h-55l49 400h47l-8 -103q15 26 37 46.5t46.5 35t49.5 22.5t47 8zM95 665h43l64 -110l91 110h44q-37 -45 -72.5 -91t-71.5 -91z" />
    <glyph glyph-name="Sacute" unicode="&#x15a;" horiz-adv-x="554" 
d="M527 677l-32 -55q-33 14 -74.5 24t-81.5 10q-38 0 -69 -10t-53 -27t-34 -39.5t-12 -47.5q0 -35 24.5 -56.5t61 -38.5t79 -32.5t79 -39t61 -58t24.5 -88.5q0 -51 -19 -93t-55 -71.5t-87.5 -46t-115.5 -16.5q-42 0 -76.5 7.5t-61 18t-45 21.5t-30.5 19l38 60
q33 -23 82.5 -41t99.5 -18q29 0 64 8.5t66 26.5t51.5 47t20.5 71t-24.5 68.5t-61.5 45.5t-79.5 34.5t-79.5 35.5t-61.5 49t-24.5 74q0 39 17 74.5t48.5 63.5t75.5 44.5t98 16.5q28 0 57 -4.5t54.5 -11t45.5 -13.5t30 -12zM284 760l108 134h59q-31 -34 -61.5 -67.5
t-62.5 -66.5h-43z" />
    <glyph glyph-name="sacute" unicode="&#x15b;" horiz-adv-x="331" 
d="M289 362l-34 -39q-8 11 -30 20.5t-46 9.5q-11 0 -23.5 -3t-23.5 -10.5t-18 -19t-7 -28.5q0 -20 12.5 -32.5t31 -21.5t40 -18t40 -21t31 -30t12.5 -46q0 -27 -10 -50.5t-29 -41.5t-46 -28.5t-61 -10.5t-68 12t-53 38q5 4 11.5 11t12.5 13t10 10.5t5 4.5q3 -5 11.5 -11
t21 -11.5t27 -9.5t28.5 -4q13 0 28 4t27.5 12.5t21 22t8.5 31.5q0 20 -12.5 32.5t-31.5 21.5t-40.5 17.5t-40.5 20.5t-31.5 30t-12.5 47q0 33 13 56.5t32.5 38t43 21.5t45.5 7q26 0 55.5 -11t49.5 -34zM164 483l108 134h59q-31 -34 -61.5 -67.5t-62.5 -66.5h-43z" />
    <glyph glyph-name="Scircumflex" unicode="&#x15c;" horiz-adv-x="554" 
d="M527 677l-32 -55q-33 14 -74.5 24t-81.5 10q-38 0 -69 -10t-53 -27t-34 -39.5t-12 -47.5q0 -35 24.5 -56.5t61 -38.5t79 -32.5t79 -39t61 -58t24.5 -88.5q0 -51 -19 -93t-55 -71.5t-87.5 -46t-115.5 -16.5q-42 0 -76.5 7.5t-61 18t-45 21.5t-30.5 19l38 60
q33 -23 82.5 -41t99.5 -18q29 0 64 8.5t66 26.5t51.5 47t20.5 71t-24.5 68.5t-61.5 45.5t-79.5 34.5t-79.5 35.5t-61.5 49t-24.5 74q0 39 17 74.5t48.5 63.5t75.5 44.5t98 16.5q28 0 57 -4.5t54.5 -11t45.5 -13.5t30 -12zM366 942q24 -45 48.5 -91t49.5 -91h-44
q-6 12 -14.5 26t-17 29t-17 29.5t-14.5 25.5q-9 -11 -21 -25.5t-25 -29.5t-25 -29t-21 -26h-43z" />
    <glyph glyph-name="scircumflex" unicode="&#x15d;" horiz-adv-x="331" 
d="M289 362l-34 -39q-8 11 -30 20.5t-46 9.5q-11 0 -23.5 -3t-23.5 -10.5t-18 -19t-7 -28.5q0 -20 12.5 -32.5t31 -21.5t40 -18t40 -21t31 -30t12.5 -46q0 -27 -10 -50.5t-29 -41.5t-46 -28.5t-61 -10.5t-68 12t-53 38q5 4 11.5 11t12.5 13t10 10.5t5 4.5q3 -5 11.5 -11
t21 -11.5t27 -9.5t28.5 -4q13 0 28 4t27.5 12.5t21 22t8.5 31.5q0 20 -12.5 32.5t-31.5 21.5t-40.5 17.5t-40.5 20.5t-31.5 30t-12.5 47q0 33 13 56.5t32.5 38t43 21.5t45.5 7q26 0 55.5 -11t49.5 -34zM210 665q25 -45 49.5 -91t49.5 -91h-44q-6 12 -14.5 26t-17 29
t-17 29.5t-14.5 25.5q-9 -11 -21 -25.5t-25 -29.5t-25 -29t-21 -26h-43z" />
    <glyph glyph-name="Scedilla" unicode="&#x15e;" horiz-adv-x="554" 
d="M527 677l-32 -55q-33 14 -74.5 24t-81.5 10q-38 0 -69 -10t-53 -27t-34 -39.5t-12 -47.5q0 -35 24.5 -56.5t61 -38.5t79 -32.5t79 -39t61 -58t24.5 -88.5q0 -49 -17.5 -89t-50 -69.5t-79.5 -47t-106 -20.5q-2 -14 1 -22.5t8.5 -14t12 -9.5t12.5 -8q17 -14 24.5 -31.5
t7.5 -35.5q0 -24 -8 -45t-23 -36t-35.5 -24t-45.5 -9q-31 0 -55 17t-32 52q17 9 37 17q3 -18 16.5 -29.5t35.5 -11.5q29 0 47.5 20t18.5 49q0 21 -10.5 32.5t-23 21t-22 19.5t-7.5 27l2 20q-39 1 -71 9t-56.5 18.5t-42 21t-28.5 17.5l38 60q33 -23 82.5 -41t99.5 -18
q29 0 64 8.5t66 26.5t51.5 47t20.5 71t-24.5 68.5t-61.5 45.5t-79.5 34.5t-79.5 35.5t-61.5 49t-24.5 74q0 39 17 74.5t48.5 63.5t75.5 44.5t98 16.5q28 0 57 -4.5t54.5 -11t45.5 -13.5t30 -12z" />
    <glyph glyph-name="scedilla" unicode="&#x15f;" horiz-adv-x="331" 
d="M289 362l-34 -39q-8 11 -30 20.5t-46 9.5q-11 0 -23.5 -3t-23.5 -10.5t-18 -19t-7 -28.5q0 -20 12.5 -32.5t31 -21.5t40 -18t40 -21t31 -30t12.5 -46q0 -50 -33.5 -86.5t-92.5 -43.5q-2 -14 1 -22.5t8.5 -14t12 -9.5t12.5 -8q17 -14 24.5 -31.5t7.5 -35.5q0 -24 -8 -45
t-23 -36t-35.5 -24t-45.5 -9q-31 0 -55 17t-32 52q17 9 37 17q3 -18 16.5 -29.5t35.5 -11.5q29 0 47.5 20t18.5 49q0 21 -10.5 32.5t-23 21t-22 19.5t-7.5 27l3 21q-31 3 -59 14.5t-44 34.5q5 4 11.5 11t12.5 13t10 10.5t5 4.5q3 -5 11.5 -11t21 -11.5t27 -9.5t28.5 -4
q13 0 28 4t27.5 12.5t21 22t8.5 31.5q0 20 -12.5 32.5t-31.5 21.5t-40.5 17.5t-40.5 20.5t-31.5 30t-12.5 47q0 33 13 56.5t32.5 38t43 21.5t45.5 7q26 0 55.5 -11t49.5 -34z" />
    <glyph glyph-name="Scaron" unicode="&#x160;" horiz-adv-x="554" 
d="M527 677l-32 -55q-33 14 -74.5 24t-81.5 10q-38 0 -69 -10t-53 -27t-34 -39.5t-12 -47.5q0 -35 24.5 -56.5t61 -38.5t79 -32.5t79 -39t61 -58t24.5 -88.5q0 -51 -19 -93t-55 -71.5t-87.5 -46t-115.5 -16.5q-42 0 -76.5 7.5t-61 18t-45 21.5t-30.5 19l38 60
q33 -23 82.5 -41t99.5 -18q29 0 64 8.5t66 26.5t51.5 47t20.5 71t-24.5 68.5t-61.5 45.5t-79.5 34.5t-79.5 35.5t-61.5 49t-24.5 74q0 39 17 74.5t48.5 63.5t75.5 44.5t98 16.5q28 0 57 -4.5t54.5 -11t45.5 -13.5t30 -12zM236 919h43l64 -110l91 110h44q-37 -45 -72.5 -91
t-71.5 -91z" />
    <glyph glyph-name="scaron" unicode="&#x161;" horiz-adv-x="331" 
d="M289 362l-34 -39q-8 11 -30 20.5t-46 9.5q-11 0 -23.5 -3t-23.5 -10.5t-18 -19t-7 -28.5q0 -20 12.5 -32.5t31 -21.5t40 -18t40 -21t31 -30t12.5 -46q0 -27 -10 -50.5t-29 -41.5t-46 -28.5t-61 -10.5t-68 12t-53 38q5 4 11.5 11t12.5 13t10 10.5t5 4.5q3 -5 11.5 -11
t21 -11.5t27 -9.5t28.5 -4q13 0 28 4t27.5 12.5t21 22t8.5 31.5q0 20 -12.5 32.5t-31.5 21.5t-40.5 17.5t-40.5 20.5t-31.5 30t-12.5 47q0 33 13 56.5t32.5 38t43 21.5t45.5 7q26 0 55.5 -11t49.5 -34zM89 665h43l65 -110l90 110h44q-36 -45 -71.5 -91t-71.5 -91z" />
    <glyph glyph-name="uni0162" unicode="&#x162;" horiz-adv-x="535" 
d="M544 714l-8 -65h-190l-80 -649h-69l80 649h-188l8 65h447zM265 -21l-112 -208h-54q27 53 52.5 104t51.5 104h62z" />
    <glyph glyph-name="uni0163" unicode="&#x163;" horiz-adv-x="284" 
d="M134 575h55l-22 -179h119l-6 -50h-119l-43 -346h-55l43 346h-80l6 50h80zM130 -21l-112 -208h-54q27 53 52.5 104t51.5 104h62z" />
    <glyph glyph-name="Tcaron" unicode="&#x164;" horiz-adv-x="535" 
d="M544 714l-8 -65h-190l-80 -649h-69l80 649h-188l8 65h447zM224 919h43l65 -110l90 110h44q-36 -45 -72 -91t-71 -91z" />
    <glyph glyph-name="tcaron" unicode="&#x165;" horiz-adv-x="284" 
d="M134 575h55l-22 -179h119l-6 -50h-119l-42 -346h-55l42 346h-80l6 50h80zM289 573l-26 22q24 20 37 50t11 65l41 7q3 -42 -14 -79.5t-49 -64.5z" />
    <glyph glyph-name="Tbar" unicode="&#x166;" horiz-adv-x="535" 
d="M173 463l5 39h81l18 147h-188l8 65h447l-8 -65h-190l-18 -147h82l-5 -39h-82l-57 -463h-69l57 463h-81z" />
    <glyph glyph-name="tbar" unicode="&#x167;" horiz-adv-x="284" 
d="M53 487l5 39h70l6 49h55l-6 -49h107l-5 -39h-107l-11 -91h119l-6 -50h-119l-42 -346h-55l42 346h-80l6 50h80l11 91h-70z" />
    <glyph glyph-name="Utilde" unicode="&#x168;" horiz-adv-x="694" 
d="M312 -8q-54 0 -98.5 17.5t-74.5 49.5t-43.5 78.5t-6.5 105.5l58 471h68l-57 -468q-5 -43 4.5 -78t31 -59.5t54 -38t72.5 -13.5q39 0 75 13.5t64 38t47 59.5t24 78l57 468h68l-58 -471q-7 -59 -32.5 -105.5t-64 -78.5t-87 -49.5t-101.5 -17.5zM411 793q-14 17 -25 22.5
t-25 5.5q-8 0 -17.5 -2t-19 -7.5t-17 -15.5t-11.5 -25l-33 2q4 20 14 35t24 25.5t29.5 15.5t30.5 5q23 0 40 -9t31 -26t24.5 -22.5t24.5 -5.5q7 0 17 2t19.5 7.5t17.5 15.5t12 25l32 -2q-3 -20 -13.5 -35t-24.5 -25.5t-29.5 -15.5t-30.5 -5q-23 0 -39.5 9.5t-30.5 25.5z" />
    <glyph glyph-name="utilde" unicode="&#x169;" horiz-adv-x="479" 
d="M378 -5h-46l8 108q-27 -50 -74 -81t-108 -31q-59 0 -89.5 33t-25.5 87l35 289h55l-33 -270q-2 -34 17 -58t63 -26q31 0 59.5 10.5t51 29t37.5 44.5t19 57l26 213h55zM264 499q-14 17 -24.5 22.5t-24.5 5.5q-8 0 -17.5 -2t-19 -7.5t-17 -15.5t-11.5 -25l-33 2
q3 20 13.5 35t24.5 25.5t29.5 15.5t30.5 5q23 0 40 -9t31 -26t24.5 -22.5t24.5 -5.5q7 0 17 2t19.5 7.5t17 15.5t11.5 25l33 -2q-4 -20 -14 -35t-24 -25.5t-29.5 -15.5t-30.5 -5q-23 0 -40 9.5t-31 25.5z" />
    <glyph glyph-name="Umacron" unicode="&#x16a;" horiz-adv-x="694" 
d="M312 -8q-54 0 -98.5 17.5t-74.5 49.5t-43.5 78.5t-6.5 105.5l58 471h68l-57 -468q-5 -43 4.5 -78t31 -59.5t54 -38t72.5 -13.5q39 0 75 13.5t64 38t47 59.5t24 78l57 468h68l-58 -471q-7 -59 -32.5 -105.5t-64 -78.5t-87 -49.5t-101.5 -17.5zM300 771l5 39h232l-5 -39
h-232z" />
    <glyph glyph-name="umacron" unicode="&#x16b;" horiz-adv-x="479" 
d="M378 -5h-46l8 108q-27 -50 -74 -81t-108 -31q-59 0 -89.5 33t-25.5 87l35 289h55l-33 -270q-2 -34 17 -58t63 -26q31 0 59.5 10.5t51 29t37.5 44.5t19 57l26 213h55zM148 487l5 39h232l-5 -39h-232z" />
    <glyph glyph-name="Ubreve" unicode="&#x16c;" horiz-adv-x="694" 
d="M312 -8q-54 0 -98.5 17.5t-74.5 49.5t-43.5 78.5t-6.5 105.5l58 471h68l-57 -468q-5 -43 4.5 -78t31 -59.5t54 -38t72.5 -13.5q39 0 75 13.5t64 38t47 59.5t24 78l57 468h68l-58 -471q-7 -59 -32.5 -105.5t-64 -78.5t-87 -49.5t-101.5 -17.5zM412 759q-33 0 -61 12
t-47.5 33t-29 50t-6.5 62h34q-3 -26 4.5 -48t22.5 -39t37.5 -26.5t49.5 -9.5q28 0 52 9.5t42.5 26.5t30.5 39t16 48h35q-4 -33 -20.5 -62t-41 -50t-55 -33t-63.5 -12z" />
    <glyph glyph-name="ubreve" unicode="&#x16d;" horiz-adv-x="479" 
d="M378 -5h-46l8 108q-27 -50 -74 -81t-108 -31q-59 0 -89.5 33t-25.5 87l35 289h55l-33 -270q-2 -34 17 -58t63 -26q31 0 59.5 10.5t51 29t37.5 44.5t19 57l26 213h55zM266 500q-33 0 -60.5 12t-47 33t-29 50t-6.5 62h34q-3 -26 4.5 -48t22.5 -39t37.5 -26.5t49.5 -9.5
q28 0 52 9.5t42.5 26.5t30.5 39t16 48h35q-4 -33 -20.5 -62t-41.5 -50t-55.5 -33t-63.5 -12z" />
    <glyph glyph-name="Uring" unicode="&#x16e;" horiz-adv-x="694" 
d="M380 829q0 -15 10.5 -26t26.5 -11q17 0 31.5 13.5t14.5 31.5q0 16 -10.5 26.5t-25.5 10.5q-18 0 -32.5 -13t-14.5 -32zM345 826q0 17 7 32t19 26.5t27.5 18t32.5 6.5q29 0 47.5 -19.5t18.5 -47.5q0 -35 -25 -59.5t-60 -24.5q-29 0 -48 19.5t-19 48.5zM312 -8
q-54 0 -98.5 17.5t-74.5 49.5t-43.5 78.5t-6.5 105.5l58 471h68l-57 -468q-5 -43 4.5 -78t31 -59.5t54 -38t72.5 -13.5q39 0 75 13.5t64 38t47 59.5t24 78l57 468h68l-58 -471q-7 -59 -32.5 -105.5t-64 -78.5t-87 -49.5t-101.5 -17.5z" />
    <glyph glyph-name="uring" unicode="&#x16f;" horiz-adv-x="479" 
d="M229 507q0 -15 10.5 -26t25.5 -11q19 0 32.5 13.5t13.5 31.5q0 16 -10 26.5t-26 10.5q-18 0 -32 -13t-14 -32zM193 504q0 17 7 32t19 26.5t27.5 18t32.5 6.5q29 0 48.5 -19.5t19.5 -48.5q0 -17 -7 -32t-19 -26.5t-27.5 -18t-32.5 -6.5q-29 0 -48.5 19.5t-19.5 48.5z
M378 -5h-46l8 108q-27 -50 -74 -81t-108 -31q-59 0 -89.5 33t-25.5 87l35 289h55l-33 -270q-2 -34 17 -58t63 -26q31 0 59.5 10.5t51 29t37.5 44.5t19 57l26 213h55z" />
    <glyph glyph-name="Uhungarumlaut" unicode="&#x170;" horiz-adv-x="694" 
d="M312 -8q-54 0 -98.5 17.5t-74.5 49.5t-43.5 78.5t-6.5 105.5l58 471h68l-57 -468q-5 -43 4.5 -78t31 -59.5t54 -38t72.5 -13.5q39 0 75 13.5t64 38t47 59.5t24 78l57 468h68l-58 -471q-7 -59 -32.5 -105.5t-64 -78.5t-87 -49.5t-101.5 -17.5zM477 758q28 33 54.5 66.5
t53.5 67.5h60q-31 -34 -61.5 -67.5t-62.5 -66.5h-44zM258 758l108 134h59q-31 -34 -61.5 -67.5t-62.5 -66.5h-43z" />
    <glyph glyph-name="uhungarumlaut" unicode="&#x171;" 
d="M378 -5h-46l8 108q-27 -50 -74 -81t-108 -31q-59 0 -89.5 33t-25.5 87l35 289h55l-33 -270q-2 -34 17 -58t63 -26q31 0 59.5 10.5t51 29t37.5 44.5t19 57l26 213h55zM333 483q28 33 54.5 66.5t53.5 67.5h60q-31 -34 -61.5 -67.5t-62.5 -66.5h-44zM114 483l108 134h59
q-31 -34 -61.5 -67.5t-62.5 -66.5h-43z" />
    <glyph glyph-name="Uogonek" unicode="&#x172;" horiz-adv-x="694" 
d="M353 0h-38l-1 -7v-1h-2q-54 0 -98.5 17.5t-74.5 49.5t-43.5 78.5t-6.5 105.5l58 471h68l-57 -468q-5 -43 4.5 -78t31 -59.5t54 -38t72.5 -13.5q39 0 75 13.5t64 38t47 59.5t24 78l57 468h68l-58 -471q-6 -53 -27.5 -96t-54 -75t-74.5 -51.5t-88 -25.5v5zM314 -8
q-2 -14 -7 -22t-12 -13.5t-14.5 -9.5t-14.5 -8q-28 -18 -39.5 -41.5t-11.5 -49.5q0 -40 22.5 -65t64.5 -25q32 0 60 17t44 52q-8 5 -16 9t-17 8q-8 -18 -24 -29.5t-37 -11.5q-24 0 -37.5 15.5t-13.5 38.5q0 26 13 40t29 24.5t30 21t17 29.5l3 23q-10 -1 -19.5 -2t-19.5 -1z
" />
    <glyph glyph-name="uogonek" unicode="&#x173;" 
d="M369 0h-37l8 103q-27 -50 -74 -81t-108 -31q-59 0 -89.5 33t-25.5 87l35 289h55l-33 -270q-2 -34 17 -58t63 -26q31 0 59.5 10.5t51 29t37.5 44.5t19 57l26 213h55l-50 -405h-10zM332 0h-1l-1 -7q-2 -14 -7 -22.5t-12 -14t-14.5 -9.5t-14.5 -8q-28 -18 -39.5 -41.5
t-11.5 -49.5q0 -40 22.5 -65t63.5 -25q32 0 60.5 17t44.5 52q-8 5 -16.5 9t-16.5 8q-8 -18 -24 -29.5t-37 -11.5q-25 0 -38 15.5t-13 38.5q0 26 13 40t29 24.5t30 21t17 29.5l3 23h-37v5z" />
    <glyph glyph-name="Ydieresis" unicode="&#x178;" horiz-adv-x="635" 
d="M349 249l-31 -249h-69l31 249q-11 22 -27.5 58.5t-36.5 81t-41 93t-41 93t-36.5 81t-26.5 58.5h77q14 -30 34.5 -76t43.5 -97.5t46 -104.5t42 -97l8 -30l16 30q30 44 65.5 97t70.5 104.5t66 97.5t53 76h78zM254 809q0 19 14 32t31 13q14 0 24.5 -10.5t10.5 -26.5
q0 -20 -14 -32.5t-31 -12.5q-14 0 -24.5 10t-10.5 27zM433 809q0 19 14 32t31 13q14 0 24.5 -10.5t10.5 -26.5q0 -20 -14 -32.5t-31 -12.5q-14 0 -24.5 10t-10.5 27z" />
    <glyph glyph-name="Zacute" unicode="&#x179;" horiz-adv-x="634" 
d="M195 714h449l-538 -648h477l-8 -66h-596q30 36 73.5 89.5t94 115.5t104 128t103.5 127.5t93.5 113.5t73.5 86h-352q-32 0 -52 13t-16 42l4 35h63l-2 -13q-2 -14 5 -18.5t24 -4.5zM352 760l108 134h59q-31 -34 -61.5 -67.5t-62.5 -66.5h-43z" />
    <glyph glyph-name="zacute" unicode="&#x17a;" horiz-adv-x="402" 
d="M336 0h-345l292 352h-169q-33 0 -51 14.5t-14 44.5l3 27h51l-2 -13q-2 -14 5.5 -19.5t24.5 -5.5h258l-287 -346h241zM195 483l108 134h59q-31 -34 -61.5 -67.5t-62.5 -66.5h-43z" />
    <glyph glyph-name="Zdotaccent" unicode="&#x17b;" horiz-adv-x="634" 
d="M195 714h449l-538 -648h477l-8 -66h-596q30 36 73.5 89.5t94 115.5t104 128t103.5 127.5t93.5 113.5t73.5 86h-352q-32 0 -52 13t-16 42l4 35h63l-2 -13q-2 -14 5 -18.5t24 -4.5zM353 790q0 19 14.5 31.5t30.5 12.5q14 0 24.5 -10t10.5 -26q0 -20 -13.5 -32t-30.5 -12
q-14 0 -25 9.5t-11 26.5z" />
    <glyph glyph-name="zdotaccent" unicode="&#x17c;" horiz-adv-x="402" 
d="M336 0h-345l292 352h-169q-33 0 -51 14.5t-14 44.5l3 27h51l-2 -13q-2 -14 5.5 -19.5t24.5 -5.5h258l-287 -346h241zM191 541q0 19 14 31.5t31 12.5q14 0 24 -10t10 -26q0 -20 -13.5 -32t-30.5 -12q-14 0 -24.5 9.5t-10.5 26.5z" />
    <glyph glyph-name="Zcaron" unicode="&#x17d;" horiz-adv-x="634" 
d="M195 714h449l-538 -648h477l-8 -66h-596q30 36 73.5 89.5t94 115.5t104 128t103.5 127.5t93.5 113.5t73.5 86h-352q-32 0 -52 13t-16 42l4 35h63l-2 -13q-2 -14 5 -18.5t24 -4.5zM278 919h43l64 -110l91 110h44q-37 -45 -72.5 -91t-71.5 -91z" />
    <glyph glyph-name="zcaron" unicode="&#x17e;" horiz-adv-x="402" 
d="M336 0h-345l292 352h-169q-33 0 -51 14.5t-14 44.5l3 27h51l-2 -13q-2 -14 5.5 -19.5t24.5 -5.5h258l-287 -346h241zM137 665h43l64 -110l91 110h44q-37 -45 -72.5 -91t-71.5 -91z" />
    <glyph glyph-name="florin" unicode="&#x192;" horiz-adv-x="351" 
d="M179 345l-33 -266q-15 -122 -81 -183.5t-163 -64.5l6 52q75 3 123.5 54t59.5 142l33 266h-69l7 54h69l14 118q15 122 81 183.5t164 65.5l-7 -53q-74 -2 -123 -53.5t-60 -142.5l-14 -118h131l-7 -54h-131z" />
    <glyph glyph-name="circumflex" unicode="&#x2c6;" horiz-adv-x="450" 
d="M315 665q25 -45 49 -91t50 -91h-44q-6 12 -14.5 26t-17 29t-17 29.5t-14.5 25.5q-9 -11 -21 -25.5t-25 -29.5t-25 -29t-21 -26h-43z" />
    <glyph glyph-name="caron" unicode="&#x2c7;" horiz-adv-x="445" 
d="M195 665h43l64 -110l91 110h44q-36 -45 -72 -91t-71 -91z" />
    <glyph glyph-name="breve" unicode="&#x2d8;" horiz-adv-x="639" 
d="M325 500q-33 0 -61 12t-47.5 33t-29 50t-6.5 62h34q-2 -26 5 -48t22 -39t37.5 -26.5t49.5 -9.5q28 0 52 9.5t42.5 26.5t30.5 39t16 48h35q-4 -33 -20.5 -62t-41 -50t-55 -33t-63.5 -12z" />
    <glyph glyph-name="dotaccent" unicode="&#x2d9;" horiz-adv-x="219" 
d="M135 541q0 19 14 31.5t31 12.5q14 0 24 -10t10 -26q0 -20 -13.5 -32t-30.5 -12q-14 0 -24.5 9.5t-10.5 26.5z" />
    <glyph glyph-name="ring" unicode="&#x2da;" horiz-adv-x="478" 
d="M279 507q0 -15 11 -26t26 -11q19 0 32.5 13.5t13.5 31.5q0 16 -10 26.5t-26 10.5q-18 0 -32.5 -13t-14.5 -32zM244 504q0 17 7 32t19 26.5t27.5 18t32.5 6.5q29 0 48 -19.5t19 -48.5q0 -34 -25.5 -58.5t-59.5 -24.5q-29 0 -48.5 19.5t-19.5 48.5z" />
    <glyph glyph-name="ogonek" unicode="&#x2db;" horiz-adv-x="660" 
d="M231 -28q-3 -19 -17 -29.5t-30 -21t-29 -24.5t-13 -40q0 -23 13 -38.5t38 -15.5q21 0 37 11.5t24 29.5q8 -4 16.5 -8t16.5 -9q-16 -35 -44.5 -52t-60.5 -17q-41 0 -63.5 25t-22.5 65q0 26 11.5 49.5t39.5 41.5q7 4 14.5 8t14.5 9.5t12 14t7 22.5l1 7h38z" />
    <glyph glyph-name="tilde" unicode="&#x2dc;" horiz-adv-x="596" 
d="M372 499q-14 17 -25 22.5t-25 5.5q-8 0 -17.5 -2t-19 -7.5t-17 -15.5t-11.5 -25l-33 2q4 20 14 35t24 25.5t29.5 15.5t30.5 5q23 0 40 -9t31 -26t24.5 -22.5t24.5 -5.5q7 0 17 2t19.5 7.5t17 15.5t11.5 25l33 -2q-3 -20 -13.5 -35t-24.5 -25.5t-29.5 -15.5t-30.5 -5
q-23 0 -39.5 9.5t-30.5 25.5z" />
    <glyph glyph-name="hungarumlaut" unicode="&#x2dd;" horiz-adv-x="482" 
d="M359 483q27 33 54 66.5t53 67.5h60q-30 -34 -61 -67.5t-62 -66.5h-44zM140 483l107 134h59q-30 -34 -61 -67.5t-62 -66.5h-43z" />
    <glyph glyph-name="pi" unicode="&#x3c0;" horiz-adv-x="398" 
d="M147 282l-35 -282h-59l35 282h-53l7 57h328l-7 -57h-48l-35 -282h-58l35 282h-110z" />
    <glyph glyph-name="Etilde" unicode="&#x1ebc;" horiz-adv-x="611" 
d="M68 0l88 714h450l-8 -62h-382l-32 -261h342l-8 -64h-342l-32 -263h396l-8 -64h-464zM399 806q-14 17 -25 22.5t-25 5.5q-8 0 -17.5 -2t-19 -7.5t-17 -15.5t-11.5 -25l-32 2q3 20 13.5 35t24 25.5t29 15.5t30.5 5q23 0 40 -9t31 -26t25 -22.5t25 -5.5q7 0 17 2t19.5 7.5
t17 15.5t11.5 25l33 -2q-4 -20 -14 -35t-24 -25.5t-29.5 -15.5t-30.5 -5q-23 0 -40 9.5t-31 25.5z" />
    <glyph glyph-name="endash" unicode="&#x2013;" horiz-adv-x="435" 
d="M53 173l7 57h303l-7 -57h-303z" />
    <glyph glyph-name="emdash" unicode="&#x2014;" horiz-adv-x="638" 
d="M53 173l7 57h506l-7 -57h-506z" />
    <glyph glyph-name="quoteleft" unicode="&#x2018;" horiz-adv-x="182" 
d="M169 595l-31 -22q-26 27 -34 64.5t6 79.5l40 -7q-11 -35 -5.5 -65t24.5 -50z" />
    <glyph glyph-name="quoteright" unicode="&#x2019;" horiz-adv-x="184" 
d="M116 573l-26 22q24 20 37 50t11 65l41 7q3 -42 -14 -79.5t-49 -64.5z" />
    <glyph glyph-name="quotesinglbase" unicode="&#x201a;" horiz-adv-x="193" 
d="M33 -51q-14 10 -25 22q23 20 36 50t11 65l41 7q3 -42 -14 -79.5t-49 -64.5z" />
    <glyph glyph-name="quotedblleft" unicode="&#x201c;" horiz-adv-x="286" 
d="M169 595l-32 -22q-26 27 -33.5 64.5t6.5 79.5l39 -7q-11 -35 -5 -65t25 -50zM273 595q-14 -11 -31 -22q-26 27 -33.5 64.5t6.5 79.5l39 -7q-11 -35 -5.5 -65t24.5 -50z" />
    <glyph glyph-name="quotedblright" unicode="&#x201d;" horiz-adv-x="288" 
d="M220 573l-25 22q23 20 36 50t11 65l42 7q3 -42 -14 -79.5t-50 -64.5zM116 573l-26 22q24 20 37 50t11 65l41 7q3 -42 -14 -79.5t-49 -64.5z" />
    <glyph glyph-name="quotedblbase" unicode="&#x201e;" horiz-adv-x="299" 
d="M138 -51l-26 22q24 20 37 50t11 65l41 7q3 -42 -14 -79.5t-49 -64.5zM33 -51q-14 10 -25 22q23 20 36 50t11 65l41 7q3 -42 -14 -79.5t-49 -64.5z" />
    <glyph glyph-name="dagger" unicode="&#x2020;" horiz-adv-x="342" 
d="M112 32l45 367h-79l7 57h79l17 140h58l-17 -140h79l-7 -57h-79l-45 -367h-58z" />
    <glyph glyph-name="daggerdbl" unicode="&#x2021;" horiz-adv-x="401" 
d="M141 32l26 209h-121l7 57h121l12 101h-79l7 57h79l18 140h58l-18 -140h79l-7 -57h-79l-12 -101h122l-7 -57h-122l-26 -209h-58z" />
    <glyph glyph-name="bullet" unicode="&#x2022;" horiz-adv-x="375" 
d="M83 291q0 24 10 45.5t26.5 37.5t38 25.5t44.5 9.5q42 0 68 -28t26 -68q0 -24 -10 -45t-26.5 -36.5t-38 -24.5t-45.5 -9q-41 0 -67 27t-26 66z" />
    <glyph glyph-name="ellipsis" unicode="&#x2026;" horiz-adv-x="538" 
d="M36 37q0 19 14 32t31 13q14 0 24.5 -10.5t10.5 -26.5q0 -20 -14.5 -32.5t-30.5 -12.5q-14 0 -24.5 10t-10.5 27zM200 37q0 19 14.5 32t31.5 13q14 0 24.5 -10.5t10.5 -26.5q0 -20 -14.5 -32.5t-30.5 -12.5q-14 0 -25 10t-11 27zM365 37q0 19 14.5 32t31.5 13
q14 0 24.5 -10.5t10.5 -26.5q0 -20 -15 -32.5t-30 -12.5q-14 0 -25 10t-11 27z" />
    <glyph glyph-name="perthousand" unicode="&#x2030;" horiz-adv-x="984" 
d="M429 105q0 -24 15.5 -40.5t41.5 -16.5q30 0 51 21t21 50q0 24 -15.5 40.5t-41.5 16.5q-30 0 -51 -21t-21 -50zM479 -9q-47 0 -77.5 31.5t-30.5 78.5q0 27 11.5 51t30 42t43.5 28.5t52 10.5q23 0 43 -8.5t34.5 -23t23 -34.5t8.5 -42q0 -28 -11.5 -52.5t-31 -42.5
t-44 -28.5t-51.5 -10.5zM117 385q0 -24 15.5 -40.5t41.5 -16.5q29 0 50 21t21 50q0 24 -15 40t-40 16q-30 0 -51.5 -20.5t-21.5 -49.5zM167 271q-47 0 -78 31t-31 78q0 27 11.5 51.5t31 42.5t44.5 28.5t52 10.5q22 0 42 -8.5t34.5 -23t23 -34.5t8.5 -43q0 -28 -11.5 -52
t-31 -42t-44.5 -28.5t-51 -10.5zM122 0q90 127 180.5 252t181.5 252h64q-91 -127 -181 -252t-181 -252h-64zM739 105q0 -24 15.5 -40.5t41.5 -16.5q30 0 51 21t21 50q0 24 -15.5 40.5t-41.5 16.5q-30 0 -51 -21t-21 -50zM789 -9q-47 0 -77.5 31.5t-30.5 78.5q0 27 11.5 51
t30 42t43.5 28.5t52 10.5q23 0 43 -8.5t34.5 -23t23 -34.5t8.5 -42q0 -28 -11.5 -52.5t-31 -42.5t-44 -28.5t-51.5 -10.5z" />
    <glyph glyph-name="guilsinglleft" unicode="&#x2039;" horiz-adv-x="281" 
d="M191 62l-150 179q14 12 41 37t56 52t56 52t41 37l-8 -67q-12 -11 -27 -25.5t-30.5 -30t-31 -30t-27.5 -25.5q9 -11 20.5 -25.5t23.5 -30.5t23.5 -31t20.5 -26z" />
    <glyph glyph-name="guilsinglright" unicode="&#x203a;" horiz-adv-x="281" 
d="M46 128q12 11 27 26t30.5 31t31 30.5t27.5 25.5q-9 11 -20.5 25.5t-23.5 30t-23.5 30t-20.5 25.5l8 67q11 -12 31.5 -37t43 -52t43.5 -52t32 -37l-194 -179z" />
    <glyph glyph-name="fraction" unicode="&#x2044;" horiz-adv-x="346" 
d="M-31 0l374 761h59l-374 -761h-59z" />
    <glyph glyph-name="Euro" unicode="&#x20ac;" horiz-adv-x="543" 
d="M56 400h69q15 55 42.5 103t66 83.5t86.5 56t105 20.5q38 0 66 -9.5t42 -17.5l-32 -51q-36 21 -85 21q-44 0 -81.5 -14.5t-67 -42t-51 -65.5t-33.5 -84h225l-4 -33h-228q-2 -7 -2.5 -13.5t-1.5 -13.5q-2 -13 -2.5 -24.5t-1.5 -22.5h227l-4 -33h-222q3 -53 19 -92.5
t40.5 -66t55 -39.5t62.5 -13q23 0 46.5 7t46.5 19l25 -51q-61 -32 -126 -32q-49 0 -90.5 19t-72.5 54t-49 84t-19 111h-67l4 33h64q1 9 1.5 18t2.5 19l2 18t3 19h-65z" />
    <glyph glyph-name="trademark" unicode="&#x2122;" horiz-adv-x="584" 
d="M310 768q9 -15 23 -40t29.5 -51t29 -50t21.5 -37l148 178l-33 -270h-26l23 186q0 3 1 6.5t1 5.5q-11 -13 -27 -33t-33.5 -41.5t-33 -40.5t-24.5 -31q-6 10 -19 31.5t-26.5 45t-24.5 43.5t-14 26v-12l-23 -186h-25zM261 757l-3 -24h-69l-29 -235h-23l29 235h-69l3 24h161z
" />
    <glyph glyph-name="Omega" unicode="&#x2126;" horiz-adv-x="679" 
d="M39 57h149q-24 13 -45.5 32t-37 44.5t-25 59t-9.5 76.5q0 68 21.5 128.5t62 105.5t97.5 71.5t129 26.5t120.5 -26.5t76 -69t36 -96.5t-0.5 -111q-8 -50 -24.5 -88.5t-38.5 -67.5t-48 -49.5t-54 -35.5h136l-7 -57h-212l7 57q33 13 63.5 34.5t54.5 51.5t41 68t23 85
q7 54 -1 99t-30 78t-59 52t-89 19q-53 0 -95 -19t-72.5 -52t-49.5 -77t-26 -95q-6 -48 2 -87.5t27 -69.5t45 -52t56 -35l-7 -57h-223z" />
    <glyph glyph-name="Delta" unicode="&#x2206;" horiz-adv-x="415" 
d="M265 735l105 -465h-324zM106 306h212l-67 313z" />
    <glyph glyph-name="product" unicode="&#x220f;" horiz-adv-x="462" 
d="M124 -66h-58l101 822h246l-101 -822h-58l94 765h-130z" />
    <glyph glyph-name="summation" unicode="&#x2211;" horiz-adv-x="472" 
d="M103 -16h273l15 -56h-372l165 414l-63 414h372l-29 -57h-273l56 -357z" />
    <glyph glyph-name="minus" unicode="&#x2212;" horiz-adv-x="501" 
d="M419 172h-363l7 57h363z" />
    <glyph glyph-name="radical" unicode="&#x221a;" horiz-adv-x="540" 
d="M40 361h111l80 -237l282 485h43l-337 -585l-100 300h-84z" />
    <glyph glyph-name="infinity" unicode="&#x221e;" horiz-adv-x="500" 
d="M333 225q-26 0 -49 9t-36 26q-18 -17 -43 -26t-51 -9q-21 0 -36.5 6.5t-25.5 17t-15 23t-5 25.5q0 15 6.5 30t19 27.5t31.5 20.5t44 8q26 0 49 -9.5t37 -26.5q17 17 42.5 26.5t51.5 9.5q21 0 36 -6.5t25 -17t14.5 -23t4.5 -25.5q0 -14 -6 -29.5t-18.5 -28t-31.5 -20.5
t-44 -8zM235 306q0 17 -20 28.5t-45 11.5q-30 0 -44.5 -14.5t-14.5 -31.5q0 -14 11 -26t37 -12q24 0 46 11.5t29 28.5l1 2v2zM272 302q-3 -8 2.5 -15.5t15.5 -13t22.5 -8.5t24.5 -3q31 0 45 15t14 31q0 14 -11.5 26t-36.5 12q-26 0 -47.5 -12.5t-27.5 -29.5z" />
    <glyph glyph-name="integral" unicode="&#x222b;" horiz-adv-x="322" 
d="M175 633q6 46 17.5 70.5t27.5 35.5t36 12t41 1h54l-7 -57h-49q-15 0 -26 -5t-18.5 -17t-12.5 -33t-9 -52l-75 -606q-6 -52 -18 -79t-27.5 -39t-35.5 -13t-42 -1h-54l7 57h49q16 0 26.5 5t18 17t12.5 32.5t9 52.5z" />
    <glyph glyph-name="approxequal" unicode="&#x2248;" horiz-adv-x="449" 
d="M207 199q-14 17 -25 22.5t-25 5.5q-8 0 -17.5 -2t-19 -7.5t-17 -15.5t-11.5 -25l-33 2q4 20 14 35t24 25.5t29.5 15.5t30.5 5q23 0 40 -9t31 -26t24.5 -22.5t24.5 -5.5q7 0 17 2t19.5 7.5t17 15.5t11.5 25l33 -2q-3 -20 -13.5 -35t-24.5 -25.5t-29.5 -15.5t-30.5 -5
q-23 0 -39.5 9.5t-30.5 25.5zM226 349q-14 17 -25 22.5t-25 5.5q-8 0 -17.5 -2t-19 -7.5t-17 -15.5t-11.5 -25l-33 2q4 20 14 35t24 25.5t29.5 15.5t30.5 5q23 0 40 -9t31 -26t25 -22.5t25 -5.5q7 0 17 2t19.5 7.5t17 15.5t11.5 25l33 -2q-4 -20 -14 -35t-24 -25.5
t-29.5 -15.5t-30.5 -5q-23 0 -40 9.5t-31 25.5z" />
    <glyph glyph-name="notequal" unicode="&#x2260;" horiz-adv-x="669" 
d="M601 380l-7 -58h-192q-33 -35 -66 -69.5t-67 -68.5h308l-7 -57h-357l-132 -136l-29 30l103 106h-95l7 57h143q34 34 67 68.5t67 69.5h-260l7 58h309l149 154l29 -31l-120 -123h143z" />
    <glyph glyph-name="lessequal" unicode="&#x2264;" horiz-adv-x="562" 
d="M493 297l-9 -79q-104 64 -205.5 127.5t-204.5 127.5q118 63 235.5 127t236.5 127l-9 -78q-167 -88 -328 -176q71 -45 142 -88.5t142 -87.5zM427 74h-363l7 57h363z" />
    <glyph glyph-name="greaterequal" unicode="&#x2265;" horiz-adv-x="560" 
d="M84 297q82 44 164 87.5t163 88.5q-71 45 -142 88.5t-141 87.5l9 78q103 -63 204.5 -127t205.5 -127q-119 -64 -236.5 -127.5t-235.5 -127.5zM63 131h363l-7 -57h-363z" />
    <glyph glyph-name="lozenge" unicode="&#x25ca;" horiz-adv-x="416" 
d="M59 380l206 355l118 -355l-206 -356zM103 380l87 -256l150 256l-88 255z" />
    <glyph glyph-name="fi" unicode="&#xfb01;" horiz-adv-x="516" 
d="M35 346l7 54h69l14 117q15 122 81 183.5t164 65.5l-7 -53q-74 -2 -123 -53.5t-60 -142.5l-14 -117h298l-49 -400h-55l42 346h-243l-42 -346h-55l42 346h-69z" />
    <glyph glyph-name="fl" unicode="&#xfb02;" horiz-adv-x="511" 
d="M35 345l7 54h69l14 118q15 122 81 183.5t164 65.5h132l-94 -766h-55l87 713h-77q-74 -2 -123 -53.5t-60 -142.5l-14 -118h131l-7 -54h-131l-42 -345h-55l42 345h-69z" />
    </font>
</defs>
</svg>
